<svg width="135" height="80" viewBox="0 0 135 80" fill="none" xmlns="http://www.w3.org/2000/svg">
<path fill-rule="evenodd" clip-rule="evenodd" d="M61.8506 26.3499L62.9006 27.3999L66.9506 23.3499L65.9006 22.2999L61.8506 26.3499ZM61.8506 17.3499L62.9006 16.2999L66.9506 20.3499L65.9006 21.3999L61.8506 17.3499ZM72.9006 17.3499L71.8506 16.2999L67.8006 20.3499L68.8506 21.3999L72.9006 17.3499ZM72.9006 26.3499L71.8506 27.3999L67.8006 23.3499L68.8506 22.2999L72.9006 26.3499Z" fill="white"/>
<path fill-rule="evenodd" clip-rule="evenodd" d="M62.9004 11.2L61.8503 12.25L65.9004 16.3L66.9504 15.25L62.9004 11.2ZM71.8503 11.2L72.9004 12.25L68.8503 16.3L67.8004 15.25L71.8503 11.2ZM78.8503 11.4L77.8004 10.35L73.7504 14.4L74.8004 15.45L78.8503 11.4ZM78.0504 17.35L77.0004 16.3L72.9504 20.35L74.0004 21.4L78.0504 17.35ZM78.0504 26.35L77.0004 27.4L72.9504 23.35L74.0004 22.3L78.0504 26.35ZM78.8503 32.3L77.8004 33.35L73.7504 29.3L74.8004 28.25L78.8503 32.3ZM71.8503 32.55L72.9004 31.5L68.8503 27.45L67.8004 28.5L71.8503 32.55ZM62.9004 32.55L61.8503 31.5L65.9004 27.45L66.9504 28.5L62.9004 32.55ZM55.9004 32.3L56.9504 33.35L61.0004 29.3L59.9504 28.25L55.9004 32.3ZM56.7004 26.35L57.7504 27.4L61.8004 23.35L60.7504 22.3L56.7004 26.35ZM56.7004 17.35L57.7504 16.3L61.8004 20.35L60.7504 21.4L56.7004 17.35ZM55.9004 11.4L56.9504 10.35L61.0004 14.4L59.9504 15.45L55.9004 11.4Z" fill="white"/>
<path fill-rule="evenodd" clip-rule="evenodd" d="M62.9 6.05L61.85 7.10001L65.9 11.15L66.95 10.1L62.9 6.05ZM71.85 6.05L72.9 7.10001L68.85 11.15L67.8 10.1L71.85 6.05ZM78.85 6.3L77.8 5.25L73.75 9.3L74.8 10.35L78.85 6.3ZM84 11.4L79.95 15.45L78.9 14.4L82.95 10.35L84 11.4ZM83.2 17.35L82.15 16.3L78.1 20.35L79.15 21.4L83.2 17.35ZM83.2 26.35L82.15 27.4L78.1 23.35L79.15 22.3L83.2 26.35ZM84 32.3L82.95 33.35L78.9 29.3L79.95 28.25L84 32.3ZM78.85 37.4L74.8 33.35L73.75 34.4L77.8 38.45L78.85 37.4ZM71.85 37.65L72.9 36.6L68.85 32.55L67.8 33.6L71.85 37.65ZM62.9 37.65L61.85 36.6L65.9 32.55L66.95 33.6L62.9 37.65ZM55.9 37.4L56.95 38.45L61 34.4L59.95 33.35L55.9 37.4ZM50.75 32.3L54.8 28.25L55.85 29.3L51.8 33.35L50.75 32.3ZM51.55 26.35L52.6 27.4L56.65 23.35L55.6 22.3L51.55 26.35ZM51.55 17.35L52.6 16.3L56.65 20.35L55.6 21.4L51.55 17.35ZM50.75 11.4L51.8 10.35L55.85 14.4L54.8 15.45L50.75 11.4ZM55.9 6.3L59.95 10.35L61 9.3L56.95 5.25L55.9 6.3Z" fill="white"/>
<path fill-rule="evenodd" clip-rule="evenodd" d="M55.9006 1.14998L56.9506 0.0999756L61.0006 4.14998L59.9506 5.19997L55.9006 1.14998ZM62.9006 0.899979L61.8506 1.94997L65.9006 5.99998L66.9506 4.94997L62.9006 0.899979ZM71.8506 0.899979L72.9006 1.94997L68.8506 5.99998L67.8006 4.94997L71.8506 0.899979ZM78.8506 1.14998L77.8006 0.0999756L73.7506 4.14998L74.8006 5.19997L78.8506 1.14998ZM84.8006 5.44997L83.7506 4.39998L79.7006 8.44997L80.7506 9.49998L84.8006 5.44997ZM89.1506 11.4L88.1006 10.35L84.0506 14.4L85.1006 15.45L89.1506 11.4ZM88.3006 17.35L87.2506 16.3L83.2006 20.35L84.2506 21.4L88.3006 17.35ZM88.3006 26.35L87.2506 27.4L83.2006 23.35L84.2506 22.3L88.3006 26.35ZM89.1506 32.3L88.1006 33.35L84.0506 29.3L85.1006 28.25L89.1506 32.3ZM84.8006 38.25L83.7506 39.3L79.7006 35.25L80.7506 34.2L84.8006 38.25ZM78.8506 42.55L77.8006 43.6L73.7506 39.55L74.8006 38.5L78.8506 42.55ZM71.8506 42.8L72.9006 41.75L68.8506 37.7L67.8006 38.75L71.8506 42.8ZM62.9006 42.8L61.8506 41.75L65.9006 37.7L66.9506 38.75L62.9006 42.8ZM55.9006 42.55L56.9506 43.6L61.0006 39.55L59.9506 38.5L55.9006 42.55ZM49.9506 38.25L51.0006 39.3L55.0506 35.25L54.0006 34.2L49.9506 38.25ZM45.6006 32.3L46.6506 33.35L50.7006 29.3L49.6506 28.25L45.6006 32.3ZM46.4506 26.35L47.5006 27.4L51.5506 23.35L50.5006 22.3L46.4506 26.35ZM46.4506 17.35L47.5006 16.3L51.5506 20.35L50.5006 21.4L46.4506 17.35ZM45.6006 11.4L46.6506 10.35L50.7006 14.4L49.6506 15.45L45.6006 11.4ZM49.9506 5.44997L51.0006 4.39998L55.0506 8.44997L54.0006 9.49998L49.9506 5.44997Z" fill="white"/>
<path fill-rule="evenodd" clip-rule="evenodd" d="M39.6003 74.55C37.8003 74.55 36.1503 73.85 34.9003 72.65V79.05H32.8003V67.75V61.35H34.9003V62.9C36.1003 61.75 37.7503 61 39.6003 61C43.3503 61 46.3503 64 46.3503 67.75C46.3503 71.55 43.3503 74.55 39.6003 74.55ZM39.6003 72.5C42.2003 72.5 44.3003 70.4 44.3003 67.8C44.3003 65.2 42.2003 63.1 39.6003 63.1C37.0003 63.1 34.9003 65.2 34.9003 67.8C34.9503 70.4 37.0503 72.5 39.6003 72.5Z" fill="white"/>
<path fill-rule="evenodd" clip-rule="evenodd" d="M59.4002 61.4H61.4502V67.85V74.3H59.4002V72.75C58.2002 73.9 56.5502 74.65 54.7002 74.65C50.9502 74.65 47.9502 71.65 47.9502 67.9C47.9502 64.15 50.9502 61.15 54.7002 61.15C56.5002 61.15 58.1502 61.85 59.4002 63.05V61.4ZM54.7502 63.15C52.1502 63.15 50.0502 65.25 50.0502 67.85C50.0502 70.45 52.1502 72.55 54.7502 72.55C57.3502 72.55 59.4502 70.45 59.4502 67.85C59.4002 65.25 57.3502 63.15 54.7502 63.15Z" fill="white"/>
<path fill-rule="evenodd" clip-rule="evenodd" d="M7.79999 61.4H5.75V67.85V74.3H7.79999V67.85C7.79999 65.25 9.9 63.15 12.5 63.15C15.1 63.15 17.2 65.25 17.2 67.85V74.3H19.3V67.85C19.3 65.25 21.4 63.15 24 63.15C26.6 63.15 28.7 65.25 28.7 67.85V74.3H30.8V67.85C30.8 64.1 27.8 61.1 24.05 61.1C21.65 61.1 19.55 62.35 18.35 64.25C17.15 62.35 15.05 61.1 12.65 61.1C10.85 61.1 9.20001 61.8 7.95001 63V61.4H7.79999Z" fill="white"/>
<path fill-rule="evenodd" clip-rule="evenodd" d="M75.1502 72.7C73.9502 73.85 72.3002 74.6 70.4502 74.6C66.7002 74.6 63.7002 71.6 63.7002 67.85C63.7002 64.1 66.7002 61.1 70.4502 61.1C72.2502 61.1 73.9002 61.8 75.1502 63L73.7002 64.5C72.8502 63.7 71.7002 63.2 70.4502 63.2C67.8502 63.2 65.7502 65.3 65.7502 67.9C65.7502 70.5 67.8502 72.6 70.4502 72.6C71.7002 72.6 72.8502 72.1 73.7002 71.3L75.1502 72.7Z" fill="white"/>
<path fill-rule="evenodd" clip-rule="evenodd" d="M78.8503 57.15H80.9503V61.4H83.0003V63.45H80.9503V74.25H78.8503V63.45H76.8003V61.4H78.8503V57.15ZM83.0003 61.4H85.1003V63.45H83.0003V61.4Z" fill="white"/>
<path fill-rule="evenodd" clip-rule="evenodd" d="M95.1006 57.15L103.251 74.25H100.951L98.4006 68.85H89.2006L86.6506 74.25H84.3506L92.5006 57.15H92.8506H94.8006H95.1006ZM97.4006 66.75L93.8006 59.15L90.2006 66.75H97.4006Z" fill="white"/>
<path fill-rule="evenodd" clip-rule="evenodd" d="M111.201 61.4H109.101V67.85V74.3H111.201V67.85C111.201 65.25 113.301 63.15 115.901 63.15C118.501 63.15 120.601 65.25 120.601 67.85V74.3H122.651V67.85C122.651 65.25 124.751 63.15 127.351 63.15C129.951 63.15 132.051 65.25 132.051 67.85V74.3H134.151V67.85C134.151 64.1 131.151 61.1 127.401 61.1C125.001 61.1 122.901 62.35 121.701 64.25C120.501 62.35 118.401 61.1 116.001 61.1C114.201 61.1 112.551 61.8 111.301 63V61.4H111.201Z" fill="white"/>
<path fill-rule="evenodd" clip-rule="evenodd" d="M104.85 61.4H106.95V74.25H104.85V61.4ZM105.9 56.5C106.7 56.5 107.3 57.15 107.3 57.9C107.3 58.7 106.65 59.3 105.9 59.3C105.1 59.3 104.5 58.65 104.5 57.9C104.5 57.15 105.1 56.5 105.9 56.5Z" fill="white"/>
<path d="M2.75037 57.15H0.650391V74.25H2.75037V57.15Z" fill="white"/>
</svg>
