<svg width="56" height="35" viewBox="0 0 56 35" fill="none" xmlns="http://www.w3.org/2000/svg">
<path d="M33.0499 0.55011C33.0499 0.65011 33.0499 0.70011 33.0499 0.80011C33.0499 2.40011 33.0499 3.95011 33.0499 5.55011C33.0499 5.65011 33.0499 5.70011 33.0499 5.80011C34.5499 5.80011 35.9999 5.80011 37.4999 5.80011C37.4999 7.05011 37.4999 8.25014 37.4999 9.45014C35.9999 9.45014 34.5499 9.45014 33.0499 9.45014C33.0499 9.50014 33.0499 9.55013 33.0499 9.60013C33.0499 12.5001 33.0499 15.4501 33.0499 18.3501C33.0499 18.6501 33.1499 18.9501 33.2999 19.2501C33.4999 19.6001 33.8499 19.7501 34.2499 19.7501C34.5999 19.7501 34.8999 19.6501 35.1499 19.5001C35.3499 19.4001 35.4999 19.3001 35.7499 19.3501C35.8999 19.3501 36.0499 19.4001 36.1499 19.5001C36.2499 19.6001 36.2999 19.7001 36.3999 19.8001C36.9499 20.6501 37.4999 21.4501 38.0499 22.3001C38.0499 22.3001 38.0499 22.3501 38.0999 22.3501C38.0499 22.4001 37.9999 22.4501 37.9499 22.5001C37.1499 23.0501 36.2499 23.4501 35.2499 23.6501C34.2499 23.9001 33.2499 24.0001 32.1999 23.9001C31.0499 23.8001 29.9999 23.4501 29.1499 22.7001C28.3499 22.0501 27.8999 21.1501 27.6999 20.1501C27.5999 19.6501 27.5499 19.1501 27.5499 18.6001C27.5499 15.6501 27.5499 12.6501 27.5499 9.70014C27.5499 9.60014 27.5499 9.55012 27.5499 9.40012C27.4499 9.40012 27.3999 9.40012 27.3499 9.40012C26.8999 9.40012 26.4499 9.40012 25.9999 9.40012C25.8499 9.40012 25.7499 9.40013 25.5999 9.35013C25.1999 9.25013 24.9499 8.90013 24.8999 8.50012C24.8999 8.30012 24.8999 8.15014 24.8999 7.95014C24.8999 7.45014 24.8999 7.00012 24.8999 6.50012C24.8999 6.45012 24.8999 6.35012 24.8999 6.25012C25.8999 6.05012 26.8499 5.90014 27.8499 5.70014C27.9499 5.35014 27.9999 5.00012 28.0999 4.65012C28.3499 3.55012 28.6499 2.45012 28.8999 1.40012C29.0499 0.900116 29.3499 0.60011 29.8499 0.55011C29.8499 0.55011 29.8999 0.550122 29.8999 0.500122C30.9999 0.550122 32.0499 0.55011 33.0499 0.55011Z" fill="white"/>
<path d="M55.5999 20.9001C55.1499 21.4001 54.6499 21.9001 54.0499 22.3001C52.8999 23.1001 51.5999 23.6001 50.2499 23.8001C49.5999 23.9001 48.9499 23.9501 48.2999 24.0001C46.1999 24.0501 44.2999 23.4501 42.6499 22.1501C41.5999 21.3001 40.7999 20.1501 40.2999 18.9001C39.9499 18.0501 39.6999 17.1501 39.5999 16.2001C39.4999 15.5001 39.4999 14.8501 39.5499 14.1501C39.5999 12.8001 39.8999 11.5001 40.4999 10.2501C41.4999 8.15012 43.1499 6.75012 45.3999 6.00012C46.1499 5.75012 46.8999 5.60011 47.6999 5.55011C48.2999 5.50011 48.8999 5.50012 49.4999 5.50012C51.7999 5.60012 53.7999 6.45012 55.4499 8.00012C55.4999 8.05012 55.4999 8.05013 55.5499 8.10013C55.4999 8.15013 55.4499 8.20012 55.3999 8.25012C54.9999 8.75012 54.5999 9.30011 54.1999 9.80011C54.0499 9.95011 53.9499 10.1001 53.7999 10.2501C53.5499 10.5001 53.2499 10.6001 52.9499 10.5501C52.6999 10.5501 52.4499 10.5001 52.1999 10.3501C51.9499 10.2001 51.6999 10.0501 51.4499 9.90011C50.9999 9.65011 50.4999 9.45011 49.9999 9.40011C49.2499 9.30011 48.4999 9.30011 47.7999 9.55011C47.0499 9.80011 46.4999 10.3001 46.0999 10.9501C45.7999 11.4501 45.5999 12.0501 45.4999 12.6501C45.2499 14.0001 45.2499 15.3501 45.5499 16.7001C45.6999 17.4501 45.9999 18.2001 46.5499 18.8001C47.0999 19.4001 47.7499 19.8001 48.5999 19.9001C49.1999 20.0001 49.7999 19.9501 50.3999 19.8001C50.8499 19.7001 51.2999 19.4501 51.6499 19.2001C51.8999 19.0501 52.0999 18.8501 52.3499 18.7001C52.7499 18.4001 53.1999 18.4001 53.6999 18.5001C53.8999 18.5501 54.0499 18.7001 54.1999 18.8501C54.6999 19.4501 55.2499 20.1001 55.7499 20.7001C55.5499 20.8001 55.5999 20.8501 55.5999 20.9001C55.5999 20.8501 55.5999 20.8501 55.5999 20.9001Z" fill="white"/>
<path d="M0.799805 13.5502C0.799805 13.5002 0.849808 13.4502 0.849808 13.4002C0.949808 13.0002 1.1498 12.6502 1.4498 12.3502C1.7998 11.9502 2.19981 11.6502 2.59981 11.3502C3.59981 10.6502 4.64981 10.1002 5.79981 9.80017C5.99981 9.75017 6.14981 9.7002 6.34981 9.7002C6.39981 9.8502 6.39981 23.4002 6.34981 23.6502C6.29981 23.6502 6.2498 23.6502 6.1998 23.6502C4.4498 23.6502 2.6998 23.6502 0.999802 23.6502C0.949802 23.6502 0.849805 23.6502 0.799805 23.6002C0.799805 20.3002 0.799805 16.9502 0.799805 13.5502Z" fill="white"/>
<path d="M23.3496 7.80011C23.2996 7.85011 23.2996 7.90013 23.2496 7.95013C22.8496 8.50013 22.4996 9.10012 22.0996 9.65012C22.0496 9.70012 22.0496 9.75012 21.9996 9.75012C21.7496 10.1501 21.3496 10.3001 20.8996 10.2501C20.6496 10.2501 20.3996 10.1501 20.1996 10.1001C19.6496 9.90013 19.1496 9.65012 18.5996 9.50012C17.8496 9.25012 17.0996 9.20011 16.3496 9.30011C15.9996 9.35011 15.6996 9.45012 15.3996 9.65012C14.9496 9.95012 14.7996 10.5001 14.8996 11.0001C14.9496 11.2501 15.0996 11.4001 15.2996 11.5501C15.5496 11.7501 15.8496 11.9501 16.1996 12.0501C16.7996 12.2501 17.3996 12.4501 17.9996 12.6501C18.8996 12.9501 19.7996 13.2501 20.6996 13.6501C21.3996 14.0001 22.0496 14.4001 22.5496 15.0501C23.0996 15.7001 23.3996 16.4501 23.4496 17.3001C23.4996 18.2501 23.3996 19.2001 23.0496 20.1002C22.5496 21.3002 21.6996 22.2001 20.5496 22.8001C19.7496 23.2501 18.8496 23.5002 17.9496 23.7002C17.1996 23.8502 16.4996 23.9001 15.7496 23.9001C13.7496 23.8501 11.8496 23.4001 10.0996 22.4001C9.79961 22.2501 9.54961 22.0502 9.29961 21.8502C9.24961 21.8002 9.19961 21.7502 9.09961 21.7002C9.14961 21.6502 9.1496 21.6001 9.1996 21.5001C9.5496 20.9501 9.94961 20.3501 10.2996 19.8001C10.3496 19.7001 10.4496 19.6001 10.4996 19.5001C10.7996 19.1501 11.1996 18.9502 11.6496 18.9502C12.0496 18.9502 12.3996 19.0502 12.6996 19.2002C13.0996 19.4002 13.4496 19.6001 13.8496 19.8001C14.5996 20.1501 15.3496 20.3001 16.1996 20.2501C16.5996 20.2501 16.9496 20.2001 17.3496 20.0501C17.8496 19.8501 18.1996 19.5002 18.2496 18.9502C18.2996 18.5502 18.1996 18.1501 17.8996 17.8501C17.6496 17.6001 17.2996 17.4501 16.9996 17.3001C16.3996 17.0501 15.7996 16.9002 15.1996 16.7001C14.2496 16.4001 13.2996 16.1001 12.3996 15.6501C11.2996 15.1001 10.4496 14.2501 9.9996 13.0501C9.8496 12.6501 9.7496 12.2001 9.6996 11.7501C9.5996 10.7001 9.7496 9.65012 10.2496 8.65011C10.7496 7.70011 11.4496 7.00013 12.3996 6.45013C13.2496 5.95013 14.1996 5.65011 15.1996 5.50011C15.9996 5.40011 16.7996 5.35011 17.5996 5.40011C19.4496 5.50011 21.1496 6.00012 22.6996 7.10012C22.8996 7.40012 23.0996 7.60011 23.3496 7.80011Z" fill="white"/>
<path d="M0.899902 10.0501C0.999902 9.70007 1.14991 9.35009 1.24991 8.95009C1.54991 8.05009 1.89991 7.15008 2.19991 6.20008C2.34991 5.75007 2.69991 5.50007 3.19991 5.45007C3.29991 5.45007 3.44991 5.45007 3.54991 5.45007C4.39991 5.45007 5.2999 5.45007 6.1499 5.45007C6.1999 5.45007 6.2999 5.45007 6.3999 5.45007C6.3999 6.10008 6.3999 6.75006 6.3999 7.40007C6.1499 7.45007 5.8999 7.50006 5.6499 7.55006C4.2499 7.80006 2.89991 8.35008 1.79991 9.25008C1.54991 9.45008 1.29991 9.70008 1.04991 9.90008C0.999912 9.95008 0.949905 10.0001 0.949905 10.0501C0.949905 10.1001 0.899902 10.0501 0.899902 10.0501Z" fill="white"/>
<path d="M22.5496 34.1001C22.3996 34.1001 22.2496 34.1001 22.1496 34.1001C22.0496 34.1001 21.9996 34.0001 21.9496 33.9501C21.6496 33.5001 21.3496 33.0501 21.0496 32.6001C20.7996 32.2001 20.4996 31.8001 20.2496 31.4001C20.1996 31.3501 20.1496 31.3001 20.0996 31.2501C20.0996 31.4501 20.0996 31.6001 20.0996 31.8001C20.0996 32.0001 20.0996 32.1501 20.0996 32.3501C20.0996 32.5501 20.0996 32.7501 20.0996 32.9501C20.0996 33.1501 20.0996 33.3001 20.0996 33.5001C20.0996 33.7001 20.0996 33.8501 20.0996 34.1001C19.9996 34.1001 19.9496 34.1001 19.8496 34.1001C19.7996 34.1001 19.6996 34.1001 19.6496 34.1001C19.5996 33.9501 19.5996 30.9001 19.5996 30.4001C19.7496 30.3501 19.8996 30.3501 20.0496 30.4001C20.0996 30.4001 20.1496 30.5001 20.1996 30.5501C20.7496 31.3501 21.2496 32.1501 21.7996 32.9501C21.8496 33.0501 21.9496 33.1501 21.9996 33.2501C22.0496 33.0501 21.9996 32.8501 21.9996 32.6501C21.9996 32.4501 21.9996 32.3001 21.9996 32.1001C21.9996 31.9001 21.9996 31.7001 21.9996 31.5001C21.9996 31.3001 21.9996 31.1501 21.9996 30.9501C21.9996 30.7501 21.9996 30.6001 21.9996 30.3501C22.0996 30.3501 22.1496 30.3501 22.2496 30.3501C22.2996 30.3501 22.3996 30.3501 22.4996 30.3501C22.5496 31.6001 22.5496 32.8501 22.5496 34.1001Z" fill="white"/>
<path d="M48.6996 30.4001C48.6996 30.3501 48.6996 30.3501 48.6996 30.4001C49.1996 30.3501 49.1996 30.3501 49.3996 30.7001C49.8996 31.4501 50.4496 32.2501 50.9496 33.0001C50.9996 33.0501 51.0496 33.1001 51.0996 33.1501C51.0996 32.2001 51.0996 31.3001 51.0996 30.3501C51.2496 30.3501 51.3996 30.3501 51.5996 30.3501C51.5996 31.6001 51.5996 32.8001 51.5996 34.0501C51.4496 34.0501 51.2996 34.0501 51.1996 34.0501C51.1496 34.0501 51.0996 34.0001 51.0496 33.9501C50.9496 33.8001 50.8496 33.6501 50.7496 33.5501C50.2496 32.8501 49.7996 32.1001 49.2996 31.4001C49.2496 31.3501 49.1996 31.3001 49.1496 31.2501C49.1496 32.2001 49.1496 33.1001 49.1496 34.1001C48.9996 34.1001 48.8496 34.1001 48.6996 34.1001C48.6496 33.9501 48.6496 30.7001 48.6996 30.4001Z" fill="white"/>
<path d="M25.0498 34.1001C25.0498 32.8501 25.0498 31.6001 25.0498 30.3501C25.0998 30.3501 25.1498 30.3501 25.1998 30.3501C25.6498 30.3501 26.0998 30.3501 26.5998 30.3501C27.3998 30.3501 27.8998 30.7501 28.0498 31.5001C28.1998 32.0501 28.1498 32.6001 27.9498 33.1501C27.7498 33.7001 27.3498 34.0001 26.7498 34.0501C26.1998 34.1001 25.6498 34.1001 25.0498 34.1001ZM25.5498 33.6001C25.5998 33.6001 25.5998 33.6001 25.6498 33.6001C25.9498 33.6001 26.2498 33.6001 26.5498 33.6001C26.9998 33.6001 27.2998 33.3501 27.4498 32.9001C27.5998 32.5001 27.5998 32.0501 27.4998 31.6501C27.4998 31.5501 27.4498 31.4501 27.3998 31.3501C27.2498 31.0501 27.0498 30.8001 26.6498 30.8001C26.3498 30.8001 26.0998 30.8001 25.7998 30.7501C25.6998 30.7501 25.5998 30.7501 25.4998 30.7501C25.5498 31.7501 25.5498 32.7001 25.5498 33.6001Z" fill="white"/>
<path d="M8.5 32.2001C8.5 31.9501 8.54999 31.6501 8.64999 31.4001C8.95 30.6001 9.70001 30.1501 10.5 30.3001C11.45 30.4001 11.95 31.1001 12.05 32.0001C12.1 32.4501 12.05 32.8501 11.8 33.2501C11.4 34.0001 10.45 34.2501 9.95 34.1001C8.95 33.9001 8.55 33.1001 8.5 32.3501C8.5 32.3001 8.5 32.2501 8.5 32.2001ZM9 32.2001C9.05 32.4001 9.05001 32.6001 9.05001 32.7501C9.15001 33.3001 9.60001 33.6501 10.1 33.7001C10.8 33.7501 11.2 33.4001 11.35 33.0001C11.55 32.4501 11.55 31.9001 11.3 31.3501C11.1 30.9001 10.6 30.6501 10.1 30.7001C9.60001 30.7501 9.20001 31.0501 9.05001 31.5501C9.05001 31.8001 9 32.0001 9 32.2001Z" fill="white"/>
<path d="M42.8496 32.2001C42.8496 31.9501 42.8996 31.7001 42.9496 31.4001C43.1996 30.6001 43.9996 30.1501 44.8496 30.2501C45.7496 30.3501 46.2996 31.0501 46.3996 31.9501C46.4496 32.3501 46.3996 32.7501 46.1996 33.1501C45.8496 33.8501 45.0496 34.2001 44.2996 34.0501C43.2496 33.9001 42.8496 33.0001 42.8496 32.2001ZM43.3496 32.2001C43.3996 32.4001 43.3996 32.6001 43.4496 32.7501C43.5496 33.2501 43.9496 33.6501 44.4496 33.7001C45.0496 33.7501 45.4996 33.5501 45.7496 33.1001C46.0496 32.5001 45.9996 31.9001 45.6996 31.3501C45.4496 30.9001 45.0496 30.7001 44.4996 30.7501C43.9996 30.8001 43.6496 31.0501 43.4996 31.5501C43.3996 31.7501 43.3996 32.0001 43.3496 32.2001Z" fill="white"/>
<path d="M32.5 32.9501C31.95 32.9501 31.45 32.9501 30.95 32.9501C30.8 33.3001 30.7 33.7001 30.55 34.0501C30.35 34.0501 30.2 34.0501 30 34.0501C30.45 32.8001 30.95 31.6001 31.4 30.3501C31.5 30.3501 31.6 30.3501 31.7 30.3501C31.8 30.3501 31.85 30.3501 31.95 30.3501C32.45 31.6001 32.95 32.8001 33.45 34.0501C33.25 34.0501 33.1 34.0501 32.9 34.0501C32.8 33.7001 32.65 33.3501 32.5 32.9501ZM32.3 32.5501C32.1 31.9501 31.9 31.4001 31.7 30.8501C31.5 31.4001 31.3 32.0001 31.1 32.5501C31.5 32.5501 31.9 32.5501 32.3 32.5501Z" fill="white"/>
<path d="M16.7 30.3501C16.85 30.3501 17 30.3501 17.2 30.3501C17.2 30.4001 17.2 30.4501 17.2 30.5001C17.2 31.2001 17.2 31.9001 17.2 32.6001C17.2 32.8001 17.15 33.0501 17.1 33.2501C17 33.6001 16.8 33.8501 16.45 34.0001C15.95 34.2001 15.45 34.2001 14.95 34.0001C14.65 33.8501 14.45 33.6501 14.35 33.3501C14.3 33.2001 14.25 33.1001 14.25 32.9501C14.25 32.1001 14.25 31.2501 14.25 30.4001C14.4 30.4001 14.55 30.4001 14.7 30.4001C14.7 30.4501 14.7 30.5501 14.7 30.6001C14.7 31.2501 14.7 31.8501 14.7 32.5001C14.7 32.6501 14.7 32.8501 14.75 33.0001C14.8 33.4001 15 33.6001 15.4 33.7001C15.6 33.7501 15.85 33.7501 16.05 33.6501C16.3 33.6001 16.5 33.4001 16.55 33.1501C16.6 32.9501 16.6 32.7501 16.65 32.5001C16.65 31.8501 16.65 31.2501 16.65 30.6001C16.7 30.5501 16.7 30.4501 16.7 30.3501Z" fill="white"/>
<path d="M6.34961 30.3501C6.34961 30.5001 6.34961 30.6501 6.34961 30.8001C5.69961 30.8001 5.04961 30.8001 4.34961 30.8001C4.34961 31.2001 4.34961 31.5501 4.34961 31.9501C4.89961 31.9501 5.44961 31.9501 6.04961 31.9501C6.04961 32.1001 6.04961 32.2501 6.04961 32.4001C5.49961 32.4501 4.94961 32.4001 4.34961 32.4001C4.34961 32.9501 4.34961 33.5001 4.34961 34.1001C4.19961 34.1001 4.04961 34.1001 3.84961 34.1001C3.84961 32.8501 3.84961 31.6501 3.84961 30.4001C4.69961 30.3501 5.49961 30.3501 6.34961 30.3501Z" fill="white"/>
<path d="M37.7496 30.3501C37.7496 30.5001 37.7496 30.6001 37.7496 30.8001C37.3496 30.8001 36.9496 30.8001 36.5496 30.8001C36.5496 31.9001 36.5496 33.0001 36.5496 34.0501C36.3996 34.0501 36.2496 34.0501 36.0496 34.0501C36.0496 32.9501 36.0496 31.9001 36.0496 30.8001C35.6496 30.8001 35.2496 30.8001 34.8496 30.8001C34.8496 30.6501 34.8496 30.5001 34.8496 30.4001C34.9996 30.3501 37.3496 30.3501 37.7496 30.3501Z" fill="white"/>
<path d="M40.4998 30.3501C40.4998 31.6001 40.4998 32.8001 40.4998 34.0501C40.3498 34.0501 40.1998 34.0501 40.0498 34.0501C40.0498 32.8001 40.0498 31.6001 40.0498 30.3501C40.1998 30.3501 40.3498 30.3501 40.4998 30.3501Z" fill="white"/>
</svg>
