<svg width="106" height="34" viewBox="0 0 106 34" fill="none" xmlns="http://www.w3.org/2000/svg">
<path d="M35.8498 4.95007H35.3498V4.60007C35.3498 4.30007 35.4498 4.05007 35.6998 3.85007C35.9498 3.60007 36.2498 3.45007 36.6498 3.45007C36.8998 3.45007 37.1498 3.50007 37.3498 3.60007C37.5498 3.70007 37.7498 3.90007 37.8498 4.10007C37.9498 4.30007 37.9998 4.50007 37.9998 4.70007V5.00006C37.9998 5.25006 37.9498 5.55005 37.8498 5.80005C37.7498 6.05005 37.5998 6.25007 37.3998 6.45007C37.2498 6.55007 37.1498 6.65007 37.0998 6.70007L37.1498 6.75006L37.1998 6.80005L37.2498 6.85007L37.3498 6.95007L37.4998 7.15005L37.1498 7.30005L36.9998 7.15005C36.9498 7.10005 36.8498 7.00005 36.7498 6.90005C36.6998 6.90005 36.5998 6.95005 36.4498 7.05005L36.2498 7.10007H36.1498H36.0498H35.9998C35.8498 7.10007 35.7498 7.05006 35.5998 7.00006C35.4498 6.90006 35.3998 6.80007 35.3498 6.70007L35.2998 6.60007V6.50006C35.2998 6.30006 35.3498 6.15006 35.4498 6.00006C35.5498 5.90006 35.6998 5.80005 35.8998 5.80005C35.9998 5.80005 36.0998 5.80007 36.1998 5.85007H36.2498H36.2998C36.3998 5.90007 36.5498 5.95005 36.6498 6.05005L36.6998 6.10007L36.7498 6.15005C36.7498 6.15005 36.7998 6.20006 36.7998 6.25006C36.9998 6.15006 37.1998 5.90005 37.3998 5.55005C37.4998 5.30005 37.5498 5.05005 37.5498 4.80005V4.60007C37.5498 4.25007 37.4498 4.00007 37.1998 3.85007C36.9998 3.75007 36.8498 3.65005 36.6998 3.65005C36.6498 3.65005 36.5998 3.65005 36.5998 3.65005H36.4998C36.2998 3.70005 36.0998 3.80006 35.9998 4.00006C35.9498 4.10006 35.8998 4.25005 35.8998 4.40005L35.8498 4.95007ZM35.6998 6.65005C35.6998 6.75005 35.7498 6.80007 35.8998 6.85007H35.9998C36.1498 6.85007 36.2498 6.80006 36.3998 6.65005C36.3498 6.55006 36.2998 6.50007 36.1998 6.45007C36.0998 6.40007 35.9998 6.35007 35.8998 6.35007C35.8498 6.35007 35.7498 6.35005 35.7498 6.40005C35.6998 6.50005 35.6998 6.55006 35.6998 6.65005Z" fill="white"/>
<path d="M41.6498 5.55005C41.6498 5.90005 41.5998 6.20005 41.5498 6.40005C41.3498 6.90005 40.9498 7.15005 40.2498 7.15005C39.5498 7.15005 39.1498 6.90007 38.9498 6.45007C38.8498 6.25007 38.7998 5.90005 38.7998 5.55005V3.45007H39.2998V4.25006H41.6498V4.70007H39.2998V5.55005C39.2998 5.80005 39.2998 6.00005 39.3498 6.15005C39.4498 6.55006 39.7498 6.75006 40.1998 6.75006C40.5998 6.75006 40.8498 6.65007 40.9998 6.45007C41.0998 6.30007 41.1998 6.00007 41.1998 5.60007V5.20007H41.6998L41.6498 5.55005Z" fill="white"/>
<path d="M45.2999 5.90005H45.6999V6.30005H45.2999V7.15005H44.8499V5.05005C44.8499 4.65005 44.7999 4.35007 44.6499 4.20007C44.4999 4.00007 44.2499 3.90005 43.8499 3.90005C43.3999 3.90005 43.1499 4.05007 42.9999 4.35007C42.9499 4.50007 42.8999 4.75005 42.8999 5.05005V7.15005H42.3999V5.05005C42.3999 4.70005 42.4499 4.45006 42.4999 4.25006C42.6999 3.70006 43.1499 3.45007 43.8499 3.45007C44.5999 3.45007 45.0499 3.75007 45.1999 4.35007C45.2499 4.55007 45.2499 4.80005 45.2499 5.05005L45.2999 5.90005Z" fill="white"/>
<path d="M45.8999 3.45007H47.1499V5.55005C47.1499 5.80005 47.1499 6.00005 47.1999 6.15005C47.2999 6.55006 47.5999 6.75006 48.0499 6.75006C48.4499 6.75006 48.6999 6.65007 48.8499 6.45007C48.9499 6.30007 49.0499 6.00007 49.0499 5.60007V4.90005H49.5499V5.60007C49.5499 5.95007 49.4999 6.25007 49.4499 6.45007C49.2499 6.95007 48.8499 7.20007 48.1499 7.20007C47.4499 7.20007 47.0499 6.95006 46.8499 6.50006C46.7499 6.30006 46.6999 5.95007 46.6999 5.60007V3.95007H45.8999V3.45007Z" fill="white"/>
<path d="M52.7497 6.85001C52.6497 6.95001 52.4997 7.05001 52.2497 7.10001C52.0497 7.15001 51.8497 7.20001 51.6497 7.20001C50.9497 7.20001 50.5497 6.95 50.3497 6.5C50.2497 6.3 50.1997 5.95001 50.1997 5.60001V3.5H50.6997V5.60001C50.6997 5.85001 50.6997 6.05001 50.7497 6.20001C50.8497 6.60001 51.1497 6.79999 51.5997 6.79999C51.9997 6.79999 52.2497 6.7 52.3997 6.5C52.4997 6.35 52.5997 6.04999 52.5997 5.64999V3.54999H53.0997V6.60001L53.5497 7.04999L53.2497 7.39999L52.7497 6.85001Z" fill="white"/>
<path d="M56.7 5.70001H56.2V5.10001C56.2 4.70001 56.15 4.4 56 4.25C55.85 4.05 55.6 3.95001 55.2 3.95001C54.75 3.95001 54.5 4.09999 54.35 4.39999C54.3 4.54999 54.25 4.80001 54.25 5.10001V7.20001H53.75V5.10001C53.75 4.75001 53.8 4.49999 53.85 4.29999C54.05 3.74999 54.5 3.5 55.2 3.5C55.95 3.5 56.4 3.79999 56.55 4.39999C56.6 4.59999 56.6 4.85001 56.6 5.10001L56.7 5.70001Z" fill="white"/>
<path d="M60.2997 7.15005H59.7997V6.05005C59.7497 6.20005 59.4997 6.30007 59.0497 6.35007C58.9997 6.35007 58.9497 6.35007 58.8997 6.35007C58.1997 6.35007 57.7497 6.10005 57.5997 5.65005C57.4997 5.45005 57.4497 5.15006 57.4497 4.75006V3.45007H57.9497V4.75006C57.9497 5.00006 57.9497 5.20007 57.9997 5.35007C58.0997 5.75007 58.3997 5.95007 58.8497 5.95007C59.1997 5.95007 59.4997 5.85007 59.6497 5.70007C59.7497 5.60007 59.7997 5.30005 59.7997 4.80005V4.40005H60.2997V7.15005Z" fill="white"/>
<path d="M63.8997 7.15005H63.3997V5.05005C63.3997 4.65005 63.3497 4.35007 63.1997 4.20007C63.0497 4.00007 62.7997 3.90005 62.3997 3.90005C61.9497 3.90005 61.6997 4.05007 61.5497 4.35007C61.4997 4.50007 61.4497 4.75005 61.4497 5.05005V7.15005H60.9497V5.05005C60.9497 4.70005 60.9997 4.45006 61.0497 4.25006C61.2497 3.70006 61.6997 3.45007 62.3997 3.45007C63.1497 3.45007 63.5997 3.75007 63.7497 4.35007C63.7997 4.55007 63.7997 4.80005 63.7997 5.05005L63.8997 7.15005Z" fill="white"/>
<path d="M64.75 3.5H65.25V4.75H66.15V5.14999H65.25V7.14999H64.75V3.5Z" fill="white"/>
<path d="M70.1998 5.29999V6.14999C70.1998 6.34999 70.1498 6.55001 70.0498 6.70001C69.9498 6.85001 69.7998 7.00001 69.5998 7.10001C69.3998 7.20001 69.1998 7.25 68.9498 7.25H68.7998C68.7498 7.25 68.6498 7.25 68.5998 7.25C68.4998 7.25 68.4498 7.25001 68.3498 7.20001C68.0498 7.10001 67.8498 6.95001 67.7498 6.70001C67.6998 6.55001 67.6998 6.39999 67.6998 6.14999C67.6998 5.54999 67.8498 5.20001 68.1498 5.10001C68.2998 5.05001 68.4998 5 68.7998 5H69.6998V4.64999C69.6998 4.39999 69.6498 4.20001 69.4998 4.10001C69.3998 4.00001 69.1998 3.95001 68.9498 3.95001H68.0498C67.9998 3.95001 67.9998 3.95001 67.9998 3.95001H67.9498C67.5498 3.95001 67.2998 4.19999 67.2998 4.64999V7.25H66.7998V4.5C66.7998 4.3 66.8498 4.15 66.8998 4C67.0998 3.65 67.4498 3.5 67.9998 3.5H68.9498C69.4498 3.5 69.8498 3.69999 69.9998 4.04999C70.0998 4.19999 70.1498 4.39999 70.1498 4.54999V4.95001H70.3998V5.35001L70.1998 5.29999ZM68.7998 5.29999C68.4998 5.29999 68.2998 5.40001 68.2498 5.60001V5.64999V5.79999C68.2498 5.84999 68.2498 5.95001 68.2498 6.10001C68.2498 6.35001 68.2998 6.54999 68.3498 6.64999C68.3998 6.69999 68.4498 6.74999 68.5498 6.79999L68.6998 6.85001H68.8998C69.3998 6.85001 69.6998 6.64999 69.6998 6.14999V5.35001H68.7998V5.29999Z" fill="white"/>
<path d="M71.3496 4.35007H70.8496C70.8496 4.00007 70.9996 3.75007 71.2996 3.60007C71.4496 3.50007 71.6996 3.45007 71.9496 3.45007C72.2996 3.45007 72.5496 3.50005 72.7496 3.65005C72.9996 3.80005 73.0996 4.05005 73.0996 4.40005C73.0996 4.80005 72.9496 5.10007 72.6496 5.20007C72.7996 5.20007 72.9496 5.35005 73.0496 5.55005C73.1496 5.70005 73.1996 5.90007 73.1996 6.10007C73.1996 6.55007 72.9996 6.85005 72.5996 7.05005C72.3996 7.15005 72.1496 7.20007 71.8996 7.20007C71.6996 7.20007 71.4996 7.15007 71.3496 7.10007C71.0496 7.00007 70.8496 6.80005 70.6996 6.55005C70.6496 6.45005 70.5996 6.30006 70.5996 6.15005H71.0996C71.0996 6.35005 71.1996 6.50005 71.3496 6.65005C71.4996 6.75005 71.6496 6.80007 71.8996 6.85007C72.1496 6.85007 72.3496 6.80006 72.4996 6.65005C72.6496 6.50005 72.7496 6.35007 72.7496 6.10007C72.7496 5.85007 72.6996 5.70005 72.5496 5.55005C72.3996 5.45005 72.2496 5.35007 71.9996 5.35007H70.7996V5.00006H71.9996C72.4496 5.00006 72.6996 4.80005 72.6996 4.40005C72.6996 4.20005 72.6496 4.05007 72.4996 3.95007C72.3496 3.85007 72.1996 3.85007 71.9996 3.85007C71.9496 3.85007 71.9496 3.85007 71.8996 3.85007H71.8496H71.7496C71.4996 3.95007 71.3496 4.10007 71.3496 4.35007Z" fill="white"/>
<path d="M76.8499 7.15005H76.3499V5.05005C76.3499 4.65005 76.2999 4.35007 76.1499 4.20007C75.9999 4.00007 75.7499 3.90005 75.3499 3.90005C74.8999 3.90005 74.6499 4.05007 74.4999 4.35007C74.4499 4.50007 74.3999 4.75005 74.3999 5.05005V7.15005H73.8999V5.05005C73.8999 4.70005 73.9499 4.45006 73.9999 4.25006C74.1999 3.70006 74.6499 3.45007 75.3499 3.45007C76.0999 3.45007 76.5499 3.75007 76.6999 4.35007C76.7499 4.55007 76.7499 4.80005 76.7499 5.05005L76.8499 7.15005Z" fill="white"/>
<path d="M77.6997 3.5H78.1997V4.75H79.0997V5.14999H78.1997V7.14999H77.6997V3.5Z" fill="white"/>
<path d="M79.5 3.45007H80.75V5.55005C80.75 5.80005 80.75 6.00005 80.8 6.15005C80.9 6.55006 81.2 6.75006 81.65 6.75006C82.05 6.75006 82.3 6.65007 82.45 6.45007C82.55 6.30007 82.65 6.00007 82.65 5.60007V4.90005H83.15V5.60007C83.15 5.95007 83.1 6.25007 83.05 6.45007C82.85 6.95007 82.45 7.20007 81.75 7.20007C81.05 7.20007 80.65 6.95006 80.45 6.50006C80.35 6.30006 80.3 5.95007 80.3 5.60007V3.95007H79.5V3.45007Z" fill="white"/>
<path d="M83.3999 3.45007H84.6499V5.55005C84.6499 5.80005 84.6499 6.00005 84.6999 6.15005C84.7999 6.55006 85.0999 6.75006 85.5499 6.75006C85.9499 6.75006 86.1999 6.65007 86.3499 6.45007C86.4499 6.30007 86.5499 6.00007 86.5499 5.60007V4.90005H87.0499V5.60007C87.0499 5.95007 86.9999 6.25007 86.9499 6.45007C86.7499 6.95007 86.3499 7.20007 85.6499 7.20007C84.9499 7.20007 84.5499 6.95006 84.3499 6.50006C84.2499 6.30006 84.1999 5.95007 84.1999 5.60007V3.95007H83.3999V3.45007Z" fill="white"/>
<path d="M90.6 5.55005C90.6 5.90005 90.55 6.20005 90.5 6.40005C90.3 6.90005 89.9 7.15005 89.2 7.15005C88.5 7.15005 88.1 6.90007 87.9 6.45007C87.8 6.25007 87.75 5.90005 87.75 5.55005V3.45007H88.25V4.25006H90.6V4.70007H88.25V5.55005C88.25 5.80005 88.25 6.00005 88.3 6.15005C88.4 6.55006 88.7 6.75006 89.15 6.75006C89.55 6.75006 89.8 6.65007 89.95 6.45007C90.05 6.30007 90.15 6.00007 90.15 5.60007V5.20007H90.65L90.6 5.55005Z" fill="white"/>
<path d="M94.2498 5.70001H93.7498V5.10001C93.7498 4.70001 93.6998 4.4 93.5498 4.25C93.3998 4.05 93.1498 3.95001 92.7498 3.95001C92.2998 3.95001 92.0498 4.09999 91.8998 4.39999C91.8498 4.54999 91.7998 4.80001 91.7998 5.10001V7.20001H91.2998V5.10001C91.2998 4.75001 91.3498 4.49999 91.3998 4.29999C91.5998 3.74999 92.0498 3.5 92.7498 3.5C93.4998 3.5 93.9498 3.79999 94.0998 4.39999C94.1498 4.59999 94.1498 4.85001 94.1498 5.10001L94.2498 5.70001Z" fill="white"/>
<path d="M97.7496 6.25006H97.2496V5.90005C97.2496 5.60005 97.1996 5.35007 97.1496 5.20007C97.0496 4.90007 96.7496 4.75006 96.2996 4.75006C95.9496 4.75006 95.6496 4.85006 95.4996 5.00006C95.3996 5.10006 95.3496 5.20007 95.3496 5.35007C95.3496 5.45007 95.3496 5.55006 95.3496 5.75006V7.20007H94.8496V3.45007H95.3496V4.55005C95.3996 4.45005 95.4996 4.40007 95.7496 4.35007C95.9496 4.30007 96.0996 4.30005 96.2496 4.30005C96.9496 4.30005 97.3496 4.55006 97.5496 5.00006C97.5996 5.10006 97.6496 5.25005 97.6496 5.40005C97.6496 5.55006 97.6996 5.75005 97.6996 5.90005L97.7496 6.25006Z" fill="white"/>
<path d="M39.5997 12.3501H39.0997V12.0001C39.0997 11.7001 39.0497 11.45 38.9997 11.3C38.8997 11 38.5997 10.8501 38.1497 10.8501C37.7997 10.8501 37.4997 10.9501 37.3497 11.1001C37.2497 11.2001 37.1997 11.3001 37.1997 11.4501C37.1997 11.5501 37.1997 11.6501 37.1997 11.8501V13.3H36.6997V9.55005H37.1997V10.6501C37.2497 10.5501 37.3497 10.5001 37.5997 10.4501C37.7997 10.4001 37.9497 10.4001 38.0997 10.4001C38.7997 10.4001 39.1997 10.6501 39.3997 11.1001C39.4497 11.2001 39.4997 11.3501 39.4997 11.5001C39.4997 11.6501 39.5497 11.8501 39.5497 12.0001L39.5997 12.3501Z" fill="white"/>
<path d="M40 9.55005H41.25V11.6501C41.25 11.9001 41.25 12.1001 41.3 12.2501C41.4 12.6501 41.7 12.8501 42.15 12.8501C42.55 12.8501 42.8 12.75 42.95 12.55C43.05 12.4 43.15 12.1001 43.15 11.7001V11.0001H43.65V11.7001C43.65 12.0501 43.6 12.35 43.55 12.55C43.35 13.05 42.95 13.3 42.25 13.3C41.55 13.3 41.15 13.0501 40.95 12.6001C40.85 12.4001 40.8 12.0501 40.8 11.7001V10.05H40V9.55005Z" fill="white"/>
<path d="M47.1498 13.3001H46.6498V12.2001C46.5998 12.3501 46.3498 12.4501 45.8998 12.5001C45.8498 12.5001 45.7998 12.5001 45.7498 12.5001C45.0498 12.5001 44.5998 12.2501 44.4498 11.8001C44.3498 11.6001 44.2998 11.3001 44.2998 10.9001V9.6001H44.7998V10.9001C44.7998 11.1501 44.7998 11.3501 44.8498 11.5001C44.9498 11.9001 45.2498 12.1001 45.6998 12.1001C46.0498 12.1001 46.3498 12.0001 46.4998 11.8501C46.5998 11.7501 46.6498 11.4501 46.6498 10.9501V10.5501H47.1498V13.3001Z" fill="white"/>
<path d="M50.7498 13.3001H50.2498V11.2001C50.2498 10.8001 50.1998 10.5001 50.0498 10.3501C49.8998 10.1501 49.6498 10.0501 49.2498 10.0501C48.7998 10.0501 48.5498 10.2001 48.3998 10.5001C48.3498 10.6501 48.2998 10.9001 48.2998 11.2001V13.3001H47.7998V11.2001C47.7998 10.8501 47.8498 10.6001 47.8998 10.4001C48.0998 9.85009 48.5498 9.6001 49.2498 9.6001C49.9998 9.6001 50.4498 9.90009 50.5998 10.5001C50.6498 10.7001 50.6498 10.9501 50.6498 11.2001L50.7498 13.3001Z" fill="white"/>
<path d="M51.5996 9.6001H52.0996V10.8501H52.9996V11.2501H52.0996V13.2501H51.5996V9.6001Z" fill="white"/>
<path d="M56.5999 11.6001H56.0999V11.2001C56.0999 10.8001 56.0499 10.5001 55.8999 10.3501C55.7499 10.1501 55.4999 10.0501 55.0999 10.0501C54.6499 10.0501 54.3999 10.2001 54.2499 10.5001C54.1999 10.6501 54.1499 10.9001 54.1499 11.2001V12.0501H56.4999V12.5001H54.1499V13.3001H53.6499V11.2001C53.6499 10.8501 53.6999 10.6001 53.7499 10.4001C53.9499 9.85009 54.3999 9.6001 55.0999 9.6001C55.8499 9.6001 56.2999 9.90009 56.4499 10.5001C56.4999 10.7001 56.4999 10.9501 56.4999 11.2001V11.6001H56.5999Z" fill="white"/>
<path d="M59.8498 13C59.7498 13.1 59.5998 13.2 59.3498 13.25C59.1498 13.3 58.9498 13.35 58.7498 13.35C58.0498 13.35 57.6498 13.1 57.4498 12.65C57.3498 12.45 57.2998 12.1 57.2998 11.75V9.65002H57.7998V11.75C57.7998 12 57.7998 12.2 57.8498 12.35C57.9498 12.75 58.2498 12.95 58.6998 12.95C59.0998 12.95 59.3498 12.85 59.4998 12.65C59.5998 12.5 59.6998 12.2 59.6998 11.8V9.70004H60.1998V12.75L60.6498 13.2L60.3498 13.55L59.8498 13Z" fill="white"/>
<path d="M60.8496 12.1L61.2996 12.05C61.3496 12.4 61.4996 12.65 61.7996 12.8L61.8996 12.85L62.0496 12.9H62.1996H62.3496C62.4996 12.9 62.6496 12.9 62.8496 12.8C63.1496 12.7 63.2996 12.5 63.2996 12.25C63.2996 12 63.1496 11.85 62.8496 11.75C62.7996 11.75 62.5996 11.65 62.1996 11.6C61.8496 11.5 61.5996 11.45 61.4996 11.35C61.1496 11.15 60.9996 10.9 60.9996 10.55C60.9996 10.15 61.1996 9.84999 61.5996 9.64999C61.7996 9.54999 61.9996 9.5 62.2496 9.5C62.9996 9.5 63.3996 9.80001 63.5996 10.35C63.5996 10.4 63.6496 10.45 63.6496 10.55V10.6L63.1996 10.65C63.1496 10.2 62.8496 9.95001 62.2996 9.95001C62.0996 9.95001 61.8996 9.99999 61.7496 10.05C61.5496 10.15 61.4496 10.3 61.4496 10.5C61.4496 10.7 61.5496 10.85 61.7496 10.95C61.8496 11 61.9996 11.05 62.2996 11.1C62.6996 11.2 62.9496 11.25 63.0996 11.35C63.3996 11.5 63.5996 11.7 63.6996 11.95C63.7496 12.05 63.7496 12.15 63.7496 12.2C63.7496 12.65 63.5496 12.95 63.0996 13.15C62.8996 13.25 62.6496 13.3 62.3996 13.3C61.7496 13.3 61.2996 13.1 61.0496 12.7C60.8996 12.55 60.8496 12.35 60.8496 12.1Z" fill="white"/>
<path d="M67.2498 13.3001H66.7498V11.2001C66.7498 10.8001 66.6998 10.5001 66.5498 10.3501C66.3998 10.1501 66.1498 10.0501 65.7498 10.0501C65.2998 10.0501 65.0498 10.2001 64.8998 10.5001C64.8498 10.6501 64.7998 10.9001 64.7998 11.2001V13.3001H64.2998V11.2001C64.2998 10.8501 64.3498 10.6001 64.3998 10.4001C64.5998 9.85009 65.0498 9.6001 65.7498 9.6001C66.4998 9.6001 66.9498 9.90009 67.0998 10.5001C67.1498 10.7001 67.1498 10.9501 67.1498 11.2001V13.3001H67.2498Z" fill="white"/>
<path d="M70.8997 11.8001H70.3997V11.2001C70.3997 10.8001 70.3497 10.5001 70.1997 10.3501C70.0497 10.1501 69.7997 10.0501 69.3997 10.0501C68.9497 10.0501 68.6997 10.2001 68.5497 10.5001C68.4997 10.6501 68.4497 10.9001 68.4497 11.2001V13.3001H67.9497V11.2001C67.9497 10.8501 67.9997 10.6001 68.0497 10.4001C68.2497 9.85009 68.6997 9.6001 69.3997 9.6001C70.1497 9.6001 70.5997 9.90009 70.7497 10.5001C70.7997 10.7001 70.7997 10.9501 70.7997 11.2001L70.8997 11.8001Z" fill="white"/>
<path d="M75.5498 10.2001L75.4998 10.1001C75.4498 10.0501 75.3498 10.0001 75.2998 10.0001C75.2498 10.0001 75.2498 10.0001 75.1998 10.0001C75.1498 10.0001 75.0998 10.0501 74.9998 10.1001C74.9498 10.1501 74.9498 10.1501 74.8998 10.2001L73.4998 11.8501L75.4498 12.7501V13.6001H75.2998V13.5001C75.2498 13.2501 75.0498 13.1001 74.6998 12.9501L72.7998 12.1001L74.6998 9.85007C74.8498 9.65007 75.0498 9.55005 75.2498 9.55005C75.2998 9.55005 75.3998 9.55007 75.4998 9.60007C75.5498 9.60007 75.5498 9.60005 75.5998 9.65005L75.5498 10.2001Z" fill="white"/>
<path d="M78.8497 12.3501H78.3497V12.0001C78.3497 11.7001 78.2997 11.45 78.2497 11.3C78.1497 11 77.8497 10.8501 77.3997 10.8501C77.0497 10.8501 76.7497 10.9501 76.5997 11.1001C76.4997 11.2001 76.4497 11.3001 76.4497 11.4501C76.4497 11.5501 76.4497 11.6501 76.4497 11.8501V13.3H75.9497V9.55005H76.4497V10.6501C76.4997 10.5501 76.5997 10.5001 76.8497 10.4501C77.0497 10.4001 77.1997 10.4001 77.3497 10.4001C78.0497 10.4001 78.4497 10.6501 78.6497 11.1001C78.6997 11.2001 78.7497 11.3501 78.7497 11.5001C78.7497 11.6501 78.7997 11.8501 78.7997 12.0001L78.8497 12.3501Z" fill="white"/>
<path d="M82.8499 10.05H82.2999V11.7C82.2999 12.05 82.2499 12.3 82.1999 12.5C81.9999 13.05 81.5999 13.3 80.8499 13.3C80.5499 13.3 80.2999 13.25 80.0499 13.15C79.7999 13 79.5999 12.85 79.5499 12.6L79.4999 12.45L79.4499 12.25C79.4499 12.15 79.3999 12 79.3999 11.75V9.65002H79.8999V11.75C79.8999 12.15 79.9499 12.45 80.0999 12.6C80.2499 12.8 80.4999 12.9 80.8999 12.9C81.3499 12.9 81.5999 12.75 81.7499 12.45C81.7999 12.3 81.8499 12.05 81.8499 11.75V9.65002H82.8499V10.05Z" fill="white"/>
<path d="M83.0996 9.55005H84.3496V11.6501C84.3496 11.9001 84.3496 12.1001 84.3996 12.2501C84.4996 12.6501 84.7996 12.8501 85.2496 12.8501C85.6496 12.8501 85.8996 12.75 86.0496 12.55C86.1496 12.4 86.2496 12.1001 86.2496 11.7001V11.0001H86.7496V11.7001C86.7496 12.0501 86.6996 12.35 86.6496 12.55C86.4496 13.05 86.0496 13.3 85.3496 13.3C84.6496 13.3 84.2496 13.0501 84.0496 12.6001C83.9496 12.4001 83.8996 12.0501 83.8996 11.7001V10.05H83.0996V9.55005Z" fill="white"/>
<path d="M89.9499 13C89.8499 13.1 89.6999 13.2 89.4499 13.25C89.2499 13.3 89.0499 13.35 88.8499 13.35C88.1499 13.35 87.7499 13.1 87.5499 12.65C87.4499 12.45 87.3999 12.1 87.3999 11.75V9.65002H87.8999V11.75C87.8999 12 87.8999 12.2 87.9499 12.35C88.0499 12.75 88.3499 12.95 88.7999 12.95C89.1999 12.95 89.4499 12.85 89.5999 12.65C89.6999 12.5 89.7999 12.2 89.7999 11.8V9.70004H90.2999V12.75L90.7499 13.2L90.4499 13.55L89.9499 13Z" fill="white"/>
<path d="M93.4998 11.2001C93.4998 10.9001 93.4498 10.6501 93.3998 10.5001C93.2998 10.2001 92.9998 10.0501 92.5498 10.0501C92.1498 10.0501 91.8998 10.1501 91.7498 10.3501C91.6498 10.5001 91.5498 10.8001 91.5498 11.2001V11.6001H91.0498V11.2001C91.0498 10.8501 91.0998 10.6001 91.1498 10.4001C91.3498 9.85009 91.7498 9.6001 92.4998 9.6001C93.1998 9.6001 93.5998 9.85008 93.7998 10.3001C93.8498 10.4001 93.8998 10.5501 93.8998 10.7001C93.8998 10.9001 93.9498 11.0501 93.9498 11.2001V12.1001H94.3498V12.6001H93.9498V13.3501H93.4498L93.4998 11.2001Z" fill="white"/>
<path d="M97.7498 11.8001H97.2498V11.2001C97.2498 10.8001 97.1998 10.5001 97.0498 10.3501C96.8998 10.1501 96.6498 10.0501 96.2498 10.0501C95.7998 10.0501 95.5498 10.2001 95.3998 10.5001C95.3498 10.6501 95.2998 10.9001 95.2998 11.2001V13.3001H94.7998V11.2001C94.7998 10.8501 94.8498 10.6001 94.8998 10.4001C95.0998 9.85009 95.5498 9.6001 96.2498 9.6001C96.9998 9.6001 97.4498 9.90009 97.5998 10.5001C97.6498 10.7001 97.6498 10.9501 97.6498 11.2001L97.7498 11.8001Z" fill="white"/>
<path d="M101 13C100.9 13.1 100.75 13.2 100.5 13.25C100.3 13.3 100.1 13.35 99.8997 13.35C99.1997 13.35 98.7997 13.1 98.5997 12.65C98.4997 12.45 98.4497 12.1 98.4497 11.75V9.65002H98.9497V11.75C98.9497 12 98.9497 12.2 98.9997 12.35C99.0997 12.75 99.3997 12.95 99.8497 12.95C100.25 12.95 100.5 12.85 100.65 12.65C100.75 12.5 100.85 12.2 100.85 11.8V9.70004H101.35V12.75L101.8 13.2L101.5 13.5L101 13Z" fill="white"/>
<path d="M105.4 10.05H104.85V11.7C104.85 12.05 104.8 12.3 104.75 12.5C104.55 13.05 104.15 13.3 103.4 13.3C103.1 13.3 102.85 13.25 102.6 13.15C102.35 13 102.15 12.85 102.1 12.6L102.05 12.45L102 12.25C102 12.15 101.95 12 101.95 11.75V9.65002H102.45V11.75C102.45 12.15 102.5 12.45 102.65 12.6C102.8 12.8 103.05 12.9 103.45 12.9C103.9 12.9 104.15 12.75 104.3 12.45C104.35 12.3 104.4 12.05 104.4 11.75V9.65002H105.4V10.05Z" fill="white"/>
<path d="M36.7998 22.2501V18.6001H39.4498V19.0501H37.2998V20.1501H39.2998V20.6001H37.2998V21.8501H39.5498V22.3001L36.7998 22.2501Z" fill="white"/>
<path d="M40.1997 22.2501V18.6001H40.6997L42.5997 21.4501V18.6001H43.0497V22.2501H42.5497L40.6497 19.4001V22.2501H40.1997Z" fill="white"/>
<path d="M44.7996 22.2501V19.0501H43.5996V18.6001H46.4996V19.0501H45.2996V22.2501H44.7996Z" fill="white"/>
<path d="M47 22.2501V18.6001H49.65V19.0501H47.5V20.1501H49.5V20.6001H47.5V21.8501H49.75V22.3001L47 22.2501Z" fill="white"/>
<path d="M50.3999 22.2501V18.6001H51.9999C52.2999 18.6001 52.4999 18.6001 52.6499 18.6501C52.8499 18.7001 52.9999 18.8501 53.1499 19.0001C53.2499 19.1501 53.2999 19.3501 53.2999 19.6001C53.2999 20.1501 52.9499 20.5001 52.2499 20.6001C52.3999 20.6501 52.4999 20.7501 52.5499 20.8001C52.6999 20.9501 52.8499 21.1001 52.9499 21.3001L53.5999 22.3001H52.9999L52.4999 21.5501C52.3999 21.4001 52.2999 21.2501 52.2499 21.1501C52.0499 20.9001 51.8999 20.7501 51.6999 20.7001C51.6499 20.7001 51.5499 20.7001 51.4499 20.7001H50.8999V22.3001L50.3999 22.2501ZM50.8999 20.2001H51.9499C52.3499 20.2001 52.6499 20.1001 52.7499 19.9001C52.7999 19.8001 52.8499 19.7001 52.8499 19.5501C52.8499 19.1501 52.5999 18.9501 52.0499 18.9501H50.8999V20.2001Z" fill="white"/>
<path d="M54.0996 22.2501V18.6001H55.4996C55.7496 18.6001 55.8996 18.6001 56.0496 18.6501C56.3996 18.7001 56.6496 18.9001 56.7996 19.1501C56.8496 19.3001 56.8996 19.4501 56.8996 19.6501C56.8996 20.4001 56.4496 20.7501 55.5496 20.7501H54.5996V22.2501H54.0996ZM54.5496 20.3501H55.4996C56.0496 20.3501 56.3496 20.1501 56.3496 19.7001C56.3496 19.5501 56.2996 19.4501 56.2496 19.3001C56.1496 19.2001 56.0496 19.1001 55.9496 19.0501C55.8496 19.0501 55.6996 19.0001 55.4996 19.0001H54.5496V20.3501Z" fill="white"/>
<path d="M57.5 22.2501V18.6001H59.1C59.4 18.6001 59.6 18.6001 59.75 18.6501C59.95 18.7001 60.1 18.8501 60.25 19.0001C60.35 19.1501 60.4 19.3501 60.4 19.6001C60.4 20.1501 60.05 20.5001 59.35 20.6001C59.5 20.6501 59.6 20.7501 59.65 20.8001C59.8 20.9501 59.95 21.1001 60.05 21.3001L60.7 22.3001H60.1L59.6 21.5501C59.5 21.4001 59.4 21.2501 59.35 21.1501C59.15 20.9001 59 20.7501 58.8 20.7001C58.75 20.7001 58.65 20.7001 58.55 20.7001H58V22.3001L57.5 22.2501ZM57.95 20.2001H59C59.4 20.2001 59.7 20.1001 59.8 19.9001C59.85 19.8001 59.9 19.7001 59.9 19.5501C59.9 19.1501 59.65 18.9501 59.1 18.9501H57.95V20.2001Z" fill="white"/>
<path d="M61.25 22.2501V18.6001H61.75V22.2501H61.25Z" fill="white"/>
<path d="M62.3999 21.1001L62.8499 21.0501C62.8999 21.4001 63.0499 21.6501 63.3499 21.8001C63.4999 21.8501 63.6999 21.9001 63.8999 21.9001C64.2999 21.9001 64.5499 21.8001 64.6999 21.6001C64.7499 21.5001 64.7999 21.4001 64.7999 21.3001C64.7999 21.0501 64.6499 20.9001 64.3499 20.8001C64.2499 20.7501 63.9999 20.7001 63.6499 20.6001C63.3499 20.5501 63.1499 20.4501 62.9999 20.4001C62.6499 20.2001 62.4999 19.9501 62.4999 19.6001C62.4999 19.4001 62.5499 19.2001 62.6499 19.0501C62.7499 18.9001 62.8999 18.8001 63.0999 18.7001C63.2999 18.6001 63.4999 18.6001 63.7499 18.6001C64.2999 18.6001 64.6999 18.7501 64.9499 19.1001C65.0499 19.2501 65.0999 19.4501 65.1499 19.6501L64.6999 19.7001C64.6499 19.2501 64.3499 19.0001 63.7999 19.0001C63.5999 19.0001 63.3999 19.0501 63.2499 19.1001C63.0499 19.2001 62.9499 19.3501 62.9499 19.5501C62.9499 19.7501 63.0499 19.9001 63.2499 20.0001C63.3499 20.0501 63.4999 20.1001 63.7999 20.1501C64.1999 20.2501 64.4499 20.3001 64.5999 20.4001C64.9999 20.6001 65.1999 20.9001 65.1999 21.3001C65.1999 21.5001 65.1499 21.7001 64.9999 21.8501C64.8999 22.0001 64.7499 22.1501 64.5499 22.2501C64.3499 22.3501 64.0999 22.4001 63.8499 22.4001C63.1999 22.4001 62.7499 22.2001 62.4999 21.8001C62.4999 21.5501 62.3999 21.3501 62.3999 21.1001Z" fill="white"/>
<path d="M65.9497 22.2501V18.6001H68.5997V19.0501H66.4497V20.1501H68.4497V20.6001H66.4497V21.8501H68.6997V22.3001L65.9497 22.2501Z" fill="white"/>
<path d="M70.8496 22.2501V18.6001H71.3496V22.2501H70.8496Z" fill="white"/>
<path d="M72.1997 22.2501V18.6001H72.6997L74.5997 21.4501V18.6001H75.0497V22.2501H74.5497L72.6497 19.4001V22.2501H72.1997Z" fill="white"/>
<path d="M78.4497 21.0001L78.9497 21.1001C78.8497 21.5001 78.6997 21.8001 78.3997 22.0001C78.1497 22.2001 77.7997 22.3501 77.3997 22.3501C76.6497 22.3501 76.1497 22.0501 75.8997 21.4001C75.7497 21.1001 75.6997 20.7501 75.6997 20.4001C75.6997 19.6001 75.9997 19.0501 76.5497 18.7501C76.7997 18.6001 77.0997 18.55 77.4497 18.55C77.7997 18.55 78.0997 18.65 78.3497 18.8001C78.5997 19.0001 78.7997 19.2501 78.8497 19.6001L78.3497 19.7001C78.1997 19.2001 77.8497 18.9501 77.3997 18.9501C77.1497 18.9501 76.8997 19.0001 76.6997 19.1501C76.4997 19.3001 76.3497 19.4501 76.2997 19.7001C76.1997 19.9501 76.1997 20.1501 76.1997 20.4001C76.1997 21.0501 76.3997 21.5001 76.7497 21.7501C76.9497 21.8501 77.1497 21.9001 77.3497 21.9001C77.9997 21.9001 78.3497 21.6001 78.4497 21.0001Z" fill="white"/>
<path d="M81.9498 18.6001H82.4498V20.7001C82.4498 21.0501 82.3998 21.3001 82.3498 21.5001C82.1498 22.0501 81.7498 22.3001 80.9998 22.3001C80.2998 22.3001 79.8998 22.0501 79.6998 21.6001C79.5998 21.4001 79.5498 21.0501 79.5498 20.7001V18.6001H80.0498V20.7001C80.0498 20.9501 80.0498 21.1501 80.0998 21.3001C80.1998 21.7001 80.4998 21.9001 80.9498 21.9001C81.3498 21.9001 81.5998 21.8001 81.7498 21.6001C81.8498 21.4501 81.9498 21.1501 81.9498 20.7501V18.6001Z" fill="white"/>
<path d="M83.1997 22.2501V18.6001H84.5497C85.0997 18.6001 85.4497 18.7501 85.5997 19.0501C85.6997 19.2001 85.7497 19.3501 85.7497 19.5501C85.7497 19.9001 85.5997 20.1501 85.2497 20.3001C85.4497 20.3501 85.6497 20.4501 85.7497 20.6001C85.8497 20.7501 85.9497 20.9501 85.9497 21.1501C85.9497 21.5001 85.7997 21.8001 85.5497 21.9501C85.3497 22.1001 84.9997 22.2001 84.5497 22.2001L83.1997 22.2501ZM83.6997 20.1501H84.4997C84.6997 20.1501 84.8497 20.1501 84.9497 20.1001C85.1997 20.0501 85.2997 19.8501 85.2997 19.6001C85.2997 19.3501 85.1997 19.1501 84.9497 19.1001C84.8497 19.0501 84.6497 19.0501 84.3997 19.0501H83.6497L83.6997 20.1501ZM83.6997 21.8501H84.5997C84.7497 21.8501 84.8497 21.8501 84.9497 21.8501C85.2997 21.8001 85.4997 21.6001 85.4997 21.2501C85.4997 20.9501 85.3497 20.7501 85.0997 20.7001C84.9997 20.6501 84.7997 20.6501 84.5497 20.6501H83.6997V21.8501Z" fill="white"/>
<path d="M86.1997 22.2501L87.5997 18.6001H88.0997L89.5997 22.2501H89.0497L88.5997 21.1501H87.0997L86.6997 22.2501H86.1997ZM87.2997 20.7501H88.5497L88.1497 19.7501C88.0497 19.4501 87.9497 19.2001 87.8997 19.0001C87.8497 19.2501 87.7997 19.5001 87.6997 19.7001L87.2997 20.7501Z" fill="white"/>
<path d="M90.5496 22.2501V19.0501H89.3496V18.6001H92.2496V19.0501H91.0496V22.2501H90.5496Z" fill="white"/>
<path d="M92.5 20.5001C92.5 19.9501 92.65 19.4501 92.95 19.1001C93.25 18.7501 93.7 18.55 94.25 18.55C94.6 18.55 94.9 18.65 95.15 18.8001C95.4 18.9501 95.65 19.2001 95.8 19.5001C95.95 19.8001 96 20.1001 96 20.5001C96 20.8501 95.95 21.1501 95.8 21.4501C95.65 21.7501 95.45 22.0001 95.15 22.1501C94.9 22.3001 94.6 22.4001 94.25 22.4001C93.9 22.4001 93.6 22.3001 93.35 22.1501C93.05 22.0001 92.85 21.7501 92.7 21.4501C92.6 21.1001 92.5 20.8001 92.5 20.5001ZM93 20.5001C93 20.9001 93.1 21.2501 93.3 21.5001C93.55 21.8001 93.85 21.9001 94.25 21.9001C94.65 21.9001 95 21.7501 95.2 21.4501C95.4 21.2001 95.5 20.8501 95.5 20.4001C95.5 19.8001 95.3 19.3501 94.9 19.1001C94.7 19.0001 94.5 18.9001 94.25 18.9001C93.8 18.9001 93.5 19.0501 93.3 19.3501C93.1 19.7001 93 20.0501 93 20.5001Z" fill="white"/>
<path d="M96.6499 22.2501V18.6001H98.2499C98.5499 18.6001 98.7499 18.6001 98.8999 18.6501C99.0999 18.7001 99.2499 18.8501 99.3999 19.0001C99.4999 19.1501 99.5499 19.3501 99.5499 19.6001C99.5499 20.1501 99.1999 20.5001 98.4999 20.6001C98.6499 20.6501 98.7499 20.7501 98.7999 20.8001C98.9499 20.9501 99.0999 21.1001 99.1999 21.3001L99.8499 22.3001H99.2499L98.7499 21.5501C98.6499 21.4001 98.5499 21.2501 98.4999 21.1501C98.2999 20.9001 98.1499 20.7501 97.9499 20.7001C97.8999 20.7001 97.7999 20.7001 97.6999 20.7001H97.1499V22.3001L96.6499 22.2501ZM97.0999 20.2001H98.1499C98.5499 20.2001 98.8499 20.1001 98.9499 19.9001C98.9999 19.8001 99.0499 19.7001 99.0499 19.5501C99.0499 19.1501 98.7999 18.9501 98.2499 18.9501H97.0999V20.2001Z" fill="white"/>
<path d="M38.25 28.3501V24.7001H40.7V25.1501H38.7V26.3H40.4V26.7501H38.7V28.4001H38.25V28.3501Z" fill="white"/>
<path d="M41.1997 26.6002C41.1997 26.0502 41.3497 25.5502 41.6497 25.2002C41.9497 24.8502 42.3997 24.6501 42.9497 24.6501C43.2997 24.6501 43.5997 24.7501 43.8497 24.9001C44.0997 25.0501 44.3497 25.3002 44.4997 25.6002C44.6497 25.9002 44.6997 26.2002 44.6997 26.6002C44.6997 26.9502 44.6497 27.2501 44.4997 27.5501C44.3497 27.8501 44.1497 28.1002 43.8497 28.2502C43.5997 28.4002 43.2997 28.5002 42.9497 28.5002C42.5997 28.5002 42.2997 28.4002 42.0497 28.2502C41.7497 28.1002 41.5497 27.8501 41.3997 27.5501C41.2497 27.2001 41.1997 26.9002 41.1997 26.6002ZM41.6997 26.6002C41.6997 27.0002 41.7997 27.3502 41.9997 27.6002C42.2497 27.9002 42.5497 28.0002 42.9497 28.0002C43.3497 28.0002 43.6997 27.8501 43.8997 27.5501C44.0997 27.3001 44.1997 26.9502 44.1997 26.5002C44.1997 25.9002 43.9997 25.4502 43.5997 25.2002C43.3997 25.1002 43.1997 25.0002 42.9497 25.0002C42.4997 25.0002 42.1997 25.1502 41.9997 25.4502C41.7997 25.8002 41.6997 26.1502 41.6997 26.6002Z" fill="white"/>
<path d="M47.6998 24.7001H48.1998V26.8C48.1998 27.15 48.1498 27.4001 48.0998 27.6001C47.8998 28.1501 47.4998 28.4001 46.7498 28.4001C46.0498 28.4001 45.6498 28.1501 45.4498 27.7001C45.3498 27.5001 45.2998 27.15 45.2998 26.8V24.7001H45.7998V26.8C45.7998 27.05 45.7998 27.2501 45.8498 27.4001C45.9498 27.8001 46.2498 28.0001 46.6998 28.0001C47.0998 28.0001 47.3498 27.9001 47.4998 27.7001C47.5998 27.5501 47.6998 27.2501 47.6998 26.8501V24.7001Z" fill="white"/>
<path d="M49 28.3501V24.7001H49.5L51.4 27.5501V24.7001H51.85V28.3501H51.35L49.45 25.5001V28.3501H49Z" fill="white"/>
<path d="M52.6499 28.3501V24.7001H53.8999C54.1999 24.7001 54.3999 24.7001 54.5499 24.7501C54.9999 24.8501 55.3499 25.1501 55.4999 25.6501C55.5999 25.9001 55.6499 26.2001 55.6499 26.5001C55.6499 26.9501 55.5499 27.3001 55.3999 27.6001C55.1999 27.9501 54.8999 28.2001 54.5499 28.3001C54.3999 28.3501 54.1999 28.3501 53.9499 28.3501H52.6499ZM53.1499 27.9501H53.9499C54.3499 27.9501 54.6499 27.8501 54.8499 27.7001C55.0999 27.4501 55.1999 27.0501 55.1999 26.5501C55.1999 25.8501 54.9999 25.4501 54.5499 25.2501C54.3999 25.2001 54.1999 25.2001 53.9499 25.2001H53.1999L53.1499 27.9501Z" fill="white"/>
<path d="M55.9497 28.3501L57.3497 24.7001H57.8497L59.3497 28.3501H58.7997L58.3497 27.2501H56.8497L56.4497 28.3501H55.9497ZM56.9997 26.8501H58.2497L57.8497 25.8501C57.7497 25.5501 57.6497 25.3001 57.5997 25.1001C57.5497 25.3501 57.4997 25.6001 57.3997 25.8001L56.9997 26.8501Z" fill="white"/>
<path d="M60.2996 28.3501V25.1501H59.0996V24.7001H61.9996V25.1501H60.7996V28.3501H60.2996Z" fill="white"/>
<path d="M62.5498 28.3501V24.7001H63.0498V28.3501H62.5498Z" fill="white"/>
<path d="M63.75 26.6002C63.75 26.0502 63.9 25.5502 64.2 25.2002C64.5 24.8502 64.95 24.6501 65.5 24.6501C65.85 24.6501 66.15 24.7501 66.4 24.9001C66.65 25.0501 66.9 25.3002 67.05 25.6002C67.2 25.9002 67.25 26.2002 67.25 26.6002C67.25 26.9502 67.2 27.2501 67.05 27.5501C66.9 27.8501 66.7 28.1002 66.4 28.2502C66.15 28.4002 65.85 28.5002 65.5 28.5002C65.15 28.5002 64.85 28.4002 64.6 28.2502C64.3 28.1002 64.1 27.8501 63.95 27.5501C63.8 27.2001 63.75 26.9002 63.75 26.6002ZM64.25 26.6002C64.25 27.0002 64.35 27.3502 64.55 27.6002C64.8 27.9002 65.1 28.0002 65.5 28.0002C65.9 28.0002 66.25 27.8501 66.45 27.5501C66.65 27.3001 66.75 26.9502 66.75 26.5002C66.75 25.9002 66.55 25.4502 66.15 25.2002C65.95 25.1002 65.75 25.0002 65.5 25.0002C65.05 25.0002 64.75 25.1502 64.55 25.4502C64.35 25.8002 64.25 26.1502 64.25 26.6002Z" fill="white"/>
<path d="M67.8496 28.3501V24.7001H68.3496L70.2496 27.5501V24.7001H70.6996V28.3501H70.1996L68.2996 25.5001V28.3501H67.8496Z" fill="white"/>
<path d="M99.6498 15.65H36.0498V15.95H99.6498V15.65Z" fill="white"/>
<path d="M14.7498 9.00003C14.7498 8.95003 14.7498 8.95002 14.7498 8.90002H14.1998C14.1998 8.90002 14.1998 8.90004 14.1998 8.95004C14.1998 10.35 14.1998 11.7 14.1998 13.1C14.1998 13.35 14.1498 13.4 13.8998 13.4C12.2498 13.4 10.5998 13.4 8.94983 13.4C8.79983 13.4 8.6998 13.4 8.5498 13.4V14.9C8.6498 14.9 8.79981 14.9 8.89981 14.9C10.3498 14.9 11.8498 14.9 13.2998 14.9C13.5998 14.9 13.6498 15 13.6498 15.25C13.6498 16.5 13.6498 17.75 13.6498 19C13.6498 19.25 13.5998 19.35 13.2998 19.35C11.8498 19.35 10.3498 19.35 8.89981 19.35C8.79981 19.35 8.6998 19.35 8.5498 19.35C8.5498 19.9 8.5498 20.45 8.5498 21C8.5498 21.05 8.6998 21.15 8.7998 21.15C9.2998 21.15 9.7998 21.15 10.2998 21.15C11.4998 21.15 12.7498 21.15 13.9498 21.15C14.1998 21.15 14.2998 21.25 14.2998 21.5C14.2998 22.8 14.2998 24.05 14.2998 25.35C14.2998 25.4 14.2998 25.5 14.2998 25.55H14.7498C14.7498 25.5 14.7498 25.4 14.7498 25.35C14.7498 19.9 14.7498 14.45 14.7498 9.00003Z" fill="white"/>
<path d="M33.0496 19.7001C31.5996 19.7001 30.1496 19.7001 28.6996 19.7001C28.5996 19.7001 28.4496 19.7001 28.3496 19.7001V25.5001H33.3496V19.55C33.2996 19.7 33.1996 19.7001 33.0496 19.7001Z" fill="white"/>
<path d="M21.7998 25.5C21.7998 19.95 21.7998 14.45 21.7998 8.90002H21.2998C21.2998 11.2 21.2998 13.45 21.2998 15.75C21.2998 18.9 21.2998 22 21.2998 25.15C21.2998 25.25 21.2998 25.4 21.2998 25.5H21.7998Z" fill="white"/>
<path d="M28.4496 13.4001C28.3996 13.4001 28.3996 13.4001 28.3496 13.4501V15.3001C28.4496 15.3001 28.5996 15.3001 28.6996 15.3001C30.1496 15.3001 31.5496 15.3001 32.9996 15.3001C33.0496 15.3001 33.0996 15.3001 33.1496 15.3001L32.7996 13.3501C31.3496 13.4001 29.8996 13.4001 28.4496 13.4001Z" fill="white"/>
<path d="M33.2996 16.2001V19.6001V25.5001H28.3496H21.7996H21.2996H14.7496H14.2996H4.59961L6.09961 33.1501L35.3996 28.1001L33.2996 16.2001Z" fill="white"/>
<path d="M14.1996 8.90005H14.7496H21.2996H21.7996H32.0496L30.4996 0.200073L0.599609 5.15005L2.1496 12.9501V8.90005H14.1996Z" fill="white"/>
</svg>
