<svg width="103" height="42" viewBox="0 0 103 42" fill="none" xmlns="http://www.w3.org/2000/svg">
<path d="M9.24951 0.550049C9.34951 0.650049 9.4495 0.600067 9.5495 0.600067C10.2995 0.800067 10.9995 1.20007 11.5995 1.70007C12.6495 2.65007 13.4495 3.80007 14.0495 5.10007C14.7995 6.60007 15.2995 8.15006 15.6995 9.80006C15.8995 10.5501 16.0495 11.3001 16.1495 12.0501C16.2495 12.5501 16.2995 13.0501 16.3495 13.6001C16.4495 14.1001 16.4495 14.6501 16.4995 15.1501C16.5495 15.6001 16.5495 16.0501 16.5495 16.5001C16.5495 17.1501 16.5495 17.7501 16.5495 18.4001C15.6495 18.4501 14.7995 18.3001 13.8995 18.3501C13.8495 18.2501 13.8495 18.2001 13.8495 18.1001C13.8495 17.2501 13.7995 16.4501 13.6995 15.6001C13.4995 13.8501 13.1995 12.2001 12.5495 10.5501C12.1995 9.65006 11.7995 8.80006 11.1995 8.05006C10.7995 7.55005 10.3995 7.15007 9.84952 6.85007C8.89952 6.35007 7.94952 6.45007 7.09952 7.10007C6.29952 7.70007 5.7495 8.45007 5.2995 9.35007C4.6995 10.5501 4.29951 11.8001 3.99951 13.1001C3.84951 13.7501 3.74951 14.4001 3.64951 15.0501C3.59951 15.6501 3.49951 16.3001 3.49951 16.9001C3.49951 17.3501 3.44952 17.8501 3.44952 18.3001C3.24952 18.3501 1.1995 18.4501 0.7995 18.4001C0.7495 18.3501 0.749512 18.2501 0.749512 18.1501C0.749512 17.5501 0.749512 16.9501 0.749512 16.4001C0.799512 15.7001 0.849506 15.0501 0.899506 14.3501C0.949506 13.9001 0.9995 13.4001 1.0495 12.9501C1.1495 12.3501 1.24952 11.7001 1.34952 11.1001C1.59952 9.80007 1.94952 8.55006 2.34952 7.30005C2.84952 5.90005 3.44952 4.50005 4.34952 3.30005C4.89952 2.50005 5.59951 1.80006 6.39951 1.25006C6.84951 0.950061 7.34952 0.700055 7.94952 0.650055C7.99952 0.650055 7.99951 0.650067 7.99951 0.600067C8.54951 0.550067 8.89951 0.550049 9.24951 0.550049Z" fill="white"/>
<path d="M102.75 28.3001C102.6 28.4501 102.55 28.6501 102.4 28.7501C101.8 29.2501 100.6 29.1501 100.25 28.3501C100.2 28.2001 100.15 28.1001 100.15 27.9501C100.15 27.5001 100.15 27.0501 100.15 26.6001C100.15 26.5001 100.15 26.4001 100.15 26.3001C99.9497 26.2501 99.6997 26.3001 99.4997 26.2501C99.4497 26.0501 99.4997 25.8 99.4497 25.55C99.7497 25.55 99.9997 25.55 100.25 25.55C100.5 25.55 100.75 25.55 101 25.55C101.05 25.65 101.05 25.75 101.05 25.8C101.05 26.4501 101.05 27.0501 101.05 27.7001C101.05 27.8001 101.05 27.9001 101.1 28.0001C101.2 28.3501 101.4 28.4001 101.75 28.2501C101.95 27.9001 101.85 27.5501 101.9 27.1501C102.2 27.1501 102.5 27.1501 102.8 27.1501C102.75 27.5501 102.75 27.9001 102.75 28.3001Z" fill="white"/>
<path d="M11.6999 12.95C11.6499 14.1 11.1499 14.95 10.1499 15.55C9.59987 15.9 8.94987 16.05 8.29987 15.95C7.44986 15.85 6.69987 15.5 6.14987 14.8C5.59987 14.15 5.39987 13.35 5.49987 12.5C5.59987 11.85 5.84986 11.25 6.29986 10.8C6.74986 10.35 7.29989 10 7.94989 9.90002C8.59989 9.75002 9.24987 9.80003 9.89988 10.1C10.7499 10.5 11.3499 11.2 11.5999 12.1C11.6999 12.4 11.7499 12.7 11.6999 12.95Z" fill="white"/>
<path d="M20.5995 36.1501C19.1495 36.1501 17.9995 35 17.9995 33.55C17.9995 32.05 19.1995 30.9001 20.6495 30.9501C22.0495 30.9501 23.1995 32.05 23.1995 33.55C23.1995 35.15 21.8995 36.2001 20.5995 36.1501Z" fill="white"/>
<path d="M28.7997 10.3501C28.8497 11.7501 27.5997 13.0001 26.1497 12.9501C24.6997 12.9001 23.5497 11.7501 23.5997 10.3001C23.5997 8.85005 24.7997 7.70007 26.1997 7.70007C27.6997 7.70007 28.8497 8.95007 28.7997 10.3501Z" fill="white"/>
<path d="M20.8496 7.75C22.2996 7.75 23.4996 8.94999 23.4496 10.4C23.3996 11.9 22.3496 12.95 20.8496 13C19.2996 13 18.2496 11.9 18.2496 10.4C18.1996 8.94999 19.3496 7.75 20.8496 7.75Z" fill="white"/>
<path d="M28.5999 28C28.5999 29.45 27.4499 30.65 25.9999 30.65C24.6499 30.65 23.3999 29.55 23.3999 28C23.3999 26.55 24.5999 25.4 25.9999 25.4C27.4499 25.4 28.5999 26.6 28.5999 28Z" fill="white"/>
<path d="M23.0996 28.1C23.0496 29.6 21.9496 30.7 20.4496 30.7C18.9996 30.7 17.8496 29.55 17.8496 28.1C17.8496 26.55 19.0996 25.5 20.4496 25.5C21.8496 25.5 23.0496 26.6 23.0996 28.1Z" fill="white"/>
<path d="M28.7996 15.7501C28.8496 17.1501 27.6496 18.3501 26.1496 18.3501C24.6996 18.3501 23.5996 17.1501 23.5996 15.7001C23.5996 14.2501 24.8496 13.1001 26.1996 13.1001C27.7496 13.1501 28.8496 14.4001 28.7996 15.7501Z" fill="white"/>
<path d="M34.1999 28.1501C34.2999 29.6001 32.9998 30.8001 31.5498 30.7501C30.1998 30.7001 28.9998 29.5501 29.0498 28.1501C29.0998 26.6001 30.2499 25.5501 31.6498 25.5501C33.0498 25.5001 34.2999 26.7001 34.1999 28.1501Z" fill="white"/>
<path d="M3.24991 25C1.79991 25.05 0.649902 23.8 0.649902 22.4C0.649902 21.05 1.74991 19.8 3.24991 19.75C4.74991 19.75 5.84991 21 5.84991 22.35C5.84991 23.9 4.54991 25.05 3.24991 25Z" fill="white"/>
<path d="M11.1995 22.4C11.2495 23.9 9.89949 25.05 8.54949 25C7.19949 24.95 5.9495 23.75 5.9995 22.3C6.0495 20.95 7.09951 19.75 8.59951 19.75C10.1995 19.8 11.2495 21.15 11.1995 22.4Z" fill="white"/>
<path d="M34.0496 33.6C34.0496 35.1 32.7996 36.2 31.4496 36.2C29.9996 36.2 28.8496 35.05 28.8496 33.6C28.8496 32.15 30.0496 30.95 31.4496 31C32.8996 31 34.0496 32.2 34.0496 33.6Z" fill="white"/>
<path d="M31.4999 7.45006C29.9999 7.45006 28.9499 6.25006 28.8999 4.85006C28.8999 3.35006 29.9999 2.20007 31.4999 2.20007C32.9999 2.20007 34.0999 3.25005 34.0999 4.80004C34.1499 6.30004 32.9499 7.50006 31.4999 7.45006Z" fill="white"/>
<path d="M11.4996 22.4501C11.4496 21.0501 12.6496 19.8501 14.0996 19.8501C15.6496 19.8501 16.6996 21.1001 16.6996 22.5001C16.6996 23.9501 15.4996 25.1001 14.0996 25.1001C12.5996 25.1001 11.4496 23.8001 11.4996 22.4501Z" fill="white"/>
<path d="M20.7999 7.45008C19.4999 7.55008 18.1499 6.30008 18.2499 4.70007C18.2999 3.50007 19.3999 2.20006 20.9999 2.25006C22.2499 2.30006 23.5499 3.45006 23.4499 5.00006C23.3499 6.25007 22.2499 7.55008 20.7999 7.45008Z" fill="white"/>
<path d="M34.0999 22.55C34.1499 24 32.7999 25.1501 31.4999 25.1501C30.0999 25.1501 28.8999 23.9001 28.8999 22.5001C28.9499 21.0501 30.1999 19.9501 31.5499 19.9501C32.8999 19.9501 34.1499 21.2 34.0999 22.55Z" fill="white"/>
<path d="M6.09971 33.25C6.04971 31.7 7.3997 30.65 8.6497 30.65C10.0997 30.65 11.2997 31.8 11.2997 33.25C11.2997 34.7 10.1497 35.9 8.69971 35.9C7.19972 35.85 6.04971 34.65 6.09971 33.25Z" fill="white"/>
<path d="M26.0497 19.9001C27.4497 19.8501 28.6497 21.1001 28.6497 22.5501C28.6497 23.8001 27.6497 25.1001 26.0497 25.1501C24.4497 25.1501 23.4497 23.7501 23.4497 22.5001C23.4497 21.0501 24.6997 19.8501 26.0497 19.9001Z" fill="white"/>
<path d="M3.09969 30.4001C1.79969 30.5001 0.449669 29.2501 0.549669 27.6501C0.649669 26.3 1.84969 25.1501 3.19969 25.2001C4.54969 25.2001 5.79968 26.4 5.74968 27.9001C5.69968 29.3001 4.49969 30.4501 3.09969 30.4001Z" fill="white"/>
<path d="M8.54969 30.4001C7.14969 30.4501 5.94971 29.1501 5.94971 27.8001C5.94971 26.3001 7.24969 25.2001 8.54969 25.2001C9.94969 25.2001 11.1997 26.4001 11.1497 27.9001C11.0997 29.3501 9.79969 30.4501 8.54969 30.4001Z" fill="white"/>
<path d="M16.8497 33.4001C16.9497 34.8501 15.5997 36.0501 14.2497 36.0001C12.7497 35.9501 11.6997 34.8501 11.6997 33.3501C11.6997 31.8501 12.9497 30.7001 14.3997 30.7501C15.6997 30.8001 16.8997 32.0001 16.8497 33.4001Z" fill="white"/>
<path d="M0.649888 33.2501C0.599888 31.8001 1.84988 30.6001 3.29987 30.6501C4.64987 30.7001 5.84988 31.8001 5.84988 33.3001C5.84988 34.8001 4.69988 35.9001 3.24989 35.9001C1.84989 35.8501 0.599888 34.6501 0.649888 33.2501Z" fill="white"/>
<path d="M14.0995 30.5001C12.6995 30.5501 11.4995 29.3001 11.4995 27.9001C11.4995 26.4501 12.7495 25.2501 14.1495 25.3001C15.5495 25.3501 16.6995 26.4501 16.6995 27.9001C16.7495 29.3501 15.4995 30.6001 14.0995 30.5001Z" fill="white"/>
<path d="M20.5497 19.9C21.9497 19.9 23.1497 21.1 23.1497 22.5C23.1497 23.9 22.0497 25.1 20.5497 25.1C18.9997 25.1 17.9497 23.8 17.9497 22.45C17.9497 21 19.2497 19.85 20.5497 19.9Z" fill="white"/>
<path d="M34.1497 15.9C34.1997 16.6 33.8997 17.2001 33.4497 17.7001C32.9497 18.2501 32.2997 18.55 31.5497 18.5C30.0497 18.45 28.9997 17.35 28.9497 15.85C28.9497 14.4501 30.1997 13.15 31.7497 13.25C32.9497 13.3 34.2497 14.45 34.1497 15.9Z" fill="white"/>
<path d="M26.0998 7.45006C24.7498 7.50006 23.4998 6.30004 23.5498 4.80004C23.5498 3.25005 24.8498 2.20007 26.1998 2.20007C27.5498 2.25007 28.7498 3.30005 28.7498 4.80004C28.7498 6.45004 27.3998 7.55006 26.0998 7.45006Z" fill="white"/>
<path d="M26.0497 36.15C24.6497 36.2 23.4497 34.95 23.4497 33.55C23.4497 32.05 24.6997 30.95 26.0497 30.9C27.4497 30.9 28.6497 32.05 28.6997 33.5C28.6497 35 27.3997 36.15 26.0497 36.15Z" fill="white"/>
<path d="M20.8495 18.45C19.4495 18.55 18.2495 17.2 18.2495 15.85C18.2495 14.4 19.4995 13.25 20.8495 13.25C22.2995 13.25 23.4495 14.45 23.4495 15.85C23.4495 17.25 22.3495 18.5 20.8495 18.45Z" fill="white"/>
<path d="M34.1495 10.4C34.2495 11.75 32.9495 13.05 31.5995 13C30.1495 13 28.9995 11.75 28.9995 10.4C28.9995 8.95 30.1995 7.8 31.5995 7.75C32.8495 7.8 34.2495 9 34.1495 10.4Z" fill="white"/>
<path d="M40.2996 6.65008C40.2496 6.20008 40.2996 3.35005 40.2996 3.05005C40.3996 3.05005 40.5496 3.05005 40.6996 3.05005C41.2496 3.05005 41.7496 3.05007 42.2996 3.10007C42.7996 3.15007 43.1496 3.50008 43.1996 3.95008C43.2996 4.45008 42.9996 4.90008 42.5996 5.00008C42.4996 5.05008 42.4496 5.05007 42.2996 5.05007C42.8996 5.45007 43.0996 6.05009 43.4996 6.6001C43.4996 5.40009 43.4996 4.25006 43.4996 3.05005C43.8996 3.05005 44.2496 3.05005 44.5996 3.05005C44.7996 3.80006 44.9996 4.55007 45.2496 5.40007C45.4496 4.60007 45.6496 3.85006 45.8496 3.05005C46.1996 3.05005 46.5496 3.05005 46.9496 3.05005C46.9496 4.25006 46.9496 5.40007 46.9496 6.65008C46.7996 6.65008 46.6996 6.65008 46.5496 6.65008C46.4496 6.65008 46.3496 6.6501 46.2496 6.6001C46.2496 5.85009 46.2496 5.05007 46.2496 4.30006H46.1996C45.9996 5.10007 45.7996 5.85008 45.5996 6.65008C45.3496 6.65008 45.1496 6.65008 44.8496 6.65008C44.6496 5.85008 44.4496 5.05008 44.2496 4.25007C44.2496 4.25007 44.2496 4.25007 44.1996 4.25007C44.1996 5.05008 44.1996 5.85008 44.1996 6.65008C43.6496 6.65008 43.1496 6.65008 42.5496 6.65008C42.4996 6.65008 42.4496 6.55009 42.3996 6.50009C42.1496 6.20009 41.9496 5.85007 41.7496 5.55007C41.5496 5.25007 41.2996 5.20008 40.9496 5.25008C40.9496 5.75008 40.9496 6.2001 40.9496 6.7001C40.7996 6.6501 40.5496 6.65008 40.2996 6.65008ZM41.0496 4.60008C41.3996 4.60008 41.6996 4.60008 41.9996 4.60008C42.0496 4.60008 42.0996 4.55006 42.1496 4.55006C42.2996 4.50006 42.3996 4.40008 42.3996 4.20008C42.3996 3.95008 42.2496 3.75007 41.9996 3.75007C41.6996 3.75007 41.3496 3.75007 41.0496 3.75007C41.0496 4.05007 41.0496 4.30008 41.0496 4.60008Z" fill="white"/>
<path d="M72.3498 26.7C72.3498 26.6 72.3998 26.55 72.3498 26.45C72.0498 26.15 71.7498 26.2 71.6498 26.55C71.3998 26.55 71.0998 26.55 70.8498 26.55C70.7998 26.1 71.0498 25.85 71.3998 25.65C71.7998 25.45 72.2998 25.45 72.6998 25.65C72.9498 25.75 73.1498 25.95 73.2498 26.2C73.3998 26.4 73.3498 26.65 73.2498 26.9C73.1498 27 73.0498 27.1 72.9498 27.25C72.9998 27.3 73.0498 27.3 73.0998 27.35C73.5998 27.6 73.6998 28.2 73.3498 28.65C73.1498 28.9 72.8998 29.05 72.5998 29.15C72.2498 29.25 71.8998 29.25 71.5498 29.15C70.9998 29 70.6498 28.7 70.4998 28.15C70.4998 28.1 70.4998 28.05 70.4998 28C70.7998 28 71.0498 28 71.3998 28C71.3998 28.2 71.4998 28.35 71.6998 28.4C71.9998 28.45 72.2498 28.5 72.4998 28.35C72.6998 28.25 72.6998 28.05 72.5498 27.75C72.3498 27.65 72.1498 27.6 71.9498 27.6C71.5498 27.6 71.1998 27.55 70.7998 27.6C70.6498 27.6 70.4998 27.6 70.3998 27.6C70.3498 27.7 70.3498 27.85 70.3498 27.95C70.3998 28.45 70.0498 28.9 69.4998 29.1C68.7498 29.35 68.0498 28.65 67.9998 28.1C67.9998 27.9 67.9998 27.7 68.0998 27.45C68.2998 27 68.5998 26.8 69.0498 26.8C69.1498 26.8 69.2498 26.8 69.3998 26.8C69.1998 26.2 68.5998 26.1 67.8998 26.45C67.8498 26.5 67.8498 26.55 67.7998 26.6C67.7498 26.65 67.7498 26.7 67.6998 26.75C67.6998 27.45 67.6998 28.2 67.6998 29C67.3998 29 67.0998 29 66.8498 29C66.7998 28.95 66.7998 28.9 66.7998 28.85C66.7998 28.2 66.7998 27.55 66.7998 26.85C66.7998 26.35 66.9998 26 67.4498 25.8C68.2498 25.35 69.0498 25.35 69.8498 25.85C70.0998 26 70.2998 26.25 70.3498 26.55C70.3498 26.6 70.3998 26.65 70.3998 26.75C70.5498 26.8 70.7498 26.75 70.8998 26.75C71.2998 26.75 71.6498 26.75 72.0498 26.75C72.1498 26.8 72.2498 26.8 72.3498 26.7ZM69.1498 28.3C69.4498 28.15 69.4998 28 69.3998 27.55C69.0998 27.55 68.9998 27.6 68.9498 27.75C68.8998 28 68.9498 28.2 69.1498 28.3Z" fill="white"/>
<path d="M49.5495 29.45C49.5495 29.35 49.5495 29.25 49.5495 29.15C49.4495 29.15 49.3995 29.3 49.2995 29.3C49.1495 29.2 48.9495 29.05 48.7995 28.95C48.4495 29.1 48.0995 29.15 47.6995 29.05C47.1995 28.9 46.7495 28.45 46.7495 27.85C46.7495 27.1 46.7495 26.35 46.7495 25.6C47.0495 25.6 47.3495 25.6 47.5995 25.6C47.6995 25.7 47.6495 25.75 47.6495 25.85C47.6495 26.45 47.6495 27.05 47.6495 27.7C47.6495 27.8 47.6495 27.9 47.6495 27.95C47.6995 28.2 47.7995 28.35 48.0495 28.4C48.2995 28.4 48.3995 28.25 48.4495 28.05C48.4995 27.95 48.4995 27.8 48.4995 27.7C48.4995 27.1 48.4995 26.55 48.4995 25.95C48.4995 25.85 48.4995 25.75 48.4995 25.65C48.7995 25.6 49.0995 25.65 49.3995 25.6C49.4495 25.95 49.4495 27.9 49.3995 28.2C49.3995 28.25 49.4495 28.3 49.5495 28.3C49.6495 28.25 49.5495 28.15 49.6495 28.05C49.9495 28.05 50.1995 28.05 50.4995 28.05C50.5495 28.15 50.4995 28.25 50.5995 28.35C50.8995 28.4 51.1495 28.2 51.3495 28C51.0995 28 50.8495 27.95 50.5995 27.85C50.0995 27.65 49.8995 27.2 49.9495 26.65C50.0495 25.9 50.5495 25.5 51.2995 25.5C52.0495 25.5 52.5995 25.95 52.6995 26.4C52.8495 27 52.7495 27.55 52.2995 28C52.1995 28.1 52.0995 28.25 51.9995 28.35C52.2995 28.3 52.5995 28.4 52.7995 28.7C52.9495 28.9 52.9995 29.15 52.9495 29.45C52.6495 29.45 52.3495 29.45 52.0495 29.45C51.9995 29.35 52.0495 29.25 51.9995 29.15C51.9495 29.05 51.7995 29 51.6495 29C51.2995 29 50.8995 29 50.5495 29C50.4995 29.15 50.5495 29.3 50.4995 29.45C50.1495 29.5 49.8495 29.45 49.5495 29.45ZM51.0495 27.35C51.5495 27.45 51.7495 27.25 51.7495 26.8C51.7495 26.4 51.5495 26.25 51.0495 26.25C50.6995 26.55 50.6995 27.05 51.0495 27.35Z" fill="white"/>
<path d="M61.8996 26.7001C61.7996 26.8501 61.6996 26.9501 61.5496 27.1001C61.6496 27.2001 61.7496 27.2501 61.8496 27.3501C62.1996 27.6501 62.1996 28.2501 61.8496 28.6001C61.4496 29.0501 60.8996 29.1501 60.2996 29.1001C59.9496 29.0501 59.5996 28.9501 59.3496 28.6501C59.2496 28.5501 59.1496 28.4001 59.0996 28.2501C58.9996 28.5001 58.8996 28.7001 58.6996 28.8501C58.0996 29.3501 57.0996 29.2001 56.6496 28.6001C56.4996 28.4001 56.4496 28.2001 56.4496 27.9501C56.4496 27.5001 56.4496 27.1001 56.4496 26.6501C56.4496 26.5501 56.4496 26.4501 56.3996 26.3501C56.1996 26.3501 55.9996 26.3501 55.7996 26.3501C55.7496 26.1001 55.7996 25.9001 55.7996 25.6501C56.0496 25.6001 56.3496 25.6501 56.5996 25.6501C56.8496 25.6501 57.0996 25.6501 57.3496 25.6501C57.3996 25.7501 57.3996 25.8501 57.3996 25.9001C57.3996 26.5001 57.3996 27.1501 57.3996 27.7501C57.3996 27.9501 57.4496 28.1501 57.5496 28.3001C57.7496 28.4501 57.8996 28.4501 58.0996 28.3001C58.2996 28.0001 58.1996 27.6001 58.2496 27.2001C58.5496 27.2001 58.8496 27.2001 59.0996 27.2001C59.1996 27.0501 59.0996 26.9501 59.1996 26.8501C59.3496 26.8501 59.4496 26.8501 59.6496 26.8501C59.4996 26.6501 59.3996 26.4501 59.4996 26.2001C59.5996 25.9501 59.7996 25.7501 60.0496 25.6501C60.3996 25.5001 60.7496 25.5001 61.0996 25.6001C61.3996 25.7001 61.5996 25.9001 61.7996 26.1001C61.9496 26.3001 61.8996 26.5001 61.8996 26.7001ZM59.1496 27.9001C59.4496 27.9001 59.6996 27.9001 59.9496 27.9001C59.9996 28.0001 59.9496 28.1001 60.0996 28.2501C60.3496 28.4001 60.6996 28.4501 61.0496 28.2501C61.1996 28.2001 61.2496 28.0501 61.2496 27.9001C61.1996 27.8001 61.1996 27.7001 61.1496 27.6001C60.4996 27.4001 59.7996 27.5001 59.1496 27.5001C59.0996 27.6501 59.1496 27.7501 59.1496 27.9001ZM60.2496 26.5001C60.3496 26.8001 60.3996 26.8001 60.8496 26.7501C61.0496 26.5501 61.0496 26.4501 60.7996 26.2001C60.6496 26.2001 60.4996 26.1501 60.3496 26.2501C60.2996 26.3501 60.2496 26.4501 60.2496 26.5001Z" fill="white"/>
<path d="M48.6495 8.80008C48.6495 9.05008 48.6495 9.30008 48.6495 9.55008C49.2495 9.55008 49.7995 9.55008 50.3995 9.55008C50.3995 9.80008 50.3995 10.0001 50.3995 10.2001C49.7995 10.2001 49.2495 10.2001 48.6495 10.2001C48.6495 10.5001 48.6495 10.8001 48.6495 11.1001C49.2995 11.1001 49.9495 11.1001 50.5495 11.1001C50.5995 11.2501 50.5495 11.4001 50.5995 11.5501C50.9995 10.9501 51.3495 10.4001 51.6995 9.8501C51.3495 9.3001 50.9995 8.75009 50.5995 8.15009C50.8995 8.10009 51.1495 8.1501 51.4495 8.1001C51.6995 8.4501 51.8995 8.85011 52.1495 9.20011C52.3995 8.85011 52.5995 8.5001 52.7995 8.1001C53.0995 8.0501 53.3495 8.1001 53.6495 8.1001C53.2995 8.7001 52.8995 9.2501 52.5495 9.8501C52.9495 10.4501 53.3495 11.0501 53.7495 11.6501C53.4495 11.6501 53.1495 11.6501 52.8495 11.6501C52.5995 11.2501 52.3495 10.9001 52.0995 10.4501C51.8495 10.8501 51.5995 11.2501 51.2995 11.6501C50.0995 11.6501 48.9495 11.6501 47.7495 11.6501C47.7495 10.4501 47.7495 9.30009 47.7495 8.15009C47.7495 8.15009 47.7495 8.1001 47.7995 8.1001C47.7995 8.1001 47.7995 8.1001 47.8495 8.1001C48.6995 8.1001 49.5495 8.1001 50.3995 8.1001C50.4995 8.3001 50.3995 8.50011 50.4495 8.70011C49.8995 8.80011 49.2995 8.80008 48.6495 8.80008Z" fill="white"/>
<path d="M88.0495 26.3C87.8495 26.3 87.6495 26.3 87.4495 26.3C87.4495 26.5 87.4495 26.6501 87.4495 26.8501C86.8495 26.8501 86.2495 26.8501 85.6495 26.8501C85.5495 27.2501 85.5995 27.9001 85.6995 28.2001C85.8995 28.3501 86.0995 28.3501 86.2995 28.2001C86.4995 27.9501 86.3495 27.6501 86.4495 27.3501C86.7495 27.3501 87.0495 27.3501 87.3995 27.3501C87.3995 27.8501 87.3995 28.3501 86.9995 28.7001C86.3995 29.2501 85.1995 29.1 84.8495 28.3C84.7995 28.2 84.7495 28.0501 84.7495 27.9501C84.7495 27.1501 84.7495 26.4001 84.7495 25.6001C84.7495 25.6001 84.7495 25.55 84.7995 25.55C85.0995 25.55 85.3495 25.55 85.6995 25.55C85.6995 25.75 85.6995 25.9001 85.6995 26.1001C86.2995 26.1001 86.8995 26.1001 87.4995 26.1001C87.4995 25.9001 87.4995 25.75 87.4995 25.55C87.7495 25.5 88.6995 25.45 89.0995 25.55C89.0995 26 89.0995 26.4501 89.0995 26.9001C89.0995 27.3501 89.0495 27.7501 89.1995 28.2001C89.2495 28.2501 89.2995 28.3 89.3495 28.3C89.5495 28.4 89.7495 28.3501 89.7995 28.1501C89.8495 28.0001 89.8995 27.9001 89.8995 27.7501C89.8995 27.6501 89.8995 27.5501 89.8995 27.5001C89.8995 27.4001 89.8995 27.3001 89.8995 27.2001C90.1995 27.1501 90.4995 27.2001 90.7995 27.2001C90.7995 27.5501 90.8495 27.8501 90.7995 28.2001C90.6995 28.7501 90.2495 29.1001 89.6495 29.1501C89.1495 29.2001 88.7495 29.0501 88.3995 28.6501C88.1995 28.4001 88.1495 28.1501 88.1495 27.8501C88.0495 27.3001 88.0495 26.85 88.0495 26.3Z" fill="white"/>
<path d="M57.0995 23.6C56.8995 23.6 56.6995 23.6 56.4995 23.6C56.4995 23.8 56.4995 23.95 56.4995 24.15C56.1995 24.15 55.8995 24.15 55.5995 24.15C55.5495 24.1 55.5495 24 55.5495 23.95C55.5495 23.35 55.5495 22.75 55.5495 22.2C55.5495 22.05 55.5495 21.9 55.4995 21.7C55.4495 21.5 55.3495 21.4 55.1995 21.4C54.9995 21.4 54.8495 21.5 54.7995 21.65C54.7495 21.75 54.7495 21.9 54.7495 22C54.7495 22.3 54.7495 22.55 54.7495 22.85C54.4495 22.85 54.1495 22.85 53.8495 22.85C53.7995 23 53.7995 23.15 53.7995 23.3C53.6495 23.95 53.1995 24.15 52.7495 24.2C52.3995 24.25 52.0495 24.2 51.6995 24C51.3495 23.75 51.1495 23.45 51.1495 23.05C51.1495 22.6 51.1495 22.1 51.1495 21.65C51.1495 21.6 51.1495 21.55 51.1495 21.45C50.9495 21.45 50.6995 21.45 50.4995 21.45C50.4995 21.2 50.4995 20.95 50.4995 20.7C50.9995 20.7 51.4995 20.7 52.0495 20.7C52.0995 20.75 52.0995 20.85 52.0995 20.95C52.0995 21.55 52.0995 22.15 52.0995 22.75C52.0995 22.85 52.0995 22.95 52.1495 23.1C52.2495 23.45 52.2995 23.5 52.6995 23.5C53.0995 23.2 52.8995 22.75 52.9995 22.3C53.2995 22.3 53.5995 22.3 53.8995 22.3C53.8995 22.15 53.8995 22 53.8995 21.85C53.8995 21.3 54.2995 20.9 54.7495 20.7C54.9995 20.6 55.2995 20.6 55.5995 20.65C56.0995 20.75 56.5995 21.2 56.5995 21.85C56.5995 22.15 56.5995 22.45 56.5995 22.8C56.7995 22.8 56.9995 22.8 57.1995 22.8C57.0995 23.15 57.0995 23.35 57.0995 23.6Z" fill="white"/>
<path d="M75.0998 6.65009C74.7998 6.70009 74.4998 6.65009 74.1998 6.65009C74.0998 6.40009 73.9998 6.1001 73.8998 5.8501C73.4498 5.8501 72.9998 5.8501 72.5498 5.8501C72.3998 6.1001 72.3498 6.40009 72.1998 6.65009C71.6998 6.65009 71.1998 6.65009 70.6998 6.65009C70.5998 6.45009 70.6498 3.5501 70.6998 3.1001C70.9498 3.1001 71.1498 3.1001 71.4498 3.1001C71.4498 3.4501 71.4498 3.85009 71.4498 4.25009C71.4498 4.65009 71.4498 5.00009 71.4498 5.40009C71.4498 5.80009 71.4498 6.15008 71.4498 6.55008C71.4498 6.55008 71.4498 6.55008 71.4998 6.55008C71.9498 5.40008 72.3998 4.25009 72.8498 3.15009C73.0998 3.15009 73.3498 3.10009 73.6498 3.15009C74.0998 4.30009 74.5998 5.5001 75.0498 6.7001C75.0998 6.6001 75.0998 6.5001 75.0998 6.4501C75.0998 5.4501 75.0998 4.50009 75.0998 3.50009C75.0998 3.40009 75.0498 3.3001 75.1498 3.2001C75.0998 4.3001 75.0998 5.50009 75.0998 6.65009ZM73.2498 4.05008C73.0998 4.45008 72.8998 4.8001 72.7998 5.2001C73.0998 5.2001 73.3998 5.2501 73.6498 5.2001C73.4998 4.8001 73.3498 4.45008 73.2498 4.05008Z" fill="white"/>
<path d="M57.7495 6.65002C57.4995 6.70002 57.2495 6.65004 56.9995 6.70004C56.8995 6.45004 56.7995 6.15003 56.6995 5.90003C56.2495 5.90003 55.7995 5.90003 55.3495 5.90003C55.1995 6.15003 55.1495 6.45004 54.9995 6.70004C54.4995 6.70004 53.9995 6.70004 53.4995 6.70004C53.4995 5.50004 53.4995 4.35003 53.4995 3.15003C53.7495 3.15003 53.9495 3.15003 54.2495 3.15003C54.2495 4.30003 54.2495 5.45002 54.2495 6.55002H54.2995C54.7495 5.40002 55.1995 4.30003 55.6495 3.15003C55.8995 3.10003 56.1495 3.15003 56.4495 3.15003C56.6495 3.60003 56.7995 4.05003 56.9995 4.50003C57.2495 5.20003 57.5495 5.85002 57.7995 6.55002C57.6995 6.50002 57.7495 6.55002 57.7495 6.65002C57.7495 6.60002 57.7495 6.65002 57.7495 6.65002ZM56.3995 5.25003C56.2495 4.85003 56.0995 4.45002 55.9495 4.05002C55.7995 4.50002 55.6495 4.85003 55.5495 5.25003C55.8495 5.25003 56.0995 5.25003 56.3995 5.25003Z" fill="white"/>
<path d="M55.6497 25.6001C55.6997 25.9001 55.6997 27.8001 55.5997 28.2501C55.7497 28.3501 55.8997 28.4501 56.0997 28.6001C55.9497 28.8501 55.7997 29.1001 55.5997 29.3001C55.3997 29.2001 55.2497 29.0501 54.9997 28.9501C54.6497 29.1001 54.2997 29.1501 53.8997 29.0501C53.4497 28.9501 53.0498 28.5501 52.9998 28.0001C52.9498 27.2501 52.9998 26.4501 52.9998 25.7001C52.9998 25.7001 52.9997 25.6501 53.0497 25.6001C53.3497 25.5501 53.6498 25.6001 53.9498 25.6001C53.9998 25.7001 53.9997 25.8001 53.9997 25.9001C53.9997 26.5501 53.9997 27.2001 53.9997 27.8501C53.9997 28.1501 54.0997 28.2501 54.3997 28.3501C54.6997 28.2501 54.7997 28.1501 54.7997 27.8501C54.7997 27.2001 54.7997 26.5501 54.7997 25.9501C54.7997 25.8501 54.7997 25.7501 54.7997 25.6501C55.0497 25.6001 55.3497 25.6001 55.6497 25.6001Z" fill="white"/>
<path d="M66.4496 3.1001C66.6996 3.1001 66.9496 3.1001 67.1496 3.1001C67.1496 4.3001 67.1496 5.45009 67.1496 6.65009C66.8996 6.65009 66.6496 6.65009 66.3996 6.65009C65.9496 5.95009 65.4996 5.25008 65.0996 4.55008C65.0496 4.75008 65.0496 4.90008 65.0496 5.05008C65.0496 5.20008 65.0496 5.40008 65.0496 5.55008C65.0496 5.75008 65.0496 5.9001 65.0496 6.1001C65.0496 6.2501 65.0496 6.45009 65.0496 6.65009C64.7996 6.65009 64.5996 6.65009 64.3496 6.65009C64.3496 5.50009 64.3496 4.3001 64.3496 3.1001C64.5496 3.1001 64.7996 3.1001 65.0496 3.1001C65.4996 3.8501 65.9496 4.55009 66.4496 5.40009C66.4496 4.60009 66.4496 3.8501 66.4496 3.1001Z" fill="white"/>
<path d="M50.9999 3.10003C51.4499 3.85003 51.8999 4.60003 52.3999 5.35003H52.4499C52.4499 4.60003 52.4499 3.90002 52.4499 3.15002C52.6999 3.10002 52.8999 3.15002 53.1499 3.15002C53.1999 3.35002 53.2499 6.15004 53.1999 6.70004C52.9499 6.70004 52.6999 6.70004 52.4499 6.70004C51.9999 6.00004 51.5499 5.30002 51.1499 4.55001H51.0999C51.0999 5.25002 51.0999 5.95002 51.0999 6.65002C50.9499 6.70002 50.8499 6.70004 50.7499 6.70004C50.6499 6.70004 50.5499 6.70004 50.3999 6.70004C50.3999 5.50004 50.3999 4.35002 50.3999 3.15002C50.5499 3.05002 50.7499 3.10003 50.9999 3.10003Z" fill="white"/>
<path d="M86.8498 4.45009C86.8498 5.25009 86.8498 5.95008 86.8498 6.65009C86.5998 6.65009 86.3998 6.65009 86.1498 6.65009C86.0998 6.45008 86.0498 3.80007 86.0998 3.10007C86.3498 3.05007 86.5498 3.10007 86.7998 3.10007C87.2498 3.85007 87.6998 4.60006 88.1498 5.30007H88.1998C88.1998 4.55006 88.1998 3.85007 88.1998 3.10007C88.4498 3.00007 88.6498 3.10005 88.8998 3.05005C88.9498 3.30005 88.9998 6.00009 88.9498 6.6001C88.6998 6.6001 88.4498 6.6001 88.1998 6.6001C87.7998 5.95009 87.3498 5.25009 86.8498 4.45009Z" fill="white"/>
<path d="M70.6495 10.3501C70.6495 9.65005 70.6495 8.90004 70.6495 8.15003C70.8995 8.10003 71.0995 8.15003 71.2995 8.15003C71.3495 8.35003 71.3995 11.2501 71.2995 11.7001C71.0495 11.7001 70.7995 11.7001 70.5495 11.7001C70.3495 11.3501 70.0995 11 69.8995 10.65C69.6995 10.3 69.4495 9.95005 69.1995 9.60005C69.1995 10.3001 69.1995 11.0001 69.1995 11.7001C69.0495 11.7501 68.9495 11.7501 68.8495 11.7501C68.7495 11.7501 68.6495 11.7501 68.4995 11.7501C68.4995 10.5501 68.4995 9.40006 68.4995 8.20005C68.7495 8.20005 68.9995 8.20005 69.2495 8.20005C69.6995 8.90005 70.1495 9.65004 70.5995 10.4C70.6495 10.35 70.6495 10.3501 70.6495 10.3501Z" fill="white"/>
<path d="M81.2497 9.60004C81.2497 10.3 81.2497 11 81.2497 11.7C80.9997 11.7 80.7997 11.7 80.5497 11.7C80.4997 11.5 80.4997 8.50002 80.5497 8.15002C80.7997 8.15002 80.9997 8.15002 81.2497 8.15002C81.6997 8.90002 82.1497 9.60004 82.5997 10.35H82.6497C82.6497 9.65004 82.6497 8.90002 82.6497 8.15002C82.8997 8.15002 83.0997 8.15002 83.3497 8.15002C83.3997 8.40002 83.3997 11.4 83.3497 11.7C83.0997 11.7 82.8497 11.7 82.5997 11.7C82.3997 11.35 82.1497 11 81.9497 10.65C81.7497 10.3 81.4997 9.95004 81.2997 9.60004C81.2997 9.60004 81.2997 9.60004 81.2497 9.60004Z" fill="white"/>
<path d="M66.1997 20.8C66.4997 20.8 66.7997 20.8 67.0997 20.8C67.1497 20.9 67.1497 21 67.1497 21.1C67.1497 21.75 67.1497 22.4 67.1497 23C67.1497 23.15 67.1497 23.25 67.2497 23.35C67.4497 23.6 67.7497 23.55 67.8497 23.3C67.8997 23.2 67.9497 23.05 67.9497 22.9C67.9497 22.3 67.9497 21.7 67.9497 21.05C67.9497 20.95 67.9497 20.85 67.9497 20.75C68.2497 20.75 68.5497 20.75 68.8497 20.75C68.8997 20.95 68.8997 23 68.8497 23.35C68.9997 23.45 69.1497 23.55 69.2997 23.7C69.1497 23.95 68.9997 24.15 68.7997 24.4C68.5497 24.3 68.3997 24.15 68.1997 24.05C67.8997 24.2 67.5497 24.25 67.1997 24.2C66.5497 24.05 66.1997 23.65 66.1497 23C66.0997 22.3 66.1497 21.55 66.1497 20.85C66.1497 20.85 66.1997 20.85 66.1997 20.8Z" fill="white"/>
<path d="M63.1997 23.75C63.0497 24 62.8997 24.25 62.7497 24.45C62.5497 24.35 62.3997 24.2 62.1997 24.1C61.9497 24.2 61.6997 24.25 61.3997 24.25C60.7497 24.2 60.1997 23.75 60.1997 23.05C60.1997 22.3 60.1997 21.55 60.1997 20.85C60.1997 20.85 60.1997 20.8 60.2497 20.8C60.5497 20.8 60.7997 20.8 61.0997 20.8C61.1497 20.9 61.1497 21 61.1497 21.1C61.1497 21.7 61.1497 22.35 61.1497 22.95C61.1497 23.2 61.1997 23.4 61.4497 23.5C61.5997 23.55 61.7497 23.5 61.8497 23.4C61.9497 23.25 61.9997 23.1 61.9997 22.9C61.9997 22.3 61.9997 21.7 61.9997 21.05C61.9997 20.95 61.9997 20.85 61.9997 20.75C62.2997 20.7 62.5997 20.75 62.9497 20.75C62.9497 21.65 62.9997 22.5 62.8997 23.4C62.8997 23.55 63.0497 23.65 63.1997 23.75Z" fill="white"/>
<path d="M73.6997 25.6001C74.0497 25.6001 74.2997 25.6001 74.5997 25.6001C74.6497 25.7001 74.6497 25.7501 74.6497 25.8501C74.6497 26.3501 74.6497 26.9001 74.6497 27.4001C74.6497 27.6501 74.6497 27.9001 74.6997 28.1001C74.7997 28.2001 74.8497 28.3001 75.0497 28.3501C75.2497 28.3501 75.3997 28.2001 75.4497 28.0001C75.4497 27.9001 75.4997 27.8001 75.4997 27.6501C75.4997 27.0501 75.4997 26.4501 75.4997 25.9001C75.4997 25.8001 75.4997 25.7001 75.4997 25.6001C75.7997 25.6001 76.0997 25.6001 76.3997 25.6001C76.4497 26.0001 76.4497 27.9501 76.3497 28.2001C76.4997 28.3501 76.6497 28.4501 76.8497 28.5501C76.6997 28.8001 76.5497 29.0501 76.3497 29.3001C76.1497 29.1501 75.9497 29.0501 75.7997 28.9501C75.4497 29.1001 75.0997 29.1501 74.7497 29.0501C74.2497 28.9501 73.7997 28.5501 73.7997 27.9501C73.6997 27.1501 73.6997 26.4001 73.6997 25.6001Z" fill="white"/>
<path d="M57.7495 6.65009C57.7495 6.65009 57.7495 6.60009 57.7495 6.65009C57.8995 6.55009 57.7995 6.4501 57.7995 6.3501C57.7995 5.4001 57.7995 4.4001 57.7995 3.4501C57.7995 3.3501 57.7995 3.25009 57.8495 3.15009C58.0995 3.10009 58.2995 3.1501 58.5495 3.1001C58.9995 3.8501 59.4995 4.6001 59.9995 5.4501C59.9995 4.6501 59.9995 3.90009 59.9995 3.15009C60.2495 3.10009 60.4495 3.1001 60.6995 3.1001C60.6995 4.3001 60.6995 5.45009 60.6995 6.65009C60.4995 6.70009 60.2495 6.6501 59.9995 6.7001C59.5495 6.0001 59.0995 5.2501 58.5995 4.4501C58.5995 5.2501 58.5995 5.9501 58.5995 6.7001C58.2495 6.6501 57.9995 6.70009 57.7495 6.65009Z" fill="white"/>
<path d="M97.1999 5.1001C97.7499 5.6001 97.6999 5.60009 98.3499 6.65009C98.0499 6.65009 97.7999 6.65009 97.4999 6.65009C97.4499 6.60009 97.3999 6.5501 97.3499 6.4501C97.0999 6.1501 96.8999 5.80009 96.6999 5.50009C96.4999 5.20009 96.2499 5.15011 95.8999 5.20011C95.8999 5.65011 95.8999 6.15009 95.8999 6.65009C95.6499 6.65009 95.3999 6.65009 95.1499 6.65009C95.1499 5.45009 95.1499 4.3001 95.1499 3.1001C95.2499 3.0501 95.3999 3.1001 95.4999 3.1001C96.0499 3.1001 96.5499 3.10009 97.0999 3.15009C97.6499 3.20009 97.9999 3.6001 98.0499 4.0001C98.0999 4.50009 97.8499 4.9001 97.3499 5.1001C97.3499 5.1001 97.2999 5.1001 97.1999 5.1001ZM95.8999 4.6001C96.2499 4.6001 96.5499 4.6001 96.8499 4.6001C96.8999 4.6001 96.9499 4.55008 96.9999 4.55008C97.1499 4.50008 97.2499 4.40011 97.2499 4.20011C97.2499 3.95011 97.0999 3.7501 96.8499 3.7501C96.5499 3.7501 96.1999 3.7501 95.8999 3.7501C95.8999 4.0501 95.8999 4.3001 95.8999 4.6001Z" fill="white"/>
<path d="M42.4498 23.45C42.5998 23.55 42.7498 23.65 42.8998 23.75C42.7998 24 42.5998 24.25 42.4498 24.5C42.2498 24.4 42.0998 24.3 41.8998 24.15C41.7498 24.15 41.5998 24.25 41.4498 24.25C40.8998 24.35 40.2998 24.2 39.9498 23.65C39.8498 23.5 39.7998 23.4 39.7998 23.25C39.7998 22.45 39.7998 21.65 39.7998 20.8C40.0998 20.8 40.3998 20.8 40.6998 20.8C40.7498 20.9 40.7498 21 40.7498 21.1C40.7498 21.7 40.7498 22.3 40.7498 22.85C40.7498 22.95 40.7498 23.05 40.7998 23.2C40.8998 23.55 41.0998 23.6 41.3998 23.45C41.4998 23.3 41.5498 23.15 41.5498 23C41.5998 22.4 41.5498 21.85 41.5498 21.25C41.5498 21.1 41.5498 20.95 41.5498 20.75C41.8498 20.75 42.1498 20.75 42.4498 20.75C42.4998 21.15 42.4998 22.75 42.4498 23.45Z" fill="white"/>
<path d="M42.6997 23.1001C42.9997 23.1001 43.2497 23.1001 43.5497 23.1001C43.5497 23.3501 43.6497 23.5001 43.8997 23.5501C44.1497 23.6001 44.4497 23.6001 44.6997 23.4501C44.8497 23.3501 44.8997 23.1501 44.7497 22.9001C44.6497 22.8001 44.4997 22.7501 44.3497 22.7501C43.8997 22.7501 43.4997 22.7501 43.0497 22.7501C42.9497 22.7501 42.8497 22.7501 42.7497 22.7501C42.7497 22.5001 42.7497 22.3001 42.7497 22.0001C43.2997 21.9001 43.8497 22.0001 44.4497 21.9501C44.5997 21.8001 44.5997 21.8001 44.5497 21.5501C44.2997 21.3501 44.2997 21.3501 43.8997 21.4501C43.8497 21.5001 43.8497 21.6001 43.7997 21.6501C43.5497 21.6501 43.2497 21.6501 42.9997 21.6501C42.9997 21.2501 43.1997 21.0001 43.4997 20.8001C43.9497 20.5501 44.6497 20.5001 45.1497 20.9001C45.4997 21.1501 45.6497 21.5001 45.4997 21.9501C45.3997 22.1001 45.2997 22.2001 45.0997 22.3001C45.1997 22.3501 45.2997 22.4001 45.3997 22.4501C45.6997 22.6501 45.7997 22.9501 45.6997 23.2501C45.5997 23.6001 45.3997 23.9001 45.0497 24.0001C44.3497 24.3001 43.6497 24.2501 43.0497 23.7501C42.7997 23.7001 42.6997 23.4001 42.6997 23.1001Z" fill="white"/>
<path d="M43.8999 11.7501C43.6499 11.7501 43.3999 11.7501 43.1499 11.7501C43.1499 10.5501 43.1499 9.40006 43.1499 8.25006C43.2499 8.20006 43.2999 8.20007 43.3999 8.20007C43.9499 8.20007 44.5499 8.20007 45.0999 8.20007C45.4999 8.20007 45.7999 8.40005 45.9999 8.80005C46.1499 9.15005 46.1499 9.55007 45.8499 9.85006C45.7999 9.90006 45.7999 9.90007 45.7999 9.95007C45.6499 10.0501 45.4499 10.1501 45.2499 10.2001C45.7999 10.6001 46.0499 11.2001 46.3999 11.7501C46.0999 11.8001 45.8499 11.7501 45.5499 11.7501C45.4499 11.6501 45.3499 11.5501 45.2999 11.4501C45.0999 11.2001 44.8999 10.9501 44.7499 10.6501C44.5499 10.3501 44.2999 10.2 43.8999 10.3C43.8999 10.75 43.8999 11.2501 43.8999 11.7501ZM43.8999 9.65005C44.2499 9.65005 44.5499 9.65005 44.8499 9.65005C45.0999 9.65005 45.2499 9.45006 45.2999 9.25006C45.2999 9.00006 45.1999 8.85005 44.9499 8.80005C44.5999 8.75005 44.2499 8.80005 43.8999 8.80005C43.8999 9.10005 43.8999 9.35005 43.8999 9.65005Z" fill="white"/>
<path d="M75.0996 6.65009C75.0996 5.50009 75.0996 4.30009 75.0996 3.15009C75.2996 3.05009 75.5496 3.1501 75.7496 3.1001C76.1996 3.8501 76.6996 4.6501 77.1996 5.4501C77.1996 4.6501 77.1996 3.90009 77.1996 3.15009C77.4496 3.10009 77.6496 3.10009 77.8996 3.15009C77.8996 4.35009 77.8996 5.5001 77.8996 6.7001C77.6996 6.7501 77.4496 6.70009 77.1996 6.75009C76.6996 6.05009 76.2996 5.30009 75.7996 4.50009C75.7996 5.25009 75.7996 6.00009 75.7996 6.75009C75.5496 6.65009 75.3496 6.70009 75.0996 6.65009Z" fill="white"/>
<path d="M40.1497 28.4001C40.1497 28.6001 40.1497 28.8001 40.1497 28.9501C39.8497 28.9501 39.5497 28.9501 39.1997 28.9501C39.1997 28.7501 39.1997 28.6001 39.1997 28.4001C38.9497 28.3501 38.6997 28.3501 38.4997 28.3501C37.9497 28.3001 37.5997 27.9501 37.4497 27.5001C37.2497 26.9001 37.2997 26.3501 37.7497 25.9001C38.1497 25.5001 38.7497 25.4001 39.2997 25.6501C39.8497 25.9001 40.1497 26.3001 40.1497 26.9001C40.1497 27.1501 40.1497 27.4001 40.1497 27.7001C40.3497 27.7001 40.5497 27.7001 40.7497 27.7001C40.7497 27.9501 40.7497 28.2001 40.7497 28.4501C40.5997 28.4001 40.3997 28.4001 40.1497 28.4001ZM38.4497 27.5501C38.6997 27.7501 38.9497 27.7001 39.1997 27.6501C39.1997 27.3001 39.1997 26.9501 39.1997 26.6001C39.1997 26.3001 39.0497 26.2001 38.7497 26.2001C38.6497 26.2001 38.5997 26.2501 38.4997 26.3001C38.1997 26.7001 38.2497 27.1501 38.4497 27.5501Z" fill="white"/>
<path d="M67.4497 3.10003C68.0997 3.10003 68.7497 3.05002 69.3497 3.15002C69.7997 3.25002 70.0997 3.60002 70.2497 4.00002C70.4997 4.55002 70.4997 5.15002 70.2997 5.75003C70.0997 6.30002 69.6997 6.60002 69.1497 6.65002C68.5997 6.70002 67.9997 6.65002 67.4497 6.65002C67.4497 5.45002 67.4497 4.30003 67.4497 3.10003ZM68.1997 6.05001C68.4997 6.05001 68.7997 6.05002 69.0997 6.00003C69.2997 5.95003 69.4497 5.85002 69.5497 5.65002C69.6997 5.20002 69.6997 4.75001 69.5997 4.30001C69.5497 4.00001 69.3497 3.80002 69.0497 3.75002C68.7497 3.70002 68.4997 3.75002 68.1997 3.75002C68.1997 4.50002 68.1997 5.25001 68.1997 6.05001Z" fill="white"/>
<path d="M39.4497 9.95014C39.4497 9.35014 39.5997 8.85014 40.0496 8.45014C40.1996 8.30014 40.3997 8.20012 40.6497 8.15012C41.1496 8.05012 41.6996 8.05012 42.1496 8.30012C42.6496 8.60012 42.8997 9.10012 42.9497 9.65012C42.9997 10.0001 42.9496 10.4001 42.8496 10.7501C42.6497 11.3001 42.0996 11.7501 41.4997 11.8001C41.1997 11.8001 40.9496 11.8501 40.6497 11.7501C40.1497 11.6001 39.7997 11.2501 39.6497 10.8001C39.4497 10.5001 39.3997 10.2001 39.4497 9.95014ZM40.2497 9.95014C40.2497 10.0501 40.2497 10.2001 40.2497 10.3001C40.2497 10.4001 40.2997 10.5001 40.3497 10.5501C40.4997 10.9001 40.8497 11.1501 41.1997 11.1501C41.5997 11.1501 41.8996 10.9501 42.0496 10.5501C42.1996 10.1501 42.1996 9.75014 42.0496 9.35014C41.8996 8.95014 41.5997 8.75013 41.1997 8.75013C40.7497 8.75013 40.4497 9.00012 40.3497 9.30012C40.2497 9.50012 40.1997 9.70014 40.2497 9.95014Z" fill="white"/>
<path d="M94.8499 6.05008C94.8499 6.25008 94.8499 6.45009 94.8499 6.65009C93.9499 6.65009 93.0499 6.65009 92.1499 6.65009C92.1499 5.45009 92.1499 4.3001 92.1499 3.1001C93.0499 3.1001 93.8999 3.1001 94.7999 3.1001C94.7999 3.3001 94.7999 3.50009 94.7999 3.75009C94.1999 3.75009 93.5499 3.75009 92.9499 3.75009C92.9499 4.00009 92.9499 4.25009 92.9499 4.50009C93.5499 4.50009 94.0999 4.50009 94.6999 4.50009C94.6999 4.75009 94.6999 4.95009 94.6999 5.15009C94.0999 5.15009 93.5499 5.15009 92.9499 5.15009C92.9499 5.45009 92.9499 5.75008 92.9499 6.05008C93.5499 6.05008 94.1999 6.05008 94.8499 6.05008Z" fill="white"/>
<path d="M64.9998 29C64.6998 29 64.3998 29 64.0998 29C64.0498 28.95 64.0498 28.85 64.0498 28.75C64.0498 28.15 64.0498 27.5 64.0498 26.9C64.0498 26.65 63.9998 26.4 63.7998 26.25C63.5498 26.25 63.5498 26.25 63.3498 26.3C63.2498 26.45 63.1998 26.65 63.1998 26.85C63.1998 27.45 63.1998 28.05 63.1998 28.65C63.1998 28.75 63.1998 28.85 63.1998 28.95C62.8998 28.95 62.5998 28.95 62.3498 28.95C62.2998 28.9 62.2998 28.8 62.2998 28.75C62.2998 28.05 62.2998 27.4 62.2998 26.7C62.2998 26.05 62.7998 25.5 63.4998 25.5C63.6998 25.5 63.9498 25.5 64.1498 25.55C64.5498 25.7 64.8498 25.95 64.9498 26.4C64.9998 26.55 64.9998 26.75 64.9998 26.9C64.9998 27.6 64.9998 28.3 64.9998 29Z" fill="white"/>
<path d="M99.3998 29C99.0998 29 98.7998 29 98.5498 29C98.4998 28.9 98.4998 28.85 98.4998 28.75C98.4998 28.1 98.4998 27.5 98.4998 26.85C98.4998 26.55 98.4498 26.45 98.2498 26.25C98.1498 26.25 98.0498 26.25 97.9998 26.25C97.8498 26.3 97.7498 26.35 97.7498 26.5C97.7498 26.65 97.6998 26.8 97.6998 26.9C97.6998 27.5 97.6998 28.05 97.6998 28.65C97.6998 28.75 97.6998 28.85 97.6998 28.95C97.3998 28.95 97.0998 28.95 96.7998 28.95C96.7998 28.9 96.7998 28.9 96.7998 28.85C96.7998 28.1 96.7998 27.35 96.7998 26.65C96.7998 25.95 97.2998 25.55 97.9498 25.5C98.1498 25.5 98.3498 25.5 98.5998 25.55C99.0498 25.7 99.4498 26.1 99.4498 26.7C99.3498 27.45 99.3998 28.2 99.3998 29Z" fill="white"/>
<path d="M76.2997 21.8C75.9997 21.85 75.7497 21.85 75.4497 21.8C75.3997 21.65 75.3497 21.4501 75.1497 21.4001C74.9997 21.3501 74.8997 21.4 74.7997 21.55C74.7997 21.65 74.7497 21.8001 74.7997 21.9001C74.8497 22.0001 74.9497 22.05 75.0497 22.05C75.2497 22.1 75.3997 22.1501 75.5997 22.1501C75.9997 22.2501 76.2497 22.5001 76.3497 22.9001C76.4497 23.3001 76.3997 23.6001 76.0997 23.9001C75.8997 24.1001 75.6497 24.1501 75.3997 24.2001C75.0997 24.2501 74.7497 24.2501 74.4497 24.1501C74.0497 24.0001 73.6997 23.65 73.6997 23.05C73.9997 23 74.2997 23.05 74.5997 23.05C74.6997 23.2 74.5997 23.3501 74.7497 23.4501C74.8997 23.5501 75.0497 23.5001 75.1997 23.5001C75.2497 23.4501 75.3497 23.4001 75.3997 23.3501C75.4497 23.2501 75.4497 23.1501 75.3997 23.0001C75.2997 22.8501 75.0997 22.8001 74.9497 22.7501C74.7997 22.7001 74.6497 22.7001 74.4997 22.6501C74.0497 22.5001 73.7997 22.1501 73.7497 21.7001C73.7497 21.2001 74.0997 20.8001 74.4997 20.7001C74.8497 20.6001 75.2497 20.6001 75.5997 20.7501C76.0997 20.9501 76.3497 21.35 76.2997 21.8Z" fill="white"/>
<path d="M78.9997 23.1001C79.2997 23.0501 79.5997 23.1001 79.8997 23.1001C79.9997 23.2001 79.8997 23.3 79.9997 23.4C79.9997 23.45 80.0997 23.5 80.1997 23.55C80.3997 23.6 80.5497 23.6 80.7497 23.4C80.8497 23.25 80.8497 23.1501 80.6997 22.9501C80.4997 22.8001 80.2497 22.8001 79.9497 22.7501C79.5497 22.6501 79.2497 22.4001 79.1497 22.0001C79.0497 21.5501 79.2497 21 79.6997 20.8C80.1497 20.6 80.6497 20.6501 81.0997 20.8501C81.4497 21.0001 81.6497 21.35 81.5997 21.8C81.2997 21.8 80.9997 21.8 80.7497 21.8C80.6497 21.7 80.7497 21.6 80.6497 21.55C80.3997 21.35 80.2997 21.4001 80.0997 21.6001C80.0497 21.7001 80.0997 21.8501 80.0997 21.9501C80.1497 22.1001 80.2497 22.1 80.3497 22.15C80.5997 22.2 80.7997 22.25 81.0497 22.3C81.4497 22.4 81.6997 22.75 81.7497 23.15C81.7997 23.55 81.6497 23.9001 81.1997 24.1001C80.7497 24.3501 80.2497 24.3501 79.7497 24.2001C79.3497 24.0501 79.0997 23.8001 79.0497 23.3501C78.9997 23.2501 78.9497 23.2001 78.9997 23.1001Z" fill="white"/>
<path d="M85.8997 6.05008C85.8997 6.25008 85.8997 6.45009 85.8997 6.65009C84.9997 6.65009 84.0997 6.65009 83.1997 6.65009C83.1997 5.45009 83.1997 4.3001 83.1997 3.1001C84.0497 3.1001 84.9497 3.1001 85.8497 3.1001C85.8997 3.3001 85.8497 3.50009 85.8497 3.75009C85.1997 3.75009 84.5997 3.75009 83.9497 3.75009C83.9497 4.00009 83.9497 4.25009 83.9497 4.50009C84.5497 4.50009 85.0997 4.50009 85.6997 4.50009C85.6997 4.75009 85.6997 4.95009 85.6997 5.15009C85.0997 5.15009 84.5497 5.15009 83.9497 5.15009C83.9497 5.45009 83.9497 5.75008 83.9497 6.05008C84.5497 6.05008 85.1997 6.05008 85.8997 6.05008Z" fill="white"/>
<path d="M77.5996 9.55002C77.5996 9.75002 77.5996 9.90002 77.5996 10.05C77.5996 10.1 77.5996 10.15 77.5496 10.2C76.9996 10.2 76.3996 10.2 75.8496 10.2C75.8496 10.5 75.8496 10.8 75.8496 11.1C76.4996 11.1 77.1496 11.1 77.7996 11.1C77.7996 11.3 77.7996 11.5 77.7996 11.7C77.5996 11.75 75.5996 11.75 75.0996 11.7C75.0996 10.55 75.0996 9.35003 75.0996 8.15002C75.9996 8.15002 76.8496 8.15002 77.7496 8.15002C77.7996 8.35002 77.7496 8.55003 77.7996 8.75003C77.1496 8.75003 76.5496 8.75003 75.8996 8.75003C75.8996 9.00003 75.8996 9.25003 75.8996 9.50003C76.4496 9.55003 76.9996 9.55002 77.5996 9.55002Z" fill="white"/>
<path d="M90.8498 27.9001C91.1498 27.9001 91.4498 27.9001 91.7498 27.9001C91.7998 28.0001 91.7498 28.2 91.8998 28.3C92.0998 28.4 92.2998 28.4001 92.4998 28.2501C92.6498 27.9501 92.5998 27.7501 92.2498 27.6501C92.0498 27.6001 91.7998 27.5501 91.5998 27.5001C91.1998 27.4001 90.8498 26.9001 90.8998 26.4001C90.9998 25.8501 91.4498 25.4501 91.9998 25.5001C92.1998 25.5001 92.3998 25.5001 92.5498 25.5501C93.0498 25.6001 93.3998 26.1501 93.3498 26.6001C93.1998 26.6501 93.0498 26.6001 92.8998 26.6001C92.7498 26.6001 92.5998 26.6001 92.4498 26.6001C92.3998 26.4501 92.3998 26.3001 92.1998 26.2501C92.1498 26.2501 92.0498 26.2501 91.9498 26.2501C91.7498 26.4501 91.7498 26.5501 91.8998 26.8501C92.1498 26.9501 92.3998 27.0001 92.6498 27.0501C93.2498 27.1501 93.6498 27.8501 93.3498 28.5001C93.2498 28.7001 93.0998 28.8501 92.8998 28.9501C92.4498 29.1501 91.9998 29.2 91.4998 29.05C91.0998 28.85 90.7498 28.4001 90.8498 27.9001Z" fill="white"/>
<path d="M47.2998 6.65009C47.2998 5.45009 47.2998 4.3001 47.2998 3.1001C48.1498 3.1001 49.0498 3.1001 49.8998 3.1001C49.8998 3.3001 49.8998 3.5001 49.8998 3.7001C49.2998 3.7001 48.6498 3.7001 48.0498 3.7001C47.9998 3.9501 48.0498 4.2001 47.9998 4.4501C48.5998 4.4501 49.1498 4.4501 49.7498 4.4501C49.7498 4.6501 49.7498 4.8501 49.7498 5.1001C49.1498 5.1001 48.5998 5.1001 47.9998 5.1001C47.9498 5.4001 47.9998 5.70009 47.9998 6.00009C48.6498 6.00009 49.2998 6.00009 49.9498 6.00009C49.9998 6.20009 49.9498 6.4001 49.9998 6.6001C49.0998 6.6501 48.1998 6.65009 47.2998 6.65009Z" fill="white"/>
<path d="M59.8499 11.1001C59.8499 11.3001 59.8499 11.5001 59.8499 11.7001C59.5999 11.7501 57.6999 11.7501 57.1499 11.7501C57.1499 10.6001 57.1499 9.40008 57.1499 8.20007C58.0499 8.20007 58.8999 8.20007 59.7999 8.20007C59.7999 8.40007 59.7999 8.60005 59.7999 8.80005C59.1499 8.80005 58.5499 8.80005 57.8999 8.80005C57.8499 9.05006 57.8999 9.30006 57.8499 9.55006C58.4499 9.55006 59.0499 9.55006 59.5999 9.55006C59.6499 9.60006 59.6499 9.65007 59.6499 9.75007C59.6499 9.90008 59.6499 10.0501 59.5999 10.2501C59.2999 10.2501 58.9999 10.2501 58.7499 10.2501C58.4499 10.2501 58.1499 10.2501 57.8499 10.2501C57.8499 10.5501 57.8499 10.8501 57.8499 11.1501C58.0499 11.2001 58.2999 11.1501 58.4999 11.2001C58.6999 11.2001 58.9499 11.2001 59.1499 11.2001C59.3999 11.1001 59.5999 11.1001 59.8499 11.1001Z" fill="white"/>
<path d="M43.6498 26.9001C42.9998 26.9001 42.3998 26.9001 41.7498 26.9001C41.7498 27.3501 41.6998 27.7501 41.7998 28.1501C41.8498 28.2501 41.8998 28.3001 41.9998 28.3001C42.1998 28.4001 42.4998 28.3001 42.4998 28.0501C42.5498 27.9501 42.5498 27.8001 42.5498 27.7001C42.5498 27.6001 42.5498 27.5001 42.5498 27.3501C42.8498 27.3501 43.1498 27.3501 43.4498 27.3501C43.4498 27.6001 43.4998 27.8501 43.4498 28.0501C43.2498 28.7501 42.6498 29.1001 41.9498 29.0001C41.5998 28.9501 41.2998 28.8001 41.0998 28.5501C40.8998 28.3501 40.7998 28.1001 40.7998 27.8501C40.7998 27.1001 40.7998 26.3501 40.7998 25.6001C40.7998 25.6001 40.7998 25.55 40.8498 25.55C41.1498 25.55 41.3998 25.55 41.7498 25.55C41.7498 25.75 41.7498 25.9001 41.7498 26.1501C42.0498 26.1501 42.3498 26.1501 42.6498 26.1501C42.9498 26.1501 43.2498 26.1501 43.5998 26.1501C43.6998 26.4001 43.6498 26.6501 43.6498 26.9001Z" fill="white"/>
<path d="M66.2998 10.2001C66.2998 10.5501 66.2998 10.8001 66.2998 11.1001C66.9498 11.1001 67.5998 11.1001 68.2498 11.1001C68.2998 11.3001 68.2498 11.5001 68.2498 11.7001C67.9998 11.7501 66.0998 11.8001 65.5498 11.7501C65.5498 10.6001 65.5498 9.40008 65.5498 8.20007C66.4498 8.20007 67.2998 8.20007 68.1998 8.20007C68.1998 8.40007 68.1998 8.60005 68.1998 8.80005C67.5498 8.80005 66.9498 8.80005 66.2998 8.80005C66.2498 9.05005 66.2998 9.30005 66.2498 9.55005C66.8498 9.55005 67.3998 9.55005 67.9998 9.55005C67.9998 9.80005 67.9998 10.0001 67.9998 10.2001C67.4498 10.2001 66.8998 10.2001 66.2998 10.2001Z" fill="white"/>
<path d="M38.0496 3.1001C38.2996 3.1001 38.5496 3.1001 38.8496 3.1001C39.2996 4.2501 39.7996 5.45008 40.2496 6.65008C39.9996 6.70008 39.6996 6.65008 39.4496 6.65008C39.2996 6.40008 39.2496 6.10009 39.0996 5.85009C38.6496 5.85009 38.1996 5.85009 37.7496 5.85009C37.5996 6.10009 37.5496 6.40008 37.3996 6.65008C37.1496 6.65008 36.8996 6.65008 36.5996 6.65008C37.0996 5.45008 37.5496 4.3001 38.0496 3.1001ZM38.3996 4.00009C38.2496 4.45009 38.0996 4.85009 37.9496 5.25009C38.2496 5.25009 38.4996 5.25009 38.8496 5.25009C38.6996 4.85009 38.5996 4.45009 38.3996 4.00009Z" fill="white"/>
<path d="M78.8997 27.15C79.1997 27.15 79.4997 27.15 79.7997 27.15C79.7997 27.5 79.8497 27.8 79.7997 28.15C79.7497 28.55 79.4997 28.8 79.1497 28.95C78.6997 29.15 78.2497 29.15 77.7997 28.95C77.4497 28.75 77.2498 28.45 77.1498 28.05C77.0998 27.75 77.0998 27.4 77.0998 27.1C77.0998 26.85 77.0998 26.65 77.0998 26.4C76.8998 26.3 76.6998 26.4 76.4998 26.35C76.4498 26.1 76.4998 25.9 76.4998 25.65C76.7498 25.65 77.0497 25.65 77.2997 25.65C77.5497 25.65 77.7997 25.65 78.0497 25.65C78.0997 25.75 78.0998 25.9 78.0998 25.95C78.0998 26.55 78.0998 27.15 78.0998 27.75C78.0998 27.85 78.0998 27.9 78.0998 28C78.1498 28.4 78.4497 28.5 78.7997 28.3C78.9497 27.9 78.8497 27.55 78.8997 27.15Z" fill="white"/>
<path d="M69.5497 21.5001C69.3497 21.5001 69.1497 21.5001 68.9497 21.5001C68.9497 21.2501 68.9497 21 68.9497 20.8C68.9997 20.8 69.0497 20.8 69.0997 20.8C69.5497 20.8 69.9997 20.8 70.4497 20.8C70.4997 20.9 70.4997 20.95 70.4997 21.05C70.4997 21.7 70.4997 22.3001 70.4997 22.9501C70.4997 23.2501 70.5497 23.35 70.7497 23.55C71.0997 23.6 71.2497 23.5001 71.2497 23.1501C71.2497 22.9001 71.2497 22.6501 71.2997 22.4001C71.4497 22.3501 71.5997 22.4001 71.7497 22.4001C71.8997 22.4001 72.0497 22.4001 72.1997 22.4001C72.1997 22.7501 72.2497 23.0501 72.1997 23.3501C72.0997 24.0001 71.6997 24.2501 71.1497 24.3501C70.6997 24.4001 70.2497 24.3501 69.8997 24.0001C69.6997 23.8001 69.5497 23.5001 69.5497 23.2001C69.5497 22.7501 69.5497 22.25 69.5497 21.8C69.5997 21.7 69.6497 21.6001 69.5497 21.5001Z" fill="white"/>
<path d="M56.1995 10.4001C56.3995 10.5001 56.6495 10.5501 56.8495 10.6501C56.7995 11.2501 56.1495 11.8001 55.4995 11.8001C54.4995 11.8501 53.7495 11.0501 53.7495 10.1001C53.7495 9.80013 53.7495 9.45011 53.8495 9.15011C54.0495 8.60011 54.6495 8.10012 55.2495 8.10012H55.2995C56.0495 8.05012 56.4995 8.25011 56.8495 9.15011C56.6495 9.30011 56.3995 9.25012 56.1995 9.35012C56.0995 9.30012 56.0995 9.25013 56.0495 9.20013C55.8995 8.90013 55.6495 8.7501 55.3495 8.8001C55.0495 8.8001 54.7495 8.95012 54.6495 9.25012C54.4495 9.75012 54.4495 10.2501 54.6495 10.7501C54.7495 11.0501 55.0495 11.2001 55.3495 11.2001C55.6495 11.2001 55.8995 11.0501 55.9995 10.7501C56.0995 10.6001 56.1495 10.5001 56.1995 10.4001Z" fill="white"/>
<path d="M82.1995 5.35002C82.4495 5.40002 82.6494 5.45 82.8994 5.55C82.7994 6.14999 82.2995 6.65002 81.6995 6.70002C81.3995 6.75002 81.0494 6.75001 80.7494 6.60001C80.1994 6.35001 79.8994 5.9 79.7994 5.3C79.7494 4.9 79.7494 4.50002 79.8994 4.10002C80.1494 3.40002 80.7994 2.95 81.6494 3.05C82.3494 3.1 82.6494 3.50002 82.8994 4.10002C82.6994 4.25002 82.3994 4.2 82.2494 4.3C82.1494 4.25 82.1495 4.20001 82.0995 4.15001C81.9495 3.85001 81.6994 3.70001 81.3994 3.75001C81.0994 3.75001 80.8495 3.90003 80.6995 4.20002C80.6495 4.35002 80.5995 4.50001 80.5995 4.65C80.5995 4.95 80.5494 5.25 80.6494 5.55C80.7994 5.95 81.0495 6.15 81.4495 6.15C81.7495 6.15 81.9494 6.00001 82.0494 5.75001C82.0994 5.55001 82.1495 5.45002 82.1995 5.35002Z" fill="white"/>
<path d="M89.2499 10.65C89.1499 10.95 89.0499 11.2 88.8499 11.4C88.6499 11.6 88.3999 11.75 88.1499 11.8C86.9499 12 86.1999 11.2 86.1499 10.2C86.1499 9.85004 86.1499 9.55004 86.2499 9.20004C86.3999 8.65004 86.9999 8.15002 87.5999 8.15002C87.7999 8.15002 88.0499 8.15002 88.2499 8.15002C88.5999 8.20002 88.8499 8.45003 89.0499 8.75003C89.1499 8.85003 89.1999 9.00002 89.2499 9.15002C89.0499 9.30002 88.7999 9.25004 88.5999 9.35004C88.4999 9.30004 88.4999 9.25002 88.4499 9.15002C88.2999 8.85002 88.0999 8.75003 87.7999 8.75003C87.4999 8.75003 87.1999 8.85002 87.0999 9.15002C86.8999 9.65002 86.8999 10.15 87.0999 10.7C87.2499 11.15 87.8999 11.3 88.2499 11C88.2999 10.95 88.3499 10.9 88.3999 10.8C88.4499 10.65 88.5499 10.55 88.5999 10.4C88.7999 10.5 89.0499 10.5 89.2499 10.65Z" fill="white"/>
<path d="M74.0995 10.4001C74.3495 10.4501 74.5495 10.5501 74.7995 10.6001C74.6995 11.2001 74.0995 11.75 73.3995 11.8C72.4495 11.8 71.7495 11.0501 71.7495 10.2001C71.7495 9.80008 71.7495 9.35007 71.8995 9.00007C72.1495 8.45007 72.5995 8.15008 73.1995 8.10008C73.9495 8.05008 74.3995 8.15008 74.7995 9.10008C74.5995 9.25008 74.2995 9.20006 74.0995 9.30006C73.9995 9.25006 73.9995 9.20006 73.9995 9.15006C73.8495 8.85007 73.5995 8.70008 73.2995 8.70008C72.9995 8.70008 72.7495 8.85008 72.5995 9.10008C72.5495 9.25008 72.4995 9.40006 72.4995 9.55006C72.4995 9.90006 72.4495 10.2001 72.5495 10.5501C72.6995 10.9501 72.9495 11.1001 73.2995 11.1001C73.6495 11.1001 73.8495 10.9001 73.9995 10.6001C74.0495 10.5501 74.0495 10.4501 74.0995 10.4001Z" fill="white"/>
<path d="M96.4996 27.7001C96.1996 27.7001 95.8996 27.7001 95.5496 27.7001C95.5496 27.4001 95.5496 27.1001 95.5496 26.8501C95.5496 26.7501 95.5496 26.6001 95.4996 26.5001C95.3996 26.3001 95.2996 26.2501 95.0996 26.2501C94.8996 26.3001 94.7996 26.4001 94.7496 26.6001C94.7496 26.9001 94.7496 27.2001 94.7496 27.5001C94.7496 28.0001 94.7496 28.4501 94.7496 29.0001C94.4496 29.0501 94.1496 29.0001 93.8496 29.0001C93.7496 28.9501 93.7996 28.8501 93.7996 28.8001C93.7996 28.2001 93.7996 27.6001 93.7996 26.9501C93.7996 26.7501 93.7996 26.5501 93.8496 26.4001C93.9996 25.9501 94.2996 25.6501 94.7496 25.5501C95.2996 25.4501 95.7996 25.5001 96.1996 25.9501C96.3496 26.1001 96.3996 26.2501 96.4496 26.4501C96.4996 26.9001 96.4996 27.2501 96.4996 27.7001Z" fill="white"/>
<path d="M46.4998 27.7C46.1998 27.7 45.8998 27.7 45.5998 27.7C45.5998 27.45 45.5998 27.15 45.5998 26.9C45.5998 26.8 45.5998 26.75 45.5998 26.65C45.5498 26.45 45.4998 26.3 45.2998 26.25C45.1498 26.2 44.9998 26.25 44.7998 26.5C44.7998 27.3 44.7998 28.15 44.7998 29C44.4498 29 44.1498 29 43.8498 29C43.7998 28.95 43.7998 28.85 43.7998 28.75C43.7998 28.15 43.7998 27.55 43.7998 26.9C43.7998 26.8 43.7998 26.65 43.8498 26.55C43.9498 26 44.2498 25.6499 44.7998 25.5499C45.2998 25.4499 45.7998 25.5 46.1998 25.9C46.3998 26.1 46.4998 26.35 46.4998 26.6C46.5498 26.95 46.4998 27.3 46.4998 27.7Z" fill="white"/>
<path d="M84.3499 26.5001C84.3499 27.35 84.3499 28.15 84.3499 28.95C84.0499 29 83.7499 28.95 83.3999 28.95C83.3999 28.65 83.3999 28.35 83.3999 28C82.9499 28.25 82.5499 28.15 82.1499 27.9C81.8999 27.75 81.6999 27.5001 81.6999 27.2001C81.6499 26.6501 81.6999 26.1 81.6499 25.5501C81.9499 25.5001 82.2499 25.5501 82.5499 25.5501C82.5999 26.15 82.4999 26.75 82.6499 27.3C82.8999 27.5 83.0999 27.5 83.2999 27.3501C83.4499 27.1001 83.3999 26.8001 83.3999 26.5001C83.7499 26.5001 83.9999 26.5001 84.3499 26.5001Z" fill="white"/>
<path d="M59.7997 21.7001C59.7997 22.5501 59.7997 23.3501 59.7997 24.2001C59.4997 24.2001 59.1997 24.2001 58.8497 24.2001C58.8497 23.9001 58.8497 23.6001 58.8497 23.2501C58.3497 23.4501 57.9497 23.3501 57.5497 23.1001C57.2997 22.9001 57.1497 22.7001 57.1497 22.4001C57.0997 21.9001 57.1497 21.35 57.1497 20.8C57.4497 20.8 57.7497 20.8 58.0497 20.8C58.1497 21.35 57.9997 21.9501 58.1497 22.5001C58.2997 22.7001 58.4997 22.6501 58.6497 22.6501C58.9997 22.4501 58.8497 22.0501 58.8997 21.7501C59.1497 21.7001 59.4497 21.7001 59.7997 21.7001Z" fill="white"/>
<path d="M64.6997 22.6501C64.9997 22.4001 64.8997 22.0501 64.9497 21.7501C65.2497 21.7501 65.5497 21.7501 65.8497 21.7501C65.8497 22.5501 65.8497 23.4001 65.8497 24.2001C65.5497 24.2001 65.2497 24.2001 64.9497 24.2001C64.9497 23.9001 64.9497 23.6001 64.9497 23.2501C64.4497 23.5001 64.0497 23.4001 63.6497 23.1001C63.3997 22.9501 63.2997 22.7001 63.2497 22.4501C63.1997 22.2001 63.1997 22.0001 63.1997 21.7501C63.1997 21.4501 63.1997 21.15 63.1997 20.8C63.5497 20.8 63.8497 20.8 64.1497 20.8C64.1997 21.4 64.0997 22.0001 64.2497 22.5001C64.3497 22.6501 64.5497 22.6501 64.6997 22.6501Z" fill="white"/>
<path d="M37.7497 8.80002C37.7497 9.10002 37.7497 9.35004 37.7497 9.60004C37.9997 9.65004 38.2497 9.60004 38.4497 9.60004C38.6997 9.60004 38.8997 9.60004 39.1497 9.60004C39.1497 9.80004 39.1497 10 39.1497 10.25C38.6997 10.25 38.1997 10.25 37.6997 10.25C37.6997 10.75 37.6997 11.2 37.6997 11.7C37.4497 11.75 37.1997 11.75 36.9497 11.7C36.9497 10.5 36.9497 9.35003 36.9497 8.15002C37.7497 8.15002 38.5997 8.15002 39.3997 8.15002C39.4497 8.35002 39.3997 8.55003 39.4497 8.75003C38.8997 8.80003 38.2997 8.80002 37.7497 8.80002Z" fill="white"/>
<path d="M38.5997 24.2C38.5997 23.8 38.5997 23.45 38.5997 23.1C38.2497 22.65 37.7997 22.9 37.3997 22.8C37.3997 22.55 37.3997 22.35 37.3997 22.1C37.6497 22.1 37.8497 22.1 38.0497 22.05C38.2997 22 38.3997 21.9 38.3997 21.75C38.3997 21.6 38.2997 21.5 38.0997 21.45C37.8997 21.45 37.7497 21.45 37.5497 21.45C37.4997 21.45 37.4497 21.45 37.3997 21.45C37.3497 21.2 37.3997 21 37.3997 20.75C37.7497 20.75 38.1497 20.7 38.4997 20.75C38.9997 20.8 39.3997 21.25 39.3497 21.8C39.3497 22.05 39.1997 22.25 38.9997 22.35C38.9997 22.45 39.0997 22.45 39.1497 22.5C39.3497 22.65 39.5497 22.9 39.5497 23.2C39.5497 23.55 39.5497 23.9 39.5497 24.3C39.1997 24.2 38.9497 24.2 38.5997 24.2Z" fill="white"/>
<path d="M76.5996 22.75C76.5996 22.6 76.5996 22.4 76.5996 22.2C76.5996 22.15 76.5996 22.1 76.6496 22.05C76.8996 22 77.1996 22.1 77.4996 21.95C77.5496 21.95 77.5996 21.9 77.5996 21.85C77.6496 21.75 77.6496 21.65 77.5996 21.55C77.3496 21.25 76.9496 21.4 76.5996 21.35C76.5996 21.1 76.5996 20.9 76.5996 20.65C76.9996 20.7 77.4496 20.6 77.8496 20.7C78.2496 20.8 78.4996 21.1 78.5996 21.55C78.6496 21.75 78.5496 21.95 78.4496 22.1C78.3996 22.15 78.3496 22.25 78.2496 22.3C78.2496 22.4 78.3496 22.4 78.3996 22.45C78.6996 22.65 78.7996 22.95 78.7996 23.3C78.7996 23.6 78.7996 23.85 78.7996 24.15C78.4996 24.15 78.1996 24.15 77.8996 24.15C77.8496 24.05 77.8496 23.95 77.8496 23.85C77.8496 23.65 77.8496 23.5 77.8496 23.3C77.8496 22.9 77.6996 22.8 77.3496 22.75C77.1996 22.75 77.0496 22.75 76.8496 22.75C76.7496 22.8 76.6496 22.8 76.5996 22.75Z" fill="white"/>
<path d="M49.2996 21.55C48.9996 21.35 48.6496 21.4501 48.3496 21.4001C48.3496 21.1501 48.3496 20.9501 48.3496 20.7501C48.4996 20.7001 49.2496 20.7001 49.3996 20.7001C49.5996 20.7501 49.7496 20.8001 49.8996 20.9001C50.3496 21.2501 50.4496 21.9 49.9496 22.3C49.9496 22.35 50.0496 22.3501 50.0996 22.4001C50.3496 22.6001 50.4996 22.8501 50.4996 23.1501C50.4996 23.4501 50.4996 23.8001 50.4996 24.1501C50.1996 24.1501 49.8996 24.1501 49.5996 24.1501C49.5496 24.0001 49.5996 23.8001 49.5996 23.6001C49.5996 23.4001 49.5996 23.25 49.5996 23.05C49.4996 22.8 49.3496 22.7501 49.1496 22.7501C48.8996 22.7501 48.6496 22.7501 48.3996 22.7501C48.3496 22.5001 48.3996 22.25 48.3496 22.05C48.4996 22 48.5996 22.0501 48.7496 22.0001C48.8496 22.0001 48.9496 22.0001 49.0496 21.9501C49.3496 22.0001 49.3996 21.85 49.2996 21.55Z" fill="white"/>
<path d="M90.1997 3.75005C89.8497 3.75005 89.5497 3.75005 89.1997 3.75005C89.1997 3.55005 89.1997 3.35005 89.1997 3.15005C89.3997 3.10005 91.2997 3.05006 91.9997 3.10006C92.0497 3.20006 91.9997 3.30005 92.0497 3.40005C92.0497 3.50005 92.0497 3.60007 92.0497 3.70007C91.6997 3.70007 91.3497 3.70007 90.9997 3.70007C90.9997 4.70007 90.9997 5.65006 90.9997 6.60006C90.7497 6.65006 90.4997 6.60006 90.2997 6.60006C90.2497 6.35006 90.2997 6.10005 90.2497 5.90005C90.2497 5.65005 90.2497 5.40005 90.2497 5.15005C90.2497 4.90005 90.2497 4.65005 90.2497 4.40005C90.1997 4.20005 90.2497 4.00005 90.1997 3.75005Z" fill="white"/>
<path d="M92.0998 8.20004C92.0998 8.40004 92.0998 8.60002 92.0998 8.80002C91.7498 8.80002 91.4498 8.80002 91.0998 8.80002C91.0998 9.80002 91.0998 10.75 91.0998 11.7C90.8498 11.7 90.5998 11.7 90.3498 11.7C90.3498 11.25 90.3498 10.75 90.3498 10.25C90.3498 9.75003 90.3498 9.30003 90.3498 8.75003C89.9998 8.75003 89.6498 8.75003 89.2998 8.75003C89.2998 8.55003 89.2998 8.35002 89.2998 8.15002C90.2498 8.20002 91.1498 8.20004 92.0998 8.20004Z" fill="white"/>
<path d="M62.7998 8.20007C63.0498 8.20007 63.2998 8.20007 63.5498 8.20007C63.5498 9.15007 63.5498 10.1001 63.5498 11.1001C64.1498 11.1001 64.7498 11.1001 65.2998 11.1001C65.2998 11.3001 65.2998 11.5001 65.2998 11.7001C64.4498 11.7001 63.6498 11.7001 62.7998 11.7001C62.7998 10.5501 62.7998 9.40007 62.7998 8.20007Z" fill="white"/>
<path d="M24.1997 40.4001C23.7997 40.4001 23.3997 40.4001 22.9997 40.4001C22.8497 40.6001 22.8497 40.9001 22.6497 41.1001C22.4997 41.1501 22.3497 41.1501 22.2497 40.9501C22.1997 40.6501 22.3497 40.4001 22.4497 40.1501C22.6497 39.5501 22.8997 38.9501 23.1497 38.3501C23.2997 38.0001 23.5497 37.9001 23.8997 38.1001C24.2497 38.9001 24.5997 39.7501 24.9497 40.6001C24.9997 40.7001 24.9997 40.8001 24.9497 40.9001C24.8497 41.0501 24.7497 41.1001 24.5497 41.0501C24.3497 40.9001 24.3997 40.6001 24.1997 40.4001ZM23.5997 38.6501C23.4497 39.1001 23.2997 39.5001 23.1497 39.9001C23.4497 39.9001 23.7497 39.9001 24.0497 39.9001C23.8997 39.5001 23.7497 39.1001 23.5997 38.6501Z" fill="white"/>
<path d="M31.8495 39.1001C31.7495 39.1501 31.6495 39.1501 31.5495 39.1501C31.4495 39.1001 31.3995 39.0001 31.2995 38.9001C31.0495 38.5001 30.7495 38.4501 30.3495 38.5501C29.9995 38.6501 29.8995 38.9501 29.8495 39.2501C29.7995 39.4001 29.8495 39.5501 29.8495 39.7001C29.8495 40.1001 29.9995 40.4001 30.3495 40.6001C30.4495 40.6001 30.5495 40.6001 30.6495 40.6001C30.9995 40.6501 31.2495 40.4001 31.3495 40.1001C31.3995 40.0001 31.4495 39.9001 31.4995 39.8501C31.5995 39.8501 31.6995 39.8001 31.7995 39.9001C31.8995 40.0501 31.8995 40.2501 31.7995 40.4001C31.5995 40.8001 31.2995 41.0501 30.7995 41.0501C30.5495 41.0501 30.3495 41.0501 30.0995 41.0001C29.5995 40.8501 29.1995 40.3501 29.1995 39.8001C29.1995 39.5001 29.1495 39.2001 29.2495 38.9001C29.4495 38.4001 29.7995 38.1001 30.2995 38.0001C30.8495 37.9001 31.2995 38.0501 31.6495 38.4501C31.8995 38.7001 31.9495 38.9001 31.8495 39.1001Z" fill="white"/>
<path d="M65.0498 25.6001C65.3498 25.6001 65.5998 25.6001 65.8998 25.6001C65.9498 25.9001 65.8998 26.2001 65.9498 26.5001C66.1998 26.5001 66.4498 26.5001 66.7498 26.5001C66.7498 26.7501 66.7498 27.0001 66.7498 27.2001C66.4998 27.2501 66.2498 27.2001 65.9498 27.2501C65.9498 27.8501 65.9498 28.4001 65.9498 29.0001C65.6498 29.0501 65.3498 29.0001 65.0498 29.0001C65.0498 28.0001 65.0498 26.9501 65.0498 25.9501C65.0498 25.8001 65.0498 25.7001 65.0498 25.6001Z" fill="white"/>
<path d="M60.0996 8.20007C60.3496 8.20007 60.5496 8.20007 60.7996 8.20007C60.7996 9.15007 60.7996 10.1001 60.7996 11.1001C61.3996 11.1001 61.9996 11.1001 62.5496 11.1001C62.5496 11.3001 62.5496 11.5001 62.5496 11.7001C62.3496 11.7501 60.4996 11.7501 60.0996 11.7001C60.0996 11.4501 60.0996 8.65007 60.0996 8.20007Z" fill="white"/>
<path d="M28.8499 38.55C28.5999 38.55 28.3499 38.55 28.0999 38.55C28.0499 38.6501 28.0499 38.7001 28.0499 38.8001C28.0499 39.4501 28.0499 40.0501 28.0499 40.7001C28.0499 40.8501 28.0499 41.0001 27.8999 41.1001C27.7999 41.1501 27.6999 41.1501 27.5999 41.1001C27.4499 41.0001 27.4499 40.8501 27.4499 40.7001C27.4499 40.1001 27.4499 39.5001 27.4499 38.8501C27.4499 38.7501 27.4499 38.6501 27.4499 38.55C27.1499 38.55 26.8999 38.55 26.6499 38.55C26.3999 38.3 26.3999 38.3 26.6499 38.05C27.3999 38.05 28.0999 38.05 28.8499 38.05C28.9999 38.1 29.0499 38.2001 28.9999 38.3501C29.0499 38.4501 28.9499 38.5 28.8499 38.55Z" fill="white"/>
<path d="M63.2998 3.1001C63.5498 3.1001 63.7498 3.1001 63.9998 3.1001C63.9998 4.3001 63.9998 5.45009 63.9998 6.65009C63.7498 6.65009 63.5498 6.65009 63.2998 6.65009C63.2998 5.45009 63.2998 4.3001 63.2998 3.1001Z" fill="white"/>
<path d="M85.1997 8.20007C85.4497 8.20007 85.6497 8.20007 85.8997 8.20007C85.8997 9.40007 85.8997 10.5501 85.8997 11.7501C85.6497 11.8001 85.4497 11.7501 85.1997 11.7501C85.1997 10.5501 85.1997 9.35007 85.1997 8.20007Z" fill="white"/>
<path d="M80.1996 11.7501C79.9495 11.7501 79.7495 11.7501 79.4995 11.7501C79.4995 10.5501 79.4995 9.40008 79.4995 8.20007C79.7495 8.20007 79.9495 8.20007 80.1996 8.20007C80.2496 8.40007 80.2496 11.2501 80.1996 11.7501Z" fill="white"/>
<path d="M25.6997 38C25.8497 38 25.9497 38.05 26.0497 38.15C26.0497 39.05 26.0497 40 26.0497 40.95C25.9497 41.1 25.8497 41.15 25.6497 41.1C25.4997 41 25.4497 40.8 25.4497 40.65C25.4497 39.95 25.4497 39.25 25.4497 38.55C25.4997 38.35 25.4997 38.1 25.6997 38Z" fill="white"/>
<path d="M62.6496 5.75006C62.1996 5.75006 61.7496 5.75006 61.2996 5.75006C61.2496 5.50006 61.2996 5.30005 61.2996 5.05005C61.7496 5.05005 62.1996 5.05005 62.6996 5.05005C62.6496 5.25005 62.6496 5.50006 62.6496 5.75006Z" fill="white"/>
<path d="M46.2998 23.3C46.2998 23.05 46.2998 22.85 46.2998 22.65C46.7498 22.65 47.1498 22.65 47.5998 22.65C47.5998 22.85 47.5998 23.1 47.5998 23.3C47.1498 23.3 46.7498 23.3 46.2998 23.3Z" fill="white"/>
<path d="M65.0497 25.6001C65.0497 25.7001 65.0497 25.8001 65.0497 25.9501C65.0497 26.9501 65.0497 28.0001 65.0497 29.0001H64.9997C64.9997 28.3001 64.9997 27.6501 64.9997 26.9501C64.9997 26.8001 64.9997 26.6001 64.9497 26.4501C65.0497 26.4001 64.9997 26.3001 64.9997 26.2501C64.9997 26.0501 64.9997 25.9001 64.9997 25.7001C64.9997 25.6001 64.9997 25.6001 65.0497 25.6001Z" fill="white"/>
</svg>
