<svg width="121" height="35" viewBox="0 0 121 35" fill="none" xmlns="http://www.w3.org/2000/svg">
<path d="M57.2997 9.80002C57.2997 9.85002 57.2497 9.95003 57.1997 10C57.1497 10.05 57.0997 10.1 56.9997 10.1C56.8997 10.1 56.7997 10.05 56.7497 9.95004L56.0997 8.40002H52.4996L51.8496 9.95004C51.7996 10.05 51.7496 10.1 51.5996 10.1C51.4996 10.1 51.4497 10.05 51.3997 10C51.3497 9.95003 51.3496 9.90002 51.3496 9.80002C51.3496 9.75002 51.3497 9.70004 51.3997 9.70004L54.0996 3.35004C54.1496 3.25004 54.2496 3.15002 54.3496 3.15002C54.4496 3.15002 54.5496 3.20004 54.5996 3.35004L57.2997 9.70004C57.2997 9.70004 57.2997 9.75002 57.2997 9.80002ZM55.9497 7.85004L54.3496 4.00003L52.7496 7.85004H55.9497Z" fill="white"/>
<path d="M60.9497 5.45004C60.9497 5.50004 60.9497 5.50003 60.9497 5.50003C60.9497 5.55003 60.8997 5.60002 60.8497 5.65002C60.7997 5.70002 60.7497 5.70004 60.6997 5.70004C60.6497 5.70004 60.5997 5.70004 60.4997 5.70004C60.3997 5.70004 60.3497 5.70004 60.2997 5.70004C59.9997 5.70004 59.7497 5.75002 59.4997 5.90002C59.2497 6.00002 59.0997 6.20002 58.9497 6.40002C58.7997 6.60002 58.7497 6.85002 58.7497 7.15002V9.85004C58.7497 9.95004 58.7497 10 58.6997 10.05C58.6497 10.1 58.5997 10.15 58.4997 10.15C58.3997 10.15 58.3497 10.1 58.2997 10.05C58.2497 10 58.1997 9.95004 58.1997 9.85004V5.50003C58.1997 5.40003 58.2497 5.35002 58.2997 5.30002C58.3497 5.25002 58.3997 5.25003 58.4997 5.25003C58.5997 5.25003 58.6497 5.25002 58.6997 5.30002C58.7497 5.35002 58.7497 5.40003 58.7497 5.50003V6.05002C58.8997 5.80002 59.1497 5.55002 59.3997 5.40002C59.6497 5.25002 59.9497 5.15002 60.2497 5.15002C60.7497 5.15002 60.9497 5.25004 60.9497 5.45004Z" fill="white"/>
<path d="M68.1498 5.40002C68.4498 5.60002 68.6498 5.80002 68.7998 6.15002C68.9498 6.45002 69.0498 6.85003 69.0498 7.25003V9.80002C69.0498 9.90002 69.0498 9.95003 68.9998 10C68.9498 10.05 68.8998 10.1 68.7998 10.1C68.6998 10.1 68.6498 10.05 68.5998 10C68.5498 9.95003 68.4998 9.90002 68.4998 9.80002V7.25003C68.4998 6.80003 68.3998 6.40002 68.1498 6.15002C67.8998 5.85002 67.5998 5.70004 67.1998 5.70004C66.7998 5.70004 66.4498 5.85004 66.1998 6.10004C65.9498 6.35004 65.7998 6.75004 65.8498 7.20004V7.25003V9.80002C65.8498 9.90002 65.8498 9.95003 65.7998 10C65.7498 10.05 65.6998 10.1 65.5998 10.1C65.4998 10.1 65.4498 10.05 65.3998 10C65.3498 9.95003 65.2998 9.90002 65.2998 9.80002V7.25003C65.2998 6.80003 65.1998 6.40002 64.9498 6.15002C64.6998 5.85002 64.3998 5.70004 63.9998 5.70004C63.5998 5.70004 63.2498 5.85004 62.9998 6.10004C62.7498 6.35004 62.5998 6.70004 62.5998 7.10004V9.80002C62.5998 9.90002 62.5998 9.95003 62.5498 10C62.4998 10.05 62.4498 10.1 62.3498 10.1C62.2498 10.1 62.1998 10.05 62.1498 10C62.0998 9.95003 62.0498 9.90002 62.0498 9.80002V5.50003C62.0498 5.40003 62.0998 5.35002 62.1498 5.30002C62.1998 5.25002 62.2498 5.25003 62.3498 5.25003C62.4498 5.25003 62.4998 5.25002 62.5498 5.30002C62.5998 5.35002 62.5998 5.40003 62.5998 5.50003V5.85004C62.7498 5.65004 62.9498 5.45004 63.1998 5.35004C63.4498 5.25004 63.6998 5.15002 63.9998 5.15002C64.3498 5.15002 64.6498 5.25002 64.8998 5.40002C65.1498 5.55002 65.3998 5.80004 65.5498 6.10004C65.6998 5.80004 65.9498 5.55002 66.1998 5.40002C66.4998 5.25002 66.7998 5.15002 67.1498 5.15002C67.5998 5.15002 67.8998 5.25002 68.1498 5.40002Z" fill="white"/>
<path d="M73.7496 5.45006C74.0996 5.65005 74.3496 5.95003 74.5496 6.30003C74.7496 6.65003 74.8496 7.05003 74.8496 7.55003C74.8496 7.65003 74.8496 7.70004 74.7996 7.75004C74.7496 7.80004 74.6996 7.80002 74.5996 7.80002H70.8997C70.8997 8.15002 70.9997 8.45004 71.1497 8.75003C71.2997 9.00003 71.5496 9.25003 71.7996 9.40003C72.0996 9.55003 72.3996 9.65003 72.7496 9.65003C72.9996 9.65003 73.1996 9.60002 73.4496 9.55002C73.6996 9.45002 73.8496 9.35003 73.9996 9.25003C74.0496 9.20003 74.0996 9.20005 74.1996 9.20005C74.2496 9.20005 74.2996 9.20003 74.3496 9.25003C74.3996 9.30003 74.4496 9.35005 74.4496 9.45004C74.4496 9.50004 74.3996 9.55004 74.3496 9.60004C74.1496 9.75004 73.8996 9.90002 73.5996 10.05C73.2996 10.15 72.9996 10.2 72.7496 10.2C72.2996 10.2 71.8496 10.1 71.4996 9.90003C71.1496 9.70003 70.8497 9.40003 70.6497 9.00003C70.4497 8.60003 70.3496 8.20004 70.3496 7.75004C70.3496 7.25004 70.4497 6.85005 70.6497 6.45005C70.8497 6.05005 71.0996 5.80003 71.4496 5.55003C71.7996 5.35003 72.1997 5.25004 72.6497 5.25004C72.9997 5.15004 73.3996 5.25006 73.7496 5.45006ZM71.3997 6.10005C71.0997 6.40005 70.8996 6.80003 70.8496 7.30003H74.2996C74.2496 6.80003 74.0996 6.40005 73.7496 6.10005C73.4496 5.80005 73.0496 5.65004 72.5496 5.65004C72.0996 5.65004 71.6997 5.80005 71.3997 6.10005Z" fill="white"/>
<path d="M79.3497 5.40002C79.6997 5.60002 79.9497 5.85004 80.1497 6.20004C80.3497 6.55004 80.4497 6.95002 80.4497 7.40002V9.80002C80.4497 9.90002 80.3997 9.95003 80.3497 10C80.2997 10.05 80.2497 10.1 80.1497 10.1C80.0497 10.1 79.9997 10.05 79.9497 10C79.8997 9.95003 79.8497 9.90002 79.8497 9.80002V7.40002C79.8497 6.85002 79.6997 6.40004 79.3997 6.10004C79.0997 5.80004 78.6497 5.65002 78.1497 5.65002C77.8497 5.65002 77.5497 5.70004 77.2997 5.85004C77.0497 5.95004 76.8497 6.15004 76.6997 6.35004C76.5497 6.55004 76.4997 6.80002 76.4997 7.05002V9.75003C76.4997 9.85003 76.4997 9.90004 76.4497 9.95004C76.3997 10 76.3497 10.05 76.2497 10.05C76.1497 10.05 76.0997 10 76.0497 9.95004C75.9997 9.90004 75.9497 9.85003 75.9497 9.75003V5.50003C75.9497 5.40003 75.9997 5.35002 76.0497 5.30002C76.0997 5.25002 76.1497 5.25003 76.2497 5.25003C76.3497 5.25003 76.3997 5.25002 76.4497 5.30002C76.4997 5.35002 76.4997 5.40003 76.4997 5.50003V5.95004C76.6997 5.70004 76.9497 5.50004 77.2497 5.35004C77.5497 5.20004 77.8497 5.15002 78.1997 5.15002C78.5997 5.15002 78.9997 5.25002 79.3497 5.40002Z" fill="white"/>
<path d="M82.6498 3.4501C82.7498 3.5001 82.7498 3.60009 82.7498 3.75009C82.7498 3.85009 82.6998 3.95008 82.6498 4.05008C82.5498 4.15008 82.4497 4.15009 82.3497 4.15009C82.2497 4.15009 82.1497 4.10008 82.0497 4.05008C81.9497 3.95008 81.9497 3.85009 81.9497 3.75009C81.9497 3.60009 81.9997 3.5001 82.0497 3.4501C82.1497 3.4001 82.2497 3.3501 82.3497 3.3501C82.4997 3.3501 82.5498 3.4001 82.6498 3.4501ZM82.1497 5.30008C82.1997 5.25008 82.2497 5.25009 82.3497 5.25009C82.4497 5.25009 82.4997 5.25008 82.5497 5.30008C82.5997 5.35008 82.5997 5.40009 82.5997 5.50009V9.80008C82.5997 9.90008 82.5997 9.95009 82.5497 10.0001C82.4997 10.0501 82.4497 10.1001 82.3497 10.1001C82.2497 10.1001 82.1997 10.0501 82.1497 10.0001C82.0997 9.95009 82.0497 9.90008 82.0497 9.80008V5.50009C82.0997 5.40009 82.0997 5.35008 82.1497 5.30008Z" fill="white"/>
<path d="M87.8994 5.49999C88.2994 5.69999 88.5494 5.99998 88.7994 6.39999C88.9994 6.79999 89.0994 7.19999 89.0994 7.64999V9.79999C89.0994 9.89999 89.0994 9.95 89.0494 10C88.9994 10.05 88.9494 10.1 88.8494 10.1C88.7494 10.1 88.6994 10.05 88.6494 10C88.5994 9.95 88.5494 9.89999 88.5494 9.79999V9.1C88.3494 9.4 88.0994 9.65001 87.7494 9.85001C87.3994 10.05 87.0494 10.1 86.5994 10.1C86.1494 10.1 85.6994 9.99999 85.3494 9.79999C84.9494 9.59999 84.6494 9.29999 84.4494 8.89999C84.2494 8.49999 84.1494 8.09999 84.1494 7.64999C84.1494 7.19999 84.2494 6.74999 84.4494 6.39999C84.6494 5.99998 84.9494 5.69999 85.3494 5.49999C85.7494 5.29999 86.1494 5.2 86.5994 5.2C87.0994 5.15 87.4994 5.24999 87.8994 5.49999ZM87.5994 9.35C87.8994 9.2 88.1494 8.94999 88.2994 8.64999C88.4494 8.34999 88.5494 7.99999 88.5494 7.64999C88.5494 7.29999 88.4494 6.94999 88.2994 6.64999C88.1494 6.34999 87.8994 6.1 87.5994 5.95C87.2994 5.8 86.9494 5.7 86.5994 5.7C86.2494 5.7 85.8994 5.8 85.5994 5.95C85.2994 6.1 85.0494 6.34999 84.8994 6.64999C84.7494 6.94999 84.6494 7.29999 84.6494 7.64999C84.6494 7.99999 84.7494 8.34999 84.8994 8.64999C85.0494 8.94999 85.2994 9.2 85.5994 9.35C85.8994 9.5 86.2494 9.60001 86.5994 9.60001C86.9994 9.60001 87.2994 9.55 87.5994 9.35Z" fill="white"/>
<path d="M57.1499 14.3C57.1999 14.25 57.2498 14.2001 57.3499 14.2001C57.3999 14.2001 57.4999 14.25 57.5499 14.3C57.5999 14.35 57.6499 14.4001 57.6499 14.5001V20.9001C57.6499 21.0001 57.5999 21.0501 57.5499 21.1001C57.4999 21.1501 57.4499 21.2001 57.3499 21.2001C57.2498 21.2001 57.1999 21.1501 57.1499 21.1001L52.6498 15.2501V20.9501C52.6498 21.0501 52.5998 21.1001 52.5498 21.1501C52.4998 21.2001 52.4498 21.2501 52.3498 21.2501C52.2498 21.2501 52.1998 21.2001 52.1498 21.1501C52.0998 21.1001 52.0498 21.0501 52.0498 20.9501V14.5001C52.0498 14.4001 52.0998 14.35 52.1498 14.3C52.1998 14.25 52.2498 14.2001 52.3498 14.2001C52.4498 14.2001 52.4998 14.25 52.5498 14.3L57.0499 20.1501V14.5001C57.0499 14.4001 57.0999 14.35 57.1499 14.3Z" fill="white"/>
<path d="M62.75 16.55C63.1501 16.75 63.4001 17.05 63.6501 17.45C63.8501 17.85 63.9501 18.25 63.9501 18.7V20.85C63.9501 20.95 63.9501 21 63.9001 21.05C63.8501 21.1 63.8001 21.15 63.7001 21.15C63.6001 21.15 63.5501 21.1 63.5001 21.05C63.4501 21 63.4001 20.95 63.4001 20.85V20.15C63.2001 20.45 62.95 20.7 62.6 20.9C62.25 21.1 61.9 21.15 61.45 21.15C61 21.15 60.55 21.05 60.2 20.85C59.8 20.65 59.5 20.35 59.3 19.95C59.1 19.55 59 19.15 59 18.7C59 18.25 59.1 17.8 59.3 17.45C59.5 17.05 59.8 16.8 60.2 16.55C60.6 16.35 61 16.25 61.45 16.25C61.95 16.25 62.35 16.35 62.75 16.55ZM62.5 20.45C62.8 20.3 63.0501 20.05 63.2001 19.75C63.3501 19.45 63.4501 19.1 63.4501 18.75C63.4501 18.4 63.3501 18.05 63.2001 17.75C63.0501 17.45 62.8 17.2 62.5 17.05C62.2 16.9 61.85 16.8 61.5 16.8C61.15 16.8 60.8 16.9 60.5 17.05C60.2 17.2 59.95 17.45 59.8 17.75C59.65 18.05 59.55 18.4 59.55 18.75C59.55 19.1 59.65 19.45 59.8 19.75C59.95 20.05 60.2 20.3 60.5 20.45C60.8 20.6 61.15 20.7 61.5 20.7C61.85 20.7 62.2 20.6 62.5 20.45Z" fill="white"/>
<path d="M67.7001 20.6501C67.7501 20.7001 67.8 20.7501 67.8 20.8501C67.8 20.9501 67.7501 21 67.7001 21.05C67.6501 21.1 67.6001 21.1501 67.5001 21.1501H67.3C66.95 21.1501 66.7001 21.1001 66.45 20.9501C66.2 20.8001 66 20.6001 65.85 20.3501C65.7 20.1001 65.65 19.8001 65.65 19.5001V17.0001H64.95C64.9 17.0001 64.8 17.0001 64.8 16.9501C64.75 16.9001 64.75 16.85 64.75 16.8C64.75 16.75 64.75 16.6501 64.8 16.6501C64.85 16.6001 64.9 16.6001 64.95 16.6001H65.65V15.0001C65.65 14.9001 65.7 14.85 65.75 14.8C65.8 14.75 65.85 14.7001 65.95 14.7001C66.05 14.7001 66.1001 14.75 66.1501 14.8C66.2001 14.85 66.25 14.9001 66.25 15.0001V16.4501H67.4001C67.4501 16.4501 67.55 16.4501 67.55 16.5001C67.6 16.5501 67.6 16.6001 67.6 16.6501C67.6 16.7001 67.6 16.8 67.55 16.8C67.5 16.85 67.4501 16.8501 67.4001 16.8501H66.25V19.3501C66.25 19.7001 66.35 19.9501 66.55 20.2001C66.75 20.4001 67.05 20.5001 67.35 20.5001H67.55C67.55 20.6001 67.6501 20.6001 67.7001 20.6501Z" fill="white"/>
<path d="M69.5994 14.55C69.6994 14.6 69.6995 14.7001 69.6995 14.8501C69.6995 14.9501 69.6494 15.0501 69.5994 15.1501C69.4994 15.2501 69.3994 15.2501 69.2994 15.2501C69.1994 15.2501 69.0994 15.2001 68.9994 15.1501C68.8994 15.0501 68.8994 14.9501 68.8994 14.8501C68.8994 14.7001 68.9494 14.6 68.9994 14.55C69.0994 14.5 69.1994 14.4501 69.2994 14.4501C69.3994 14.4501 69.4994 14.5 69.5994 14.55ZM69.0994 16.3501C69.1494 16.3001 69.1994 16.3 69.2994 16.3C69.3994 16.3 69.4494 16.3001 69.4994 16.3501C69.5494 16.4001 69.5494 16.45 69.5494 16.55V20.8501C69.5494 20.9501 69.5494 21 69.4994 21.05C69.4494 21.1 69.3994 21.1501 69.2994 21.1501C69.1994 21.1501 69.1494 21.1 69.0994 21.05C69.0494 21 68.9994 20.9501 68.9994 20.8501V16.55C69.0494 16.45 69.0494 16.4001 69.0994 16.3501Z" fill="white"/>
<path d="M74.7996 16.55C75.1996 16.75 75.4496 17.05 75.6996 17.45C75.8996 17.85 75.9996 18.25 75.9996 18.7C75.9996 19.15 75.8996 19.6 75.6996 19.95C75.4996 20.35 75.1996 20.65 74.7996 20.85C74.3996 21.05 73.9996 21.15 73.5496 21.15C73.0996 21.15 72.6496 21.05 72.2996 20.85C71.8996 20.65 71.5997 20.35 71.3997 19.95C71.1997 19.55 71.0996 19.15 71.0996 18.7C71.0996 18.25 71.1997 17.8 71.3997 17.45C71.5997 17.05 71.8996 16.8 72.2996 16.55C72.6996 16.35 73.0996 16.25 73.5496 16.25C73.9996 16.25 74.4496 16.35 74.7996 16.55ZM72.5496 17C72.2496 17.15 71.9996 17.4 71.8496 17.7C71.6996 18 71.5996 18.35 71.5996 18.7C71.5996 19.05 71.6996 19.4 71.8496 19.7C71.9996 20 72.2496 20.25 72.5496 20.4C72.8496 20.55 73.1996 20.65 73.5496 20.65C73.8996 20.65 74.2496 20.55 74.5496 20.4C74.8496 20.25 75.0996 20 75.2496 19.7C75.3996 19.4 75.4996 19.05 75.4996 18.7C75.4996 18.35 75.3996 18 75.2496 17.7C75.0996 17.4 74.8496 17.15 74.5496 17C74.2496 16.85 73.8996 16.75 73.5496 16.75C73.1996 16.75 72.8496 16.8 72.5496 17Z" fill="white"/>
<path d="M80.7496 16.5001C81.0996 16.7001 81.3496 16.95 81.5496 17.3C81.7496 17.65 81.8496 18.0501 81.8496 18.5001V20.9001C81.8496 21.0001 81.7996 21.0501 81.7496 21.1001C81.6996 21.1501 81.6496 21.2001 81.5496 21.2001C81.4496 21.2001 81.3996 21.1501 81.3496 21.1001C81.2996 21.0501 81.2496 21.0001 81.2496 20.9001V18.5001C81.2496 17.9501 81.0996 17.5001 80.7996 17.2001C80.4996 16.9001 80.0496 16.7501 79.5496 16.7501C79.2496 16.7501 78.9496 16.8001 78.6996 16.9501C78.4496 17.0501 78.2496 17.2501 78.0996 17.4501C77.9496 17.6501 77.8997 17.9001 77.8997 18.1501V20.8501C77.8997 20.9501 77.8996 21 77.8496 21.05C77.7996 21.1 77.7497 21.1501 77.6497 21.1501C77.5497 21.1501 77.4996 21.1 77.4496 21.05C77.3996 21 77.3496 20.9501 77.3496 20.8501V16.55C77.3496 16.45 77.3996 16.4001 77.4496 16.3501C77.4996 16.3001 77.5497 16.3 77.6497 16.3C77.7497 16.3 77.7996 16.3001 77.8496 16.3501C77.8996 16.4001 77.8997 16.45 77.8997 16.55V17.0001C78.0997 16.7501 78.3497 16.5501 78.6497 16.4001C78.9497 16.2501 79.2496 16.2001 79.5996 16.2001C79.9996 16.2501 80.3996 16.3001 80.7496 16.5001Z" fill="white"/>
<path d="M86.7999 16.55C87.1999 16.75 87.4499 17.05 87.6999 17.45C87.8999 17.85 87.9999 18.25 87.9999 18.7V20.85C87.9999 20.95 87.9999 21 87.9499 21.05C87.8999 21.1 87.8499 21.15 87.7499 21.15C87.6499 21.15 87.5999 21.1 87.5499 21.05C87.4999 21 87.4499 20.95 87.4499 20.85V20.15C87.2499 20.45 86.9999 20.7 86.6499 20.9C86.2999 21.1 85.9499 21.15 85.4998 21.15C85.0498 21.15 84.5998 21.05 84.2498 20.85C83.8498 20.65 83.5498 20.35 83.3498 19.95C83.1498 19.55 83.0498 19.15 83.0498 18.7C83.0498 18.25 83.1498 17.8 83.3498 17.45C83.5498 17.05 83.8498 16.8 84.2498 16.55C84.6498 16.35 85.0498 16.25 85.4998 16.25C85.9999 16.25 86.4498 16.35 86.7999 16.55ZM86.5498 20.45C86.8499 20.3 87.0999 20.05 87.2499 19.75C87.3999 19.45 87.4999 19.1 87.4999 18.75C87.4999 18.4 87.3999 18.05 87.2499 17.75C87.0999 17.45 86.8499 17.2 86.5498 17.05C86.2498 16.9 85.8998 16.8 85.5498 16.8C85.1998 16.8 84.8498 16.9 84.5498 17.05C84.2498 17.2 83.9998 17.45 83.8498 17.75C83.6998 18.05 83.5998 18.4 83.5998 18.75C83.5998 19.1 83.6998 19.45 83.8498 19.75C83.9998 20.05 84.2498 20.3 84.5498 20.45C84.8498 20.6 85.1998 20.7 85.5498 20.7C85.8998 20.7 86.2498 20.6 86.5498 20.45Z" fill="white"/>
<path d="M89.2496 14.3C89.2996 14.25 89.3497 14.25 89.4497 14.25C89.5497 14.25 89.5997 14.25 89.6497 14.3C89.6997 14.35 89.6997 14.4 89.6997 14.5V19.7C89.6997 19.95 89.7496 20.2 89.8496 20.35C89.9496 20.5 90.0997 20.6 90.2997 20.6H90.4997C90.5497 20.6 90.5997 20.6 90.6497 20.65C90.6997 20.7 90.6997 20.75 90.6997 20.85C90.6997 20.95 90.6997 21 90.6497 21.05C90.5997 21.1 90.5497 21.15 90.4497 21.15H90.2497C89.8997 21.15 89.6497 21 89.3997 20.75C89.1997 20.5 89.0996 20.15 89.0996 19.7V14.5C89.1496 14.4 89.1996 14.35 89.2496 14.3Z" fill="white"/>
<path d="M97.5994 14.4501C97.9494 14.6501 98.2495 14.9001 98.3995 15.2001C98.3995 15.2501 98.4495 15.3 98.4495 15.35C98.4495 15.4 98.4495 15.45 98.3995 15.5C98.3495 15.55 98.3494 15.55 98.2994 15.6C98.2994 15.6 98.2495 15.6 98.1995 15.6C98.0995 15.6 97.9995 15.5501 97.9495 15.4501C97.5994 14.9501 97.0994 14.7001 96.4494 14.7001C95.9494 14.7001 95.5994 14.8 95.2994 15.05C95.0494 15.25 94.8994 15.6 94.8994 16C94.8994 16.35 95.0494 16.6 95.2994 16.85C95.5494 17.05 95.9994 17.25 96.5494 17.35C97.2994 17.45 97.8495 17.7 98.1995 18.05C98.5495 18.4 98.6995 18.8 98.6995 19.35C98.6995 19.75 98.5995 20.1 98.4495 20.4C98.2495 20.7 97.9995 20.95 97.6994 21.1C97.3494 21.25 96.9994 21.35 96.5494 21.35C95.9994 21.35 95.4994 21.25 95.0994 21C94.6994 20.75 94.3994 20.45 94.1994 20.05C94.1994 20 94.1494 20 94.1494 19.95C94.1494 19.9 94.1994 19.8 94.2494 19.75C94.2994 19.7 94.3494 19.7 94.4494 19.7C94.5494 19.7 94.6494 19.75 94.6994 19.85C94.8494 20.15 95.0994 20.35 95.3994 20.55C95.6994 20.7 96.0994 20.8 96.5494 20.8C97.0494 20.8 97.4494 20.65 97.7494 20.4C98.0494 20.15 98.1995 19.8 98.1995 19.3C98.1995 18.9 98.0494 18.55 97.7494 18.3C97.4494 18.05 97.0494 17.85 96.4994 17.8C95.8494 17.7 95.3494 17.5 94.9494 17.15C94.5494 16.8 94.3994 16.4001 94.3994 15.9501C94.3994 15.6001 94.4994 15.3 94.6494 15.05C94.7994 14.8 95.0494 14.6001 95.3994 14.4501C95.6994 14.3001 96.0994 14.25 96.4994 14.25C96.8494 14.15 97.2494 14.2501 97.5994 14.4501Z" fill="white"/>
<path d="M103.8 14.6501C104.35 14.9501 104.75 15.3501 105.05 15.9001C105.35 16.4001 105.5 17.0001 105.5 17.7001C105.5 18.3501 105.35 18.9501 105.05 19.5001C104.75 20.0501 104.35 20.4501 103.8 20.7501C103.25 21.0501 102.7 21.2001 102 21.2001H100.4C100.3 21.2001 100.25 21.1501 100.2 21.1001C100.15 21.0501 100.1 21.0001 100.1 20.9001V14.5001C100.1 14.4001 100.15 14.3501 100.2 14.3001C100.25 14.2501 100.3 14.2501 100.4 14.2501H102C102.65 14.2001 103.25 14.3501 103.8 14.6501ZM103.5 20.2501C103.95 20.0001 104.3 19.6501 104.55 19.2001C104.8 18.7501 104.95 18.2501 104.95 17.6501C104.95 17.0501 104.8 16.5501 104.55 16.1001C104.3 15.6501 103.95 15.3001 103.5 15.0501C103.05 14.8001 102.55 14.6501 102 14.6501H100.65V20.6001H102C102.55 20.6501 103.05 20.5501 103.5 20.2501Z" fill="white"/>
<path d="M111.999 17.85C112.049 17.9 112.099 17.95 112.099 18.05V20.3C112.099 20.35 112.099 20.4 112.099 20.4C112.099 20.45 112.099 20.45 112.049 20.5C111.549 21 110.799 21.25 109.849 21.25C109.249 21.25 108.649 21.1 108.099 20.75C107.549 20.45 107.149 20 106.849 19.45C106.549 18.9 106.399 18.3 106.399 17.7C106.399 17.05 106.549 16.5 106.849 15.95C107.149 15.4 107.599 14.95 108.099 14.65C108.649 14.35 109.199 14.15 109.849 14.15C110.699 14.15 111.399 14.4 112.049 14.95C112.099 15 112.149 15.05 112.149 15.15C112.149 15.2 112.149 15.3 112.099 15.35C112.049 15.4 111.999 15.45 111.899 15.45C111.849 15.45 111.749 15.4 111.699 15.35C111.249 14.95 110.649 14.75 109.899 14.75C109.399 14.75 108.899 14.9 108.449 15.15C107.999 15.45 107.649 15.8 107.349 16.25C107.099 16.7 106.949 17.2 106.949 17.75C106.949 18.3 107.099 18.8 107.349 19.25C107.599 19.7 107.949 20.1 108.399 20.35C108.849 20.6 109.349 20.75 109.849 20.75C110.499 20.75 111.049 20.55 111.549 20.2V18.3H110.049C109.949 18.3 109.899 18.3 109.849 18.25C109.799 18.2 109.749 18.15 109.749 18.05C109.749 18 109.799 17.95 109.849 17.9C109.899 17.85 109.949 17.85 110.049 17.85H111.799C111.849 17.75 111.949 17.8 111.999 17.85Z" fill="white"/>
<path d="M52.1998 25.4C52.2998 25.3 52.3998 25.25 52.5498 25.25C52.6998 25.25 52.7998 25.3 52.8998 25.4C52.9998 25.5 53.0498 25.6 53.0498 25.75V31.75C53.0498 31.9 52.9998 32 52.8998 32.1C52.7998 32.2 52.6998 32.25 52.5498 32.25C52.3998 32.25 52.2998 32.2 52.1998 32.1C52.0998 32 52.0498 31.9 52.0498 31.75V25.75C52.0998 25.6 52.1498 25.5 52.1998 25.4Z" fill="white"/>
<path d="M58.1994 27.6001C58.4995 27.8001 58.7995 28.0501 58.9495 28.4001C59.1495 28.7501 59.1995 29.1501 59.1995 29.6501V31.8501C59.1995 32.0001 59.1494 32.1001 59.0494 32.1501C58.9494 32.2501 58.8494 32.3 58.7494 32.3C58.5994 32.3 58.4995 32.2501 58.4495 32.1501C58.3495 32.0501 58.2994 31.9501 58.2994 31.8501V29.6501C58.2994 29.1501 58.1495 28.8001 57.8995 28.5501C57.6495 28.3001 57.2994 28.2001 56.8994 28.2001C56.6494 28.2001 56.4494 28.2501 56.1994 28.3501C55.9994 28.4501 55.8494 28.6001 55.6994 28.7501C55.5994 28.9001 55.5494 29.1001 55.5494 29.3501V31.8501C55.5494 32.0001 55.4994 32.1001 55.4494 32.1501C55.3494 32.2501 55.2494 32.3 55.0994 32.3C54.9494 32.3 54.8494 32.2501 54.7994 32.1501C54.6994 32.0501 54.6494 31.9501 54.6494 31.8501V27.9001C54.6494 27.7501 54.6994 27.6501 54.7994 27.5501C54.8994 27.4501 54.9994 27.4501 55.0994 27.4501C55.2494 27.4501 55.3494 27.5001 55.4494 27.5501C55.5494 27.6501 55.5494 27.7501 55.5494 27.9001V28.0001C55.7494 27.8001 55.9494 27.6501 56.1994 27.5501C56.4494 27.4501 56.7494 27.4001 57.0494 27.4001C57.4994 27.3001 57.8994 27.4001 58.1994 27.6001Z" fill="white"/>
<path d="M64.2497 27.6001C64.5497 27.8001 64.8498 28.0501 64.9998 28.4001C65.1998 28.7501 65.2498 29.1501 65.2498 29.6501V31.8501C65.2498 32.0001 65.1997 32.1001 65.0997 32.1501C64.9997 32.2501 64.8997 32.3 64.7997 32.3C64.6497 32.3 64.5497 32.2501 64.4997 32.1501C64.3997 32.0501 64.3497 31.9501 64.3497 31.8501V29.6501C64.3497 29.1501 64.1998 28.8001 63.9498 28.5501C63.6997 28.3001 63.3497 28.2001 62.9497 28.2001C62.6997 28.2001 62.4997 28.2501 62.2497 28.3501C62.0497 28.4501 61.8997 28.6001 61.7497 28.7501C61.6497 28.9001 61.5997 29.1001 61.5997 29.3501V31.8501C61.5997 32.0001 61.5497 32.1001 61.4997 32.1501C61.3997 32.2501 61.2997 32.3 61.1497 32.3C60.9997 32.3 60.8997 32.2501 60.8497 32.1501C60.7497 32.0501 60.6997 31.9501 60.6997 31.8501V27.9001C60.6997 27.7501 60.7497 27.6501 60.8497 27.5501C60.9497 27.4501 61.0497 27.4501 61.1497 27.4501C61.2997 27.4501 61.3997 27.5001 61.4997 27.5501C61.5997 27.6501 61.5997 27.7501 61.5997 27.9001V28.0001C61.7997 27.8001 61.9997 27.6501 62.2497 27.5501C62.4997 27.4501 62.7997 27.4001 63.0997 27.4001C63.5497 27.3001 63.8997 27.4001 64.2497 27.6001Z" fill="white"/>
<path d="M70.2496 27.6501C70.5996 27.8501 70.8996 28.1501 71.0996 28.5001C71.2996 28.8501 71.3997 29.3001 71.3997 29.8001C71.3997 30.2501 71.2996 30.7001 71.0996 31.0501C70.8996 31.4001 70.5996 31.7001 70.2496 31.9001C69.8996 32.1001 69.4496 32.2001 68.9996 32.2001C68.5496 32.2001 68.0996 32.1001 67.7496 31.9001C67.3996 31.7001 67.0997 31.4001 66.8997 31.0501C66.6997 30.7001 66.5996 30.2501 66.5996 29.8001C66.5996 29.3001 66.6997 28.9001 66.8997 28.5001C67.0997 28.1501 67.3996 27.8501 67.7496 27.6501C68.0996 27.4501 68.5496 27.3501 68.9996 27.3501C69.4496 27.3501 69.8496 27.4501 70.2496 27.6501ZM68.1497 28.3501C67.8997 28.5001 67.6996 28.7001 67.5996 28.9501C67.4496 29.2001 67.3997 29.5001 67.3997 29.8001C67.3997 30.1001 67.4496 30.4001 67.5996 30.6501C67.7496 30.9001 67.8997 31.1001 68.1497 31.2501C68.3997 31.4001 68.6496 31.4501 68.9496 31.4501C69.2496 31.4501 69.4996 31.4001 69.7496 31.2501C69.9996 31.1001 70.1996 30.9001 70.2996 30.6501C70.4496 30.4001 70.4996 30.1001 70.4996 29.8001C70.4996 29.5001 70.4496 29.2001 70.2996 28.9501C70.1496 28.7001 69.9996 28.5001 69.7496 28.3501C69.4996 28.2001 69.2496 28.1501 68.9496 28.1501C68.6996 28.1501 68.3997 28.2001 68.1497 28.3501Z" fill="white"/>
<path d="M76.3997 27.6C76.4497 27.65 76.4497 27.75 76.4497 27.8C76.4497 27.85 76.4497 27.9 76.3997 27.95L74.4997 31.9C74.3997 32.1 74.2997 32.2 74.0997 32.2C73.9997 32.2 73.8997 32.2 73.8497 32.15C73.7997 32.1 73.7497 32.05 73.6497 31.9L71.7497 27.95C71.7497 27.9 71.6997 27.85 71.6997 27.8C71.6997 27.65 71.7997 27.5 71.9497 27.45C71.9997 27.4 72.0497 27.4 72.1497 27.4C72.1997 27.4 72.2997 27.4 72.3497 27.45C72.3997 27.5 72.4497 27.55 72.4997 27.6L74.0497 30.9L75.5497 27.6C75.5997 27.55 75.6497 27.45 75.6997 27.45C75.7497 27.4 75.8497 27.4 75.8997 27.4C75.9997 27.4 76.0497 27.4 76.0997 27.45C76.2997 27.45 76.3497 27.5 76.3997 27.6Z" fill="white"/>
<path d="M80.5997 27.6501C80.9497 27.8501 81.2497 28.1501 81.4997 28.5501C81.6997 28.9501 81.7997 29.3501 81.7997 29.8001V31.8001C81.7997 31.9501 81.7497 32.0501 81.6497 32.1001C81.5497 32.2001 81.4497 32.2501 81.3497 32.2501C81.1997 32.2501 81.0997 32.2001 81.0497 32.1001C80.9497 32.0001 80.8997 31.9001 80.8997 31.8001V31.4501C80.6997 31.7001 80.4497 31.9001 80.1497 32.0501C79.8497 32.2001 79.5497 32.2501 79.1997 32.2501C78.7497 32.2501 78.3997 32.1501 78.0497 31.9501C77.6997 31.7501 77.4497 31.4501 77.2497 31.0501C77.0497 30.6501 76.9497 30.2501 76.9497 29.8001C76.9497 29.3501 77.0497 28.9001 77.2497 28.5501C77.4497 28.1501 77.7497 27.9001 78.1497 27.6501C78.5497 27.4501 78.9497 27.3501 79.3997 27.3501C79.8497 27.3501 80.2497 27.4501 80.5997 27.6501ZM80.1997 31.2501C80.4497 31.1001 80.6497 30.9001 80.7497 30.6501C80.8997 30.4001 80.9497 30.1001 80.9497 29.8001C80.9497 29.5001 80.8997 29.2001 80.7497 28.9501C80.5997 28.7001 80.4497 28.5001 80.1997 28.3501C79.9497 28.2001 79.6997 28.1501 79.3997 28.1501C79.0997 28.1501 78.8497 28.2001 78.5997 28.3501C78.3497 28.5001 78.1497 28.7001 78.0497 28.9501C77.8997 29.2001 77.8497 29.5001 77.8497 29.8001C77.8497 30.1001 77.8997 30.4001 78.0497 30.6501C78.1997 30.9001 78.3997 31.1001 78.5997 31.2501C78.8497 31.4001 79.0997 31.4501 79.3997 31.4501C79.6997 31.4501 79.9497 31.4001 80.1997 31.2501Z" fill="white"/>
<path d="M85.4999 31.45C85.5499 31.55 85.5999 31.65 85.5999 31.75C85.5999 31.9 85.5499 32 85.4499 32.05C85.3499 32.15 85.2499 32.15 85.0499 32.15H84.8999C84.5999 32.15 84.3498 32.05 84.0998 31.9C83.8498 31.75 83.6498 31.55 83.5498 31.3C83.3998 31.05 83.3498 30.75 83.3498 30.4V28.2H82.9498C82.8498 28.2 82.7498 28.15 82.6498 28.1C82.5498 28.05 82.5498 27.95 82.5498 27.85C82.5498 27.75 82.5998 27.65 82.6498 27.55C82.7498 27.5 82.8498 27.45 82.9498 27.45H83.3498V26.15C83.3498 26 83.3998 25.9 83.4498 25.85C83.5498 25.75 83.6498 25.75 83.7498 25.75C83.8998 25.75 83.9998 25.8 84.0498 25.85C84.1498 25.95 84.1499 26.05 84.1499 26.15V27.45H84.8999C84.9999 27.45 85.0999 27.5 85.1999 27.55C85.2999 27.6 85.2999 27.7 85.2999 27.85C85.2999 27.95 85.2499 28.05 85.1999 28.1C85.1499 28.15 84.9999 28.2 84.8999 28.2H84.1499V30.4C84.1499 30.65 84.1998 30.85 84.3498 31C84.4998 31.15 84.6498 31.25 84.8498 31.25H85.1499C85.3499 31.35 85.3999 31.35 85.4999 31.45Z" fill="white"/>
<path d="M87.6497 25.6C87.7497 25.7 87.7997 25.85 87.7997 26C87.7997 26.15 87.7497 26.3 87.6497 26.4C87.5497 26.5 87.3997 26.55 87.2497 26.55C87.0997 26.55 86.9497 26.5 86.8497 26.4C86.7497 26.3 86.6997 26.15 86.6997 26C86.6997 25.85 86.7497 25.7 86.8497 25.6C86.9497 25.5 87.0997 25.45 87.2497 25.45C87.3997 25.4 87.5497 25.45 87.6497 25.6ZM86.9497 27.5C87.0497 27.4 87.1497 27.4 87.2497 27.4C87.3997 27.4 87.4997 27.45 87.5997 27.5C87.6997 27.6 87.6997 27.7 87.6997 27.85V31.8C87.6997 31.95 87.6497 32.05 87.5997 32.1C87.4997 32.2 87.3997 32.25 87.2497 32.25C87.0997 32.25 86.9997 32.2 86.9497 32.1C86.8497 32 86.7997 31.9 86.7997 31.8V27.85C86.7997 27.7 86.8497 27.55 86.9497 27.5Z" fill="white"/>
<path d="M92.8497 27.6501C93.1997 27.8501 93.4998 28.1501 93.6998 28.5001C93.8998 28.8501 93.9998 29.3001 93.9998 29.8001C93.9998 30.2501 93.8998 30.7001 93.6998 31.0501C93.4998 31.4001 93.1997 31.7001 92.8497 31.9001C92.4997 32.1001 92.0497 32.2001 91.5997 32.2001C91.1497 32.2001 90.6997 32.1001 90.3497 31.9001C89.9997 31.7001 89.6997 31.4001 89.4997 31.0501C89.2997 30.7001 89.1997 30.2501 89.1997 29.8001C89.1997 29.3001 89.2997 28.9001 89.4997 28.5001C89.6997 28.1501 89.9997 27.8501 90.3497 27.6501C90.6997 27.4501 91.1497 27.3501 91.5997 27.3501C92.0497 27.3501 92.4497 27.4501 92.8497 27.6501ZM90.7997 28.3501C90.5497 28.5001 90.3497 28.7001 90.2497 28.9501C90.0997 29.2001 90.0497 29.5001 90.0497 29.8001C90.0497 30.1001 90.0997 30.4001 90.2497 30.6501C90.3997 30.9001 90.5497 31.1001 90.7997 31.2501C91.0497 31.4001 91.2997 31.4501 91.5997 31.4501C91.8997 31.4501 92.1498 31.4001 92.3998 31.2501C92.6498 31.1001 92.8498 30.9001 92.9498 30.6501C93.0998 30.4001 93.1498 30.1001 93.1498 29.8001C93.1498 29.5001 93.0998 29.2001 92.9498 28.9501C92.7998 28.7001 92.6498 28.5001 92.3998 28.3501C92.1498 28.2001 91.8997 28.1501 91.5997 28.1501C91.2997 28.1501 90.9997 28.2001 90.7997 28.3501Z" fill="white"/>
<path d="M98.8997 27.6001C99.1997 27.8001 99.4997 28.0501 99.6497 28.4001C99.8497 28.7501 99.8997 29.1501 99.8997 29.6501V31.8501C99.8997 32.0001 99.8496 32.1001 99.7496 32.1501C99.6496 32.2501 99.5496 32.3 99.4496 32.3C99.2996 32.3 99.1997 32.2501 99.1497 32.1501C99.0497 32.0501 98.9996 31.9501 98.9996 31.8501V29.6501C98.9996 29.1501 98.8496 28.8001 98.5996 28.5501C98.3496 28.3001 97.9996 28.2001 97.5996 28.2001C97.3496 28.2001 97.1497 28.2501 96.8997 28.3501C96.6997 28.4501 96.5497 28.6001 96.3997 28.7501C96.2997 28.9001 96.2496 29.1001 96.2496 29.3501V31.8501C96.2496 32.0001 96.1997 32.1001 96.1497 32.1501C96.0497 32.2501 95.9496 32.3 95.7996 32.3C95.6496 32.3 95.5496 32.2501 95.4996 32.1501C95.3996 32.0501 95.3496 31.9501 95.3496 31.8501V27.9001C95.3496 27.7501 95.3996 27.6501 95.4996 27.5501C95.5996 27.4501 95.6996 27.4501 95.7996 27.4501C95.9496 27.4501 96.0497 27.5001 96.1497 27.5501C96.2497 27.6501 96.2496 27.7501 96.2496 27.9001V28.0001C96.4496 27.8001 96.6497 27.6501 96.8997 27.5501C97.1497 27.4501 97.4496 27.4001 97.7496 27.4001C98.1996 27.3001 98.5497 27.4001 98.8997 27.6001Z" fill="white"/>
<path d="M108.55 31.4501C108.65 31.5501 108.7 31.65 108.7 31.8C108.7 31.95 108.65 32.0501 108.55 32.1501C108.45 32.2501 108.35 32.3 108.2 32.3H104.55C104.4 32.3 104.3 32.2501 104.25 32.1501C104.15 32.0501 104.1 31.95 104.1 31.8V25.8C104.1 25.65 104.15 25.5501 104.25 25.4501C104.35 25.3501 104.45 25.3 104.55 25.3C104.7 25.3 104.8 25.3501 104.9 25.4501C105 25.5501 105.05 25.65 105.05 25.8V31.3501H108.25C108.35 31.3001 108.45 31.3501 108.55 31.4501Z" fill="white"/>
<path d="M113.15 27.6501C113.5 27.8501 113.8 28.1501 114.05 28.5501C114.25 28.9501 114.35 29.3501 114.35 29.8001V31.8001C114.35 31.9501 114.3 32.0501 114.2 32.1001C114.1 32.2001 114 32.2501 113.9 32.2501C113.75 32.2501 113.65 32.2001 113.6 32.1001C113.5 32.0001 113.45 31.9001 113.45 31.8001V31.4501C113.25 31.7001 113 31.9001 112.7 32.0501C112.4 32.2001 112.1 32.2501 111.75 32.2501C111.3 32.2501 110.95 32.1501 110.6 31.9501C110.25 31.7501 110 31.4501 109.8 31.0501C109.6 30.6501 109.5 30.2501 109.5 29.8001C109.5 29.3501 109.6 28.9001 109.8 28.5501C110 28.1501 110.3 27.9001 110.7 27.6501C111.1 27.4501 111.5 27.3501 111.95 27.3501C112.35 27.3501 112.75 27.4501 113.15 27.6501ZM112.7 31.2501C112.95 31.1001 113.15 30.9001 113.25 30.6501C113.4 30.4001 113.45 30.1001 113.45 29.8001C113.45 29.5001 113.4 29.2001 113.25 28.9501C113.1 28.7001 112.95 28.5001 112.7 28.3501C112.45 28.2001 112.2 28.1501 111.9 28.1501C111.6 28.1501 111.35 28.2001 111.1 28.3501C110.85 28.5001 110.65 28.7001 110.55 28.9501C110.4 29.2001 110.35 29.5001 110.35 29.8001C110.35 30.1001 110.4 30.4001 110.55 30.6501C110.7 30.9001 110.9 31.1001 111.1 31.2501C111.35 31.4001 111.6 31.4501 111.9 31.4501C112.2 31.4501 112.45 31.4001 112.7 31.2501Z" fill="white"/>
<path d="M116.149 25.3C116.299 25.3 116.399 25.3501 116.449 25.4001C116.549 25.5001 116.599 25.6001 116.599 25.7501V28.1501C116.799 27.9001 117.049 27.7 117.349 27.55C117.649 27.4 117.949 27.3501 118.299 27.3501C118.749 27.3501 119.099 27.4501 119.449 27.6501C119.799 27.8501 120.049 28.15 120.249 28.55C120.449 28.95 120.549 29.35 120.549 29.8C120.549 30.25 120.449 30.7 120.249 31.05C120.049 31.45 119.749 31.7001 119.349 31.9501C118.949 32.1501 118.549 32.2501 118.099 32.2501C117.649 32.2501 117.249 32.1501 116.849 31.9501C116.499 31.7501 116.199 31.45 115.949 31.05C115.749 30.65 115.649 30.25 115.649 29.8V25.7501C115.649 25.6001 115.699 25.5001 115.749 25.4001C115.899 25.3501 115.999 25.3 116.149 25.3ZM118.149 31.4501C118.449 31.4501 118.699 31.4001 118.949 31.2501C119.199 31.1001 119.399 30.9001 119.499 30.6501C119.649 30.4001 119.699 30.1 119.699 29.8C119.699 29.5 119.649 29.2001 119.499 28.9501C119.349 28.7001 119.149 28.5001 118.949 28.3501C118.699 28.2001 118.449 28.1501 118.149 28.1501C117.849 28.1501 117.599 28.2001 117.349 28.3501C117.099 28.5001 116.899 28.7001 116.799 28.9501C116.649 29.2001 116.599 29.5 116.599 29.8C116.599 30.1 116.649 30.4001 116.799 30.6501C116.949 30.9001 117.099 31.1001 117.349 31.2501C117.549 31.4001 117.849 31.4501 118.149 31.4501Z" fill="white"/>
<path d="M11.6 0.500061C11.2 0.600061 10.75 0.650055 10.3 0.650055C10.25 0.650055 10.2 0.650055 10.2 0.650055C8.80001 0.900055 7.45 1.40007 6.25 2.10007C6.25 2.10007 6.24999 2.15005 6.29999 2.15005C6.29999 2.15005 6.29998 2.15005 6.34998 2.15005C6.49998 2.05005 6.70001 1.90005 6.95001 1.90005C7.15001 1.90005 7.70001 2.00006 7.70001 3.00006C7.70001 4.00006 7.20001 4.10007 6.95001 4.10007C6.70001 4.10007 6.44998 4.00007 6.34998 3.85007H6.29999C6.29999 3.85007 6.25 3.95005 6.25 4.05005C6.25 4.60005 6.35 5.15007 6.5 5.60007C7.05 5.40007 7.65 5.30005 8.25 5.30005C8.45 5.30005 8.75002 5.40005 8.90002 5.65005C8.95002 5.75005 8.95001 5.85007 8.95001 5.95007C8.95001 6.05007 8.89998 6.15007 8.84998 6.20007C8.79998 6.25007 8.75 6.35007 8.75 6.45007C8.75 6.50007 8.75 6.55007 8.75 6.60007C8.8 6.70007 9.04998 6.80005 9.34998 6.80005C9.69998 6.80005 9.90001 6.75007 9.95001 6.60007C9.95001 6.60007 9.95001 6.60005 9.95001 6.55005C9.95001 6.45005 9.89998 6.30007 9.84998 6.20007C9.74998 6.05007 9.7 5.90006 9.75 5.75006C9.75 5.70006 9.74999 5.70006 9.79999 5.65005C9.89999 5.40005 10.2 5.30005 10.4 5.30005C11 5.30005 11.6 5.40007 12.15 5.60007C12.35 5.10007 12.4 4.60006 12.4 4.00006C12.4 3.90006 12.35 3.80005 12.35 3.80005C12.35 3.80005 12.35 3.80005 12.3 3.80005C12.15 3.90005 11.95 4.05005 11.7 4.05005C11.5 4.05005 11.3 3.95006 11.15 3.75006C11 3.55006 10.95 3.30006 10.95 2.90005C10.95 1.90005 11.45 1.80005 11.7 1.80005C11.95 1.80005 12.2 1.90005 12.3 2.05005C12.35 2.05005 12.35 2.10007 12.35 2.10007C12.35 2.10007 12.4 2.00005 12.4 1.90005C12.4 1.40005 12.3 0.900073 12.15 0.450073C11.9 0.450073 11.75 0.450061 11.6 0.500061Z" fill="white"/>
<path d="M3.34979 4.70004C3.89979 4.70004 4.24984 4.85002 4.39984 5.15002C4.49984 5.30002 4.44983 5.50002 4.44983 5.65002C4.39983 5.80002 4.29982 5.95002 4.24982 6.05002C4.24982 6.05002 4.34983 6.10004 4.44983 6.10004C4.99983 6.10004 5.5498 6.00004 6.0498 5.85004C5.8498 5.30004 5.74982 4.70004 5.74982 4.10004C5.74982 3.80004 5.9498 3.45004 6.2998 3.45004C6.3998 3.45004 6.54984 3.50004 6.64984 3.60004C6.69984 3.65004 6.84983 3.70004 6.94983 3.70004C7.14983 3.70004 7.19983 3.35002 7.19983 3.05002C7.19983 2.70002 7.14979 2.55003 7.09979 2.50003C7.09979 2.50003 7.0998 2.50004 7.0498 2.45004C7.0498 2.45004 6.99982 2.45002 6.99982 2.40002H6.94983C6.84983 2.40002 6.69984 2.50003 6.64984 2.50003C6.44984 2.65003 6.2498 2.65002 6.0498 2.55002C5.9998 2.50002 5.94984 2.45002 5.89984 2.40002C4.94984 3.05002 4.0498 3.80004 3.2998 4.70004C3.2998 4.70004 3.29979 4.70004 3.34979 4.70004Z" fill="white"/>
<path d="M12.7496 8.35007C12.6496 8.35007 12.4996 8.45007 12.4496 8.45007C12.3496 8.55007 12.2496 8.60007 12.0996 8.60007C11.9496 8.60007 11.7996 8.50007 11.6996 8.35007C11.6496 8.25007 11.5996 8.10007 11.5996 7.95007C11.5996 7.35007 11.6997 6.75007 11.8997 6.20007C11.3997 6.00007 10.8496 5.95007 10.2996 5.95007C10.1996 5.95007 10.1496 6.00006 10.0996 6.00006C10.1996 6.15006 10.3996 6.45005 10.2996 6.80005C10.2996 6.85005 10.2996 6.90007 10.2496 6.95007C10.0996 7.25007 9.74965 7.40005 9.19965 7.40005C8.64965 7.40005 8.29966 7.25007 8.14966 6.95007C8.04966 6.80007 8.09961 6.60007 8.09961 6.45007C8.14961 6.30007 8.24962 6.15005 8.29962 6.05005C8.29962 6.05005 8.19961 6.00006 8.09961 6.00006C7.54961 6.00006 6.99963 6.10006 6.49963 6.25006C6.69963 6.80006 6.79962 7.40006 6.79962 8.00006C6.79962 8.30006 6.59963 8.65005 6.24963 8.65005C6.14963 8.65005 5.99966 8.60006 5.89966 8.50006C5.84966 8.45006 5.69961 8.40005 5.59961 8.40005C5.39961 8.40005 5.34961 8.75005 5.34961 9.05005C5.34961 9.40005 5.39965 9.55007 5.44965 9.60007C5.49965 9.65007 5.54961 9.70007 5.59961 9.70007C5.69961 9.70007 5.84966 9.60007 5.89966 9.60007C5.94966 9.55007 5.99962 9.55006 6.04962 9.50006C6.04962 9.50006 6.04961 9.50006 6.09961 9.50006C6.09961 9.50006 6.09966 9.50006 6.14966 9.50006C6.29966 9.45006 6.44961 9.50007 6.59961 9.60007C6.74961 9.75007 6.79962 9.95005 6.79962 10.1501C6.79962 10.7501 6.69963 11.3501 6.49963 11.9001C6.99963 12.1001 7.54961 12.1501 8.09961 12.1501C8.19961 12.1501 8.29962 12.1001 8.29962 12.1001C8.29962 12.1001 8.29962 12.1 8.29962 12.05C8.14962 11.9 7.94966 11.5001 8.14966 11.1501C8.29966 10.8501 8.64965 10.7001 9.19965 10.7001C9.74965 10.7001 10.0996 10.8501 10.2496 11.1501C10.3996 11.5001 10.1996 11.9 10.0996 12.05C10.0996 12.1 10.0496 12.1001 10.0496 12.1001C10.0496 12.1001 10.1496 12.1501 10.2496 12.1501C10.7996 12.1501 11.3496 12.0501 11.8496 11.9001C11.6496 11.3501 11.5496 10.7501 11.5496 10.1501C11.5496 9.85005 11.7496 9.50006 12.0996 9.50006C12.1996 9.50006 12.3496 9.55006 12.4496 9.65005C12.4996 9.70005 12.6496 9.75006 12.7496 9.75006C12.9496 9.75006 12.9996 9.40007 12.9996 9.10007C12.9996 8.90007 12.9997 8.70007 12.8997 8.60007L12.7996 8.50006C12.7996 8.35006 12.7996 8.35007 12.7496 8.35007Z" fill="white"/>
<path d="M6.45044 10.05C6.45044 9.95002 6.40045 9.90004 6.40045 9.85004C6.40045 9.85004 6.4004 9.85004 6.3504 9.85004C6.2004 9.95004 6.00042 10.1 5.75042 10.1C5.55042 10.1 5.35043 10 5.20043 9.80002C5.05042 9.60002 5.00041 9.35004 5.00041 8.95004C5.00041 8.60004 5.05042 8.30004 5.20043 8.10004C5.30043 7.95004 5.50043 7.85004 5.70043 7.85004H5.75042C6.00042 7.85004 6.2504 7.95004 6.3504 8.10004H6.40045C6.40045 8.10004 6.45044 8.00002 6.45044 7.90002C6.45044 7.35002 6.35044 6.80004 6.20044 6.35004C5.65043 6.55004 5.05042 6.65002 4.45042 6.65002C4.25042 6.65002 3.95038 6.55002 3.85037 6.30002C3.80037 6.20002 3.80037 6.10004 3.85037 5.95004C3.85037 5.90004 3.90041 5.80003 3.95041 5.75003C4.00041 5.70003 4.05039 5.60003 4.05039 5.50003C4.05039 5.45003 4.05039 5.40004 4.05039 5.35004C4.00039 5.25004 3.75041 5.15002 3.45041 5.15002C3.1004 5.15002 2.90036 5.20004 2.85036 5.35004C2.85036 5.35004 2.85036 5.35002 2.85036 5.40002C2.85036 5.50002 2.9004 5.65003 2.9504 5.75003C3.0504 5.90003 3.10038 6.05004 3.05038 6.20004C3.05038 6.25004 3.05039 6.25002 3.00039 6.30002C2.90039 6.55002 2.60041 6.65002 2.40041 6.65002C2.30041 6.65002 2.15037 6.65002 2.05037 6.65002C1.85036 7.10002 1.65037 7.55003 1.50037 8.00003C1.70037 8.15003 1.85035 8.40003 1.85035 9.00003C1.85035 10 1.35035 10.1 1.10034 10.1C1.05034 10.1 1.05037 10.1 1.00037 10.1C0.950367 10.5 0.900391 10.9 0.900391 11.35C0.900391 11.45 0.900391 11.5 0.900391 11.6C1.3504 11.45 1.8504 11.4 2.40041 11.4C2.60041 11.4 2.90039 11.5 3.00039 11.75C3.10039 11.9 3.05041 12.1 2.90041 12.25C2.80041 12.35 2.75037 12.55 2.80037 12.65C2.85038 12.75 3.10041 12.85 3.40042 12.85C3.75042 12.85 3.9504 12.8 4.0004 12.65C4.0504 12.55 3.95042 12.35 3.90042 12.25C3.75042 12.1 3.75039 11.9 3.80039 11.75C3.90039 11.5 4.20043 11.4 4.40043 11.4C5.00044 11.4 5.60044 11.5 6.15045 11.7C6.40045 11.15 6.45044 10.6 6.45044 10.05Z" fill="white"/>
<path d="M2.69983 6.00009L2.44983 5.75009V5.6001C2.29983 5.8001 2.1498 6.05008 2.0498 6.30008L2.34979 6.3501L2.69983 6.00009Z" fill="white"/>
<path d="M18.0004 2.45001L18.1504 2.29999C18.0004 2.19999 17.8504 2.1 17.6504 2V2.10001L18.0004 2.45001Z" fill="#0F96D4"/>
<path d="M17.9004 13.7501C17.9004 13.8501 17.9504 13.9001 17.9504 13.9501C17.9504 13.9501 17.9504 13.9501 18.0004 13.9501C18.1504 13.8501 18.3503 13.7001 18.6003 13.7001C18.8003 13.7001 19.3503 13.8 19.3503 14.8C19.3503 15.8 18.8503 15.9001 18.6003 15.9001C18.3503 15.9001 18.1004 15.8001 18.0004 15.6501H17.9504C17.9504 15.6501 17.9004 15.7501 17.9004 15.8501C17.9004 16.4001 18.0004 16.9501 18.1504 17.4001C18.7004 17.2001 19.3004 17.1001 19.9004 17.1001C20.1004 17.1001 20.4004 17.2001 20.5504 17.4501C20.6004 17.5501 20.6003 17.6501 20.6003 17.7501C20.6003 17.8501 20.5504 17.9501 20.5004 18.0001C20.4504 18.0501 20.4004 18.1501 20.4004 18.2501C20.4004 18.3001 20.4004 18.3501 20.4004 18.4001C20.4504 18.5001 20.7004 18.6001 21.0004 18.6001C21.0504 18.6001 21.1003 18.6001 21.1003 18.6001C21.2003 18.4001 21.3504 18.2001 21.4504 18.0001C21.3504 17.8501 21.3503 17.7001 21.3503 17.6001C21.3503 17.5501 21.3504 17.5501 21.4004 17.5001C21.5004 17.3001 21.7004 17.2001 21.9004 17.2001C22.2004 16.6501 22.4504 16.0001 22.6504 15.3501C22.6004 15.2001 22.6003 15.0501 22.6003 14.8501C22.6003 14.2001 22.8004 13.9 23.0504 13.8C23.1504 13.35 23.2004 12.8501 23.2504 12.3501C22.8504 12.4501 22.4504 12.5001 22.0504 12.5001C21.8504 12.5001 21.5504 12.4001 21.4004 12.1501C21.3004 12.0001 21.3504 11.8001 21.5004 11.6501C21.6004 11.5501 21.6503 11.3501 21.6003 11.2501C21.5503 11.1501 21.3004 11.05 21.0004 11.05C20.6504 11.05 20.4504 11.1001 20.4004 11.2501C20.3504 11.3501 20.4504 11.5501 20.5004 11.6501C20.6504 11.8001 20.6503 12.0001 20.6003 12.1501C20.5003 12.4001 20.2004 12.5001 20.0004 12.5001C19.4004 12.5001 18.8004 12.4001 18.2504 12.2001C18.0004 12.7001 17.9004 13.2001 17.9004 13.7501Z" fill="white"/>
<path d="M11.5498 15.5C11.6498 15.5 11.7998 15.4 11.8498 15.4C11.9498 15.3 12.0498 15.25 12.1998 15.25C12.5498 15.25 12.7498 15.6 12.7498 15.9C12.7498 16.5 12.6498 17.1 12.4498 17.65C12.9498 17.85 13.4998 17.9 14.0498 17.9C14.1498 17.9 14.1998 17.85 14.2498 17.85C14.1498 17.7 13.9498 17.4 14.0498 17.05C14.0498 17 14.0498 16.95 14.0998 16.9C14.2498 16.6 14.5999 16.45 15.1499 16.45C15.6999 16.45 16.0499 16.6 16.1999 16.9C16.2999 17.05 16.2498 17.25 16.2498 17.4C16.1998 17.55 16.0998 17.7 16.0498 17.8C16.0498 17.8 16.1498 17.85 16.2498 17.85C16.7999 17.85 17.3498 17.75 17.8498 17.6C17.6498 17.05 17.5498 16.45 17.5498 15.85C17.5498 15.55 17.7498 15.2 18.0998 15.2C18.1998 15.2 18.3499 15.25 18.4499 15.35C18.4999 15.4 18.6499 15.45 18.7499 15.45C18.9499 15.45 18.9999 15.1 18.9999 14.8C18.9999 14.45 18.9499 14.3 18.8999 14.25C18.8999 14.25 18.8999 14.25 18.8499 14.2C18.8499 14.2 18.7999 14.2 18.7999 14.15H18.7499C18.6499 14.15 18.4999 14.25 18.4499 14.25C18.2499 14.4 18.0498 14.4 17.8498 14.3C17.7998 14.25 17.7499 14.2 17.6999 14.15C17.6499 14.05 17.5998 13.9 17.5998 13.75C17.5998 13.15 17.6999 12.55 17.8999 12C17.3999 11.8 16.8498 11.75 16.2998 11.75C16.1998 11.75 16.0998 11.8 16.0998 11.8C16.0998 11.8 16.0998 11.8 16.0998 11.85C16.2498 12 16.4498 12.4 16.2498 12.75C16.0998 13.05 15.7499 13.2 15.1998 13.2C14.6498 13.2 14.2998 13.05 14.1498 12.75C13.9998 12.4 14.1998 12 14.2998 11.85C14.2998 11.8 14.3498 11.8 14.3498 11.8C14.3498 11.8 14.2498 11.75 14.1498 11.75C13.5998 11.75 13.0498 11.85 12.5498 12C12.7498 12.55 12.8498 13.15 12.8498 13.75C12.8498 14.05 12.6498 14.4 12.2998 14.4C12.1998 14.4 12.0498 14.35 11.9498 14.25C11.8998 14.2 11.7498 14.15 11.6498 14.15C11.4498 14.15 11.3998 14.5 11.3998 14.8C11.2498 15.15 11.2998 15.5 11.5498 15.5Z" fill="white"/>
<path d="M18.1497 21.7501C18.1497 21.6501 18.0996 21.6001 18.0996 21.5501C18.0996 21.5501 18.0996 21.5501 18.0496 21.5501C17.8996 21.6501 17.6996 21.8001 17.4496 21.8001C17.2496 21.8001 17.0497 21.7001 16.8997 21.5001C16.7497 21.3001 16.6996 21.0501 16.6996 20.6501C16.6996 20.3001 16.7497 20.0001 16.8997 19.8001C16.9997 19.6501 17.1997 19.5501 17.3997 19.5501H17.4496C17.6996 19.5501 17.9496 19.6501 18.0496 19.8001H18.0996C18.0996 19.8001 18.1497 19.7001 18.1497 19.6001C18.1497 19.0501 18.0497 18.5001 17.8997 18.0501C17.3497 18.2501 16.7497 18.3501 16.1497 18.3501C15.9497 18.3501 15.6496 18.2501 15.5496 18.0001C15.4996 17.9001 15.4996 17.8001 15.5496 17.6501C15.5496 17.6001 15.5997 17.5001 15.6497 17.4501C15.6997 17.4001 15.7496 17.3001 15.7496 17.2001C15.7496 17.1501 15.7496 17.1001 15.7496 17.0501C15.6996 16.9501 15.4497 16.8501 15.1497 16.8501C14.7997 16.8501 14.5996 16.9001 14.5496 17.0501C14.5496 17.0501 14.5496 17.0501 14.5496 17.1001C14.5496 17.2001 14.5997 17.3501 14.6497 17.4501C14.7497 17.6001 14.7996 17.7501 14.7496 17.9001C14.7496 17.9501 14.7496 17.9501 14.6996 18.0001C14.5996 18.2501 14.2996 18.3501 14.0996 18.3501C13.4996 18.3501 12.8996 18.2501 12.3496 18.0501C12.1996 18.5501 12.0996 19.0501 12.0996 19.6501C12.0996 19.7501 12.1497 19.8501 12.1497 19.8501C12.1497 19.8501 12.1496 19.8501 12.1996 19.8501C12.3496 19.7501 12.5496 19.6001 12.7996 19.6001C12.9996 19.6001 13.5496 19.7001 13.5496 20.7001C13.5496 21.7001 13.0496 21.8001 12.7996 21.8001C12.5496 21.8001 12.2996 21.7001 12.1996 21.5501C12.1496 21.5501 12.1497 21.5001 12.1497 21.5001C12.1497 21.5001 12.0996 21.6001 12.0996 21.7001C12.0996 22.2501 12.1996 22.8001 12.3496 23.3001C12.8996 23.1001 13.4996 23.0001 14.0996 23.0001C14.2996 23.0001 14.5996 23.1001 14.6996 23.3501C14.7996 23.5001 14.7496 23.7001 14.5996 23.8501C14.4996 23.9501 14.4496 24.1501 14.4996 24.2501C14.5496 24.3501 14.7996 24.4501 15.0996 24.4501C15.4496 24.4501 15.6496 24.4001 15.6996 24.2501C15.7496 24.1501 15.6496 23.9501 15.5996 23.8501C15.4496 23.7001 15.4496 23.5001 15.4996 23.3501C15.5996 23.1001 15.8996 23.0001 16.0996 23.0001C16.6996 23.0001 17.2996 23.1001 17.8496 23.3001C18.0496 22.8501 18.1497 22.3001 18.1497 21.7501Z" fill="white"/>
<path d="M20.2504 19.85C20.4504 19.6 20.6004 19.35 20.8004 19.05C20.3504 19 20.0504 18.9 19.9504 18.6C19.8504 18.45 19.9004 18.25 19.9004 18.1C19.9504 17.95 20.0504 17.8 20.1004 17.7C20.1004 17.7 20.0004 17.65 19.9004 17.65C19.3504 17.65 18.8004 17.75 18.3004 17.9C18.5004 18.45 18.6004 19.05 18.6004 19.65C18.6004 19.95 18.4004 20.3 18.0504 20.3C17.9504 20.3 17.8004 20.25 17.7004 20.15C17.6504 20.1 17.5004 20.05 17.4004 20.05C17.2004 20.05 17.1504 20.4 17.1504 20.7C17.1504 21.05 17.2004 21.2 17.2504 21.25C17.3004 21.3 17.3504 21.35 17.4004 21.35C17.5004 21.35 17.6504 21.25 17.7004 21.25C17.7504 21.2 17.8004 21.2 17.8504 21.15C17.8504 21.15 17.8504 21.15 17.9004 21.15C17.9004 21.15 17.9004 21.15 17.9504 21.15C18.1004 21.1 18.2504 21.15 18.4004 21.25C18.5504 21.4 18.6004 21.6 18.6004 21.8C18.6004 22 18.6004 22.15 18.5504 22.3C19.1004 21.5 19.6504 20.7 20.2504 19.85Z" fill="white"/>
<path d="M0.75 11.9501C0.75 12.1501 0.749988 12.3501 0.799988 12.6001C0.849989 12.9501 0.900014 13.2501 0.950014 13.6001C1.20002 15.0501 1.65001 16.3001 2.25001 17.3501C2.20001 17.2501 2.20001 17.1001 2.25001 17.0001C2.25001 16.9501 2.25 16.9001 2.3 16.8501C2.45 16.5501 2.79999 16.4001 3.35 16.4001C3.90001 16.4001 4.25006 16.5501 4.40006 16.8501C4.50006 17.0001 4.45005 17.2001 4.45005 17.3501C4.40005 17.5001 4.30003 17.6501 4.25003 17.7501C4.25003 17.7501 4.35005 17.8 4.45005 17.8C5.00005 17.8 5.55003 17.7 6.05004 17.55C5.85004 17 5.75005 16.4 5.75005 15.8C5.75005 15.5 5.95004 15.1501 6.30004 15.1501C6.40004 15.1501 6.55008 15.2 6.65008 15.3C6.70008 15.35 6.85007 15.4001 6.95007 15.4001C7.15007 15.4001 7.20007 15.0501 7.20007 14.7501C7.20007 14.4001 7.15004 14.2501 7.10004 14.2001C7.10004 14.2001 7.10005 14.2001 7.05005 14.1501C7.05005 14.1501 7.00006 14.1501 7.00006 14.1001H6.95007C6.85007 14.1001 6.70008 14.2001 6.65008 14.2001C6.45008 14.3501 6.25004 14.3501 6.05004 14.2501C6.00004 14.2001 5.95007 14.1501 5.90007 14.1001C5.85007 14.0001 5.80004 13.8501 5.80004 13.7001C5.80004 13.1001 5.90002 12.5001 6.10003 11.9501C5.60002 11.7501 5.05004 11.7001 4.50004 11.7001C4.40003 11.7001 4.30002 11.7501 4.30002 11.7501C4.30002 11.7501 4.30002 11.75 4.30002 11.8C4.45002 11.95 4.65005 12.3501 4.45005 12.7001C4.30005 13.0001 3.95005 13.1501 3.40005 13.1501C2.85004 13.1501 2.49999 13.0001 2.34999 12.7001C2.19999 12.3501 2.40002 11.95 2.50002 11.8C2.50002 11.75 2.55 11.7501 2.55 11.7501C2.55 11.7501 2.44999 11.7001 2.34999 11.7001C1.69998 11.7501 1.25 11.8001 0.75 11.9501Z" fill="white"/>
<path d="M6.09961 13.7501C6.09961 13.8501 6.14966 13.9001 6.14966 13.9501C6.14966 13.9501 6.14965 13.9501 6.19965 13.9501C6.34965 13.8501 6.54962 13.7001 6.79962 13.7001C6.99962 13.7001 7.54962 13.8 7.54962 14.8C7.54962 15.8 7.04962 15.9001 6.79962 15.9001C6.54962 15.9001 6.29965 15.8001 6.19965 15.6501H6.14966C6.14966 15.6501 6.09961 15.7501 6.09961 15.8501C6.09961 16.4001 6.19961 16.9501 6.34961 17.4001C6.89961 17.2001 7.49961 17.1001 8.09961 17.1001C8.29961 17.1001 8.59963 17.2001 8.74963 17.4501C8.79963 17.5501 8.79962 17.6501 8.79962 17.7501C8.79962 17.8501 8.74965 17.9501 8.69965 18.0001C8.64965 18.0501 8.59961 18.1501 8.59961 18.2501C8.59961 18.3001 8.59961 18.3501 8.59961 18.4001C8.64961 18.5001 8.89965 18.6001 9.19965 18.6001C9.54965 18.6001 9.74962 18.5501 9.79962 18.4001C9.79962 18.4001 9.79962 18.4001 9.79962 18.3501C9.79962 18.2501 9.74965 18.1001 9.69965 18.0001C9.59965 17.8501 9.54961 17.7 9.59961 17.55C9.59961 17.5 9.59966 17.5001 9.64966 17.4501C9.74966 17.2001 10.0496 17.1001 10.2496 17.1001C10.8496 17.1001 11.4496 17.2001 11.9996 17.4001C12.1996 16.9001 12.2496 16.4 12.2496 15.8C12.2496 15.7 12.1996 15.6001 12.1996 15.6001C12.1996 15.6001 12.1997 15.6001 12.1497 15.6001C11.9997 15.7001 11.7996 15.8501 11.5496 15.8501C11.3496 15.8501 11.1496 15.75 10.9996 15.55C10.8496 15.35 10.7996 15.1001 10.7996 14.7001C10.7996 13.7001 11.2996 13.6001 11.5496 13.6001C11.7996 13.6001 12.0497 13.7001 12.1497 13.8501C12.1997 13.8501 12.1996 13.9001 12.1996 13.9001C12.1996 13.9001 12.2496 13.8001 12.2496 13.7001C12.2496 13.1501 12.1496 12.6001 11.9996 12.1001C11.4496 12.3001 10.8496 12.4001 10.2496 12.4001C10.0496 12.4001 9.74961 12.3 9.59961 12.05C9.49961 11.9 9.54965 11.7 9.69965 11.55C9.79965 11.45 9.84962 11.2501 9.79962 11.1501C9.74962 11.0501 9.49965 10.9501 9.19965 10.9501C8.84965 10.9501 8.64961 11.0001 8.59961 11.1501C8.54961 11.2501 8.64965 11.45 8.69965 11.55C8.84965 11.7 8.84962 11.9 8.79962 12.05C8.69962 12.3 8.39965 12.4001 8.19965 12.4001C7.59965 12.4001 6.99965 12.3001 6.44965 12.1001C6.19965 12.7001 6.09961 13.2001 6.09961 13.7501Z" fill="white"/>
<path d="M12.6998 20.1001C12.5998 20.1001 12.4498 20.2001 12.3998 20.2001C12.2998 20.3001 12.1998 20.3501 12.0498 20.3501C11.8998 20.3501 11.7498 20.2501 11.6498 20.1001C11.5998 20.0001 11.5498 19.8501 11.5498 19.7001C11.5498 19.1001 11.6498 18.5001 11.8498 17.9501C11.3498 17.7501 10.7998 17.7001 10.2498 17.7001C10.1498 17.7001 10.0998 17.7501 10.0498 17.7501C10.1498 17.9001 10.3498 18.2001 10.2498 18.5501C10.2498 18.6001 10.2498 18.6501 10.1998 18.7001C10.0498 19.0001 9.69984 19.1501 9.14984 19.1501C8.59984 19.1501 8.24979 19.0001 8.09979 18.7001C7.99979 18.5501 8.0498 18.3501 8.0498 18.2001C8.0998 18.0501 8.19982 17.9 8.24982 17.8C8.24982 17.8 8.1498 17.7501 8.0498 17.7501C7.4998 17.7501 6.94983 17.8501 6.44983 18.0001C6.64983 18.5501 6.74982 19.1501 6.74982 19.7501C6.74982 20.0501 6.54983 20.4001 6.19983 20.4001C6.09983 20.4001 5.94979 20.3501 5.84979 20.2501C5.79979 20.2001 5.6498 20.1501 5.5498 20.1501C5.3498 20.1501 5.2998 20.5001 5.2998 20.8001C5.2998 21.1501 5.34984 21.3001 5.39984 21.3501C5.44984 21.4001 5.4998 21.4501 5.5498 21.4501C5.6498 21.4501 5.79979 21.3501 5.84979 21.3501C5.89979 21.3001 5.94982 21.3001 5.99982 21.2501C5.99982 21.2501 5.9998 21.2501 6.0498 21.2501C6.0498 21.2501 6.04979 21.2501 6.09979 21.2501C6.24979 21.2001 6.3998 21.2501 6.5498 21.3501C6.6998 21.5001 6.74982 21.7001 6.74982 21.9001C6.74982 22.5001 6.64983 23.1001 6.44983 23.6501C6.94983 23.8501 7.4998 23.9001 8.0498 23.9001C8.1498 23.9001 8.24982 23.8501 8.24982 23.8501C8.24982 23.8501 8.24982 23.8501 8.24982 23.8001C8.09982 23.6501 7.89979 23.2501 8.09979 22.9001C8.24979 22.6001 8.59984 22.4501 9.14984 22.4501C9.69984 22.4501 10.0498 22.6001 10.1998 22.9001C10.3498 23.2501 10.1498 23.6501 10.0498 23.8001C10.0498 23.8501 9.99982 23.8501 9.99982 23.8501C9.99982 23.8501 10.0998 23.9001 10.1998 23.9001C10.7498 23.9001 11.2998 23.8001 11.7998 23.6501C11.5998 23.1001 11.4998 22.5001 11.4998 21.9001C11.4998 21.6001 11.6998 21.2501 12.0498 21.2501C12.1498 21.2501 12.2998 21.3001 12.3998 21.4001C12.4498 21.4501 12.5998 21.5001 12.6998 21.5001C12.8998 21.5001 12.9498 21.1501 12.9498 20.8501C12.9498 20.6501 12.9498 20.4501 12.8498 20.3501L12.7498 20.2501C12.7498 20.1001 12.7498 20.1001 12.6998 20.1001Z" fill="white"/>
<path d="M6.34998 21.8C6.34998 21.7 6.29999 21.65 6.29999 21.6C6.29999 21.6 6.3 21.6 6.25 21.6C6.1 21.7 5.90002 21.85 5.65002 21.85C5.45002 21.85 5.24998 21.75 5.09998 21.55C4.94998 21.35 4.90002 21.1 4.90002 20.7C4.90002 20.35 4.94998 20.05 5.09998 19.85C5.19998 19.7 5.39998 19.6 5.59998 19.6H5.65002C5.90002 19.6 6.15 19.7 6.25 19.85H6.29999C6.29999 19.85 6.34998 19.75 6.34998 19.65C6.34998 19.1 6.24998 18.55 6.09998 18.1C5.54998 18.3 4.94998 18.4 4.34998 18.4C4.14998 18.4 3.85 18.3 3.75 18.05C3.7 17.95 3.7 17.85 3.75 17.7C3.75 17.65 3.79998 17.55 3.84998 17.5C3.89998 17.45 3.95001 17.35 3.95001 17.25C3.95001 17.2 3.95001 17.15 3.95001 17.1C3.90001 17 3.64998 16.9 3.34998 16.9C2.99998 16.9 2.8 16.95 2.75 17.1C2.75 17.1 2.75 17.1 2.75 17.15C2.75 17.25 2.79998 17.4 2.84998 17.5C2.94998 17.65 3.00001 17.8 2.95001 17.95C2.95001 18 2.95002 18 2.90002 18.05C2.85002 18.1 2.8 18.15 2.75 18.2C3.1 18.75 3.44999 19.3 3.79999 19.8C4.64999 21 5.5 22.1 6 23.3C6.05 23.3 6.04998 23.3 6.09998 23.35C6.24998 22.9 6.34998 22.4 6.34998 21.8Z" fill="white"/>
<path d="M11.5501 3.64999C11.6501 3.64999 11.8 3.54999 11.85 3.54999C11.95 3.44999 12.0501 3.39999 12.2001 3.39999C12.5501 3.39999 12.7501 3.74999 12.7501 4.04999C12.7501 4.64999 12.6501 5.24999 12.4501 5.79999C12.9501 5.99999 13.5001 6.04999 14.0501 6.04999C14.1501 6.04999 14.2001 6 14.2501 6C14.1501 5.85 13.9501 5.55001 14.0501 5.20001C14.0501 5.15001 14.0501 5.09999 14.1001 5.04999C14.2501 4.74999 14.6001 4.60001 15.1501 4.60001C15.7001 4.60001 16.0501 4.74999 16.2001 5.04999C16.3001 5.19999 16.2501 5.39999 16.2501 5.54999C16.2001 5.69999 16.1001 5.85001 16.0501 5.95001C16.0501 5.95001 16.1501 6 16.2501 6C16.8001 6 17.3501 5.9 17.8501 5.75C17.6501 5.2 17.5501 4.6 17.5501 4C17.5501 3.7 17.7501 3.35001 18.1001 3.35001C18.2001 3.35001 18.3501 3.4 18.4501 3.5C18.5001 3.55 18.6501 3.60001 18.7501 3.60001C18.9501 3.60001 19.0001 3.25001 19.0001 2.95001C19.0001 2.85001 19.0001 2.75001 19.0001 2.70001C18.8501 2.60001 18.7001 2.49999 18.5501 2.39999C18.5001 2.39999 18.4501 2.45001 18.4501 2.45001C18.2501 2.60001 18.0501 2.6 17.8501 2.5C17.8001 2.45 17.7501 2.40001 17.7001 2.35001C17.6501 2.25001 17.6001 2.10001 17.6001 1.95001C17.6001 1.90001 17.6001 1.90001 17.6001 1.85001C17.1001 1.60001 16.6001 1.34999 16.0501 1.14999C15.8501 1.24999 15.6001 1.35001 15.2501 1.35001C14.7001 1.35001 14.3501 1.19999 14.2001 0.899994C14.1501 0.799994 14.1501 0.749994 14.1501 0.649994C13.6501 0.549994 13.2001 0.5 12.7001 0.5C12.8501 0.95 12.9001 1.45001 12.9001 1.95001C12.9001 2.25001 12.7001 2.60001 12.35 2.60001C12.25 2.60001 12.1001 2.55001 12.0001 2.45001C11.9501 2.40001 11.8001 2.35001 11.7001 2.35001C11.5001 2.35001 11.4501 2.7 11.4501 3C11.2501 3.3 11.3001 3.64999 11.5501 3.64999Z" fill="white"/>
<path d="M18.6003 4.15002C18.3503 4.15002 18.1004 4.05002 18.0004 3.90002H17.9504C17.9504 3.90002 17.9004 4.00004 17.9004 4.10004C17.9004 4.65004 18.0004 5.20002 18.1504 5.65002C18.7004 5.45002 19.3004 5.35004 19.9004 5.35004C20.1004 5.35004 20.4004 5.45004 20.5504 5.70004C20.6004 5.80004 20.6003 5.90003 20.6003 6.00003C20.6003 6.10003 20.5504 6.20003 20.5004 6.25003C20.4504 6.30003 20.4004 6.40003 20.4004 6.50003C20.4004 6.55003 20.4004 6.60002 20.4004 6.65002C20.4504 6.75002 20.7004 6.85004 21.0004 6.85004C21.3504 6.85004 21.5503 6.80002 21.6003 6.65002C21.6003 6.65002 21.6003 6.65004 21.6003 6.60004C21.6003 6.50004 21.5504 6.35003 21.5004 6.25003C21.4004 6.10003 21.3504 5.95002 21.4004 5.80002C21.4004 5.75002 21.4004 5.75004 21.4504 5.70004C21.5004 5.65004 21.5004 5.60002 21.5504 5.55002C20.9504 4.65002 20.2003 3.85002 19.3503 3.15002C19.3003 4.05002 18.8003 4.15002 18.6003 4.15002Z" fill="white"/>
<path d="M22.0496 6.5C22.0496 6.6 22.0996 6.69999 22.0496 6.79999C22.0496 6.84999 22.0496 6.90001 21.9996 6.95001C21.8496 7.25001 21.4996 7.39999 20.9496 7.39999C20.3996 7.39999 20.0497 7.25001 19.8997 6.95001C19.7997 6.80001 19.8496 6.60001 19.8496 6.45001C19.8996 6.30001 19.9996 6.14999 20.0496 6.04999C20.0496 6.04999 19.9496 6 19.8496 6C19.2996 6 18.7496 6.1 18.2496 6.25C18.4496 6.8 18.5496 7.4 18.5496 8C18.5496 8.3 18.3496 8.64999 17.9996 8.64999C17.8996 8.64999 17.7497 8.6 17.6497 8.5C17.5997 8.45 17.4496 8.39999 17.3496 8.39999C17.1496 8.39999 17.0996 8.74999 17.0996 9.04999C17.0996 9.39999 17.1496 9.55001 17.1996 9.60001C17.2496 9.65001 17.2996 9.70001 17.3496 9.70001C17.4496 9.70001 17.5997 9.60001 17.6497 9.60001C17.6997 9.55001 17.7496 9.55 17.7996 9.5C17.7996 9.5 17.7996 9.5 17.8496 9.5C17.8496 9.5 17.8497 9.5 17.8997 9.5C18.0497 9.45 18.1996 9.50001 18.3496 9.60001C18.4996 9.75001 18.5496 9.94999 18.5496 10.15C18.5496 10.75 18.4496 11.35 18.2496 11.9C18.7496 12.1 19.2996 12.15 19.8496 12.15C19.9496 12.15 20.0496 12.1 20.0496 12.1C20.0496 12.1 20.0496 12.1 20.0496 12.05C19.8996 11.9 19.6997 11.5 19.8997 11.15C20.0497 10.85 20.3996 10.7 20.9496 10.7C21.4996 10.7 21.8496 10.85 21.9996 11.15C22.1496 11.5 21.9496 11.9 21.8496 12.05C21.8496 12.1 21.7996 12.1 21.7996 12.1C21.7996 12.1 21.8996 12.15 21.9996 12.15C22.3996 12.15 22.8496 12.1 23.2496 12C23.2496 11.8 23.2496 11.6 23.2496 11.4C23.2496 9.54999 22.7996 7.9 22.0496 6.5Z" fill="white"/>
<path d="M18.1497 10.0001C18.1497 9.90009 18.0996 9.85008 18.0996 9.80008C18.0996 9.80008 18.0996 9.80008 18.0496 9.80008C17.8996 9.90008 17.6996 10.0501 17.4496 10.0501C17.2496 10.0501 17.0497 9.95009 16.8997 9.75009C16.7497 9.55009 16.6996 9.30009 16.6996 8.90009C16.6996 8.55009 16.7497 8.25008 16.8997 8.05008C16.9997 7.90008 17.1997 7.80008 17.3997 7.80008H17.4496C17.6996 7.80008 17.9496 7.90008 18.0496 8.05008H18.0996C18.0996 8.05008 18.1497 7.9501 18.1497 7.8501C18.1497 7.3001 18.0497 6.75008 17.8997 6.30008C17.3497 6.50008 16.7497 6.6001 16.1497 6.6001C15.9497 6.6001 15.6496 6.50009 15.5496 6.25009C15.4996 6.15009 15.4996 6.05009 15.5496 5.90009C15.5496 5.85009 15.5997 5.7501 15.6497 5.7001C15.6997 5.6501 15.7496 5.5501 15.7496 5.4501C15.7496 5.4001 15.7496 5.35008 15.7496 5.30008C15.6996 5.20008 15.4497 5.1001 15.1497 5.1001C14.7997 5.1001 14.5996 5.15008 14.5496 5.30008C14.5496 5.30008 14.5496 5.3001 14.5496 5.3501C14.5496 5.4501 14.5997 5.6001 14.6497 5.7001C14.7497 5.8501 14.7996 6.00009 14.7496 6.15009C14.7496 6.20009 14.7496 6.20009 14.6996 6.25009C14.5996 6.50009 14.2996 6.6001 14.0996 6.6001C13.4996 6.6001 12.8996 6.50008 12.3496 6.30008C12.1996 6.80008 12.0996 7.30009 12.0996 7.90009C12.0996 8.00009 12.1497 8.1001 12.1497 8.1001C12.1497 8.1001 12.1496 8.1001 12.1996 8.1001C12.3496 8.0001 12.5496 7.8501 12.7996 7.8501C12.9996 7.8501 13.5496 7.9501 13.5496 8.9501C13.5496 9.9501 13.0496 10.0501 12.7996 10.0501C12.5496 10.0501 12.2996 9.95008 12.1996 9.80008C12.1496 9.80008 12.1497 9.75009 12.1497 9.75009C12.1497 9.75009 12.0996 9.8501 12.0996 9.9501C12.0996 10.5001 12.1996 11.0501 12.3496 11.5501C12.8996 11.3501 13.4996 11.2501 14.0996 11.2501C14.2996 11.2501 14.5996 11.3501 14.6996 11.6001C14.7996 11.7501 14.7496 11.9501 14.5996 12.1001C14.4996 12.2001 14.4496 12.4001 14.4996 12.5001C14.5496 12.6001 14.7996 12.7001 15.0996 12.7001C15.4496 12.7001 15.6496 12.6501 15.6996 12.5001C15.7496 12.4001 15.6496 12.2001 15.5996 12.1001C15.4496 11.9501 15.4496 11.7501 15.4996 11.6001C15.5996 11.3501 15.8996 11.2501 16.0996 11.2501C16.6996 11.2501 17.2996 11.3501 17.8496 11.5501C18.0496 11.1001 18.1497 10.5501 18.1497 10.0001Z" fill="white"/>
<path d="M11.5998 27.25C11.6998 27.25 11.8499 27.15 11.8999 27.15C11.9999 27.05 12.0998 27 12.2498 27C12.5998 27 12.7998 27.35 12.7998 27.65C12.7998 28.25 12.6998 28.85 12.4998 29.4C12.9998 29.6 13.5498 29.65 14.0998 29.65C14.1998 29.65 14.2498 29.6 14.2998 29.6C14.1998 29.45 13.9998 29.15 14.0998 28.8C14.0998 28.75 14.0999 28.7 14.1499 28.65C14.2999 28.35 14.6499 28.2 15.1999 28.2C15.7499 28.2 16.0999 28.35 16.2499 28.65C16.3499 28.8 16.2999 29 16.2999 29.15C16.2499 29.3 16.1498 29.45 16.0998 29.55C16.0998 29.55 16.1999 29.6 16.2999 29.6C16.7499 29.6 17.1498 29.55 17.5999 29.45V26.1C17.5999 25.95 17.5999 25.8 17.5999 25.6C17.5999 25.55 17.5999 25.5 17.5999 25.5C17.5999 24.9 17.6999 24.3 17.8999 23.75C17.3999 23.55 16.8499 23.5 16.2999 23.5C16.1999 23.5 16.0998 23.55 16.0998 23.55C16.0998 23.55 16.0998 23.55 16.0998 23.6C16.2498 23.75 16.4499 24.15 16.2499 24.5C16.0999 24.8 15.7499 24.95 15.1999 24.95C14.6499 24.95 14.2999 24.8 14.1499 24.5C13.9999 24.15 14.1998 23.75 14.2998 23.6C14.2998 23.55 14.3498 23.55 14.3498 23.55C14.3498 23.55 14.2499 23.5 14.1499 23.5C13.5999 23.5 13.0498 23.6 12.5498 23.75C12.7498 24.3 12.8498 24.9 12.8498 25.5C12.8498 25.8 12.6498 26.15 12.2998 26.15C12.1998 26.15 12.0499 26.1 11.9499 26C11.8999 25.95 11.7499 25.9 11.6499 25.9C11.4499 25.9 11.3999 26.25 11.3999 26.55C11.2999 26.9 11.3498 27.25 11.5998 27.25Z" fill="white"/>
<path d="M16.7996 33.1C16.7496 32.95 16.6996 32.75 16.6996 32.5C16.6996 32.15 16.7497 31.85 16.8997 31.65C16.9997 31.5 17.1997 31.4 17.3997 31.4V30C16.9997 30.1 16.5497 30.15 16.1497 30.15C15.9497 30.15 15.6496 30.05 15.5496 29.8C15.4996 29.7 15.4996 29.6 15.5496 29.45C15.5496 29.4 15.5997 29.3 15.6497 29.25C15.6997 29.2 15.7496 29.1 15.7496 29C15.7496 28.95 15.7496 28.9 15.7496 28.85C15.6996 28.75 15.4497 28.65 15.1497 28.65C14.7997 28.65 14.5996 28.7 14.5496 28.85C14.5496 28.85 14.5496 28.85 14.5496 28.9C14.5496 29 14.5997 29.15 14.6497 29.25C14.7497 29.4 14.7996 29.55 14.7496 29.7C14.7496 29.75 14.7496 29.75 14.6996 29.8C14.5996 30.05 14.2996 30.15 14.0996 30.15C13.4996 30.15 12.8996 30.05 12.3496 29.85C12.1996 30.35 12.0996 30.85 12.0996 31.45C12.0996 31.55 12.1497 31.65 12.1497 31.65C12.1497 31.65 12.1496 31.65 12.1996 31.65C12.3496 31.55 12.5496 31.4 12.7996 31.4C12.9996 31.4 13.5496 31.5 13.5496 32.5C13.5496 33.5 13.0496 33.6 12.7996 33.6C12.5496 33.6 12.2996 33.5 12.1996 33.35C12.1496 33.35 12.1497 33.3 12.1497 33.3C12.1497 33.3 12.0996 33.4 12.0996 33.5C12.0996 33.6 12.0996 33.7 12.0996 33.75H15.2496C15.7996 33.8 16.3996 33.55 16.7996 33.1Z" fill="white"/>
<path d="M12.3998 33C12.4498 33.05 12.5998 33.1 12.6998 33.1C12.8998 33.1 12.9498 32.75 12.9498 32.45C12.9498 32.15 12.8998 31.8 12.6998 31.8C12.5998 31.8 12.4498 31.9 12.3998 31.9C12.2998 32 12.1998 32.05 12.0498 32.05C11.8998 32.05 11.7498 31.95 11.6498 31.8C11.5998 31.7 11.5498 31.55 11.5498 31.4C11.5498 30.8 11.6498 30.2 11.8498 29.65C11.3498 29.45 10.7998 29.4 10.2498 29.4C10.1498 29.4 10.0998 29.45 10.0498 29.45C10.1498 29.6 10.3498 29.9 10.2498 30.25C10.2498 30.3 10.2498 30.35 10.1998 30.4C10.0498 30.7 9.69984 30.85 9.14984 30.85C8.59984 30.85 8.24979 30.7 8.09979 30.4C7.99979 30.25 8.0498 30.05 8.0498 29.9C8.0998 29.75 8.19982 29.6 8.24982 29.5C8.24982 29.5 8.1498 29.45 8.0498 29.45C7.4998 29.45 6.9998 29.55 6.5498 29.7V29.9C6.6998 30.4 6.7998 30.9 6.7998 31.45C6.7998 31.65 6.74979 31.85 6.59979 31.95C6.79979 33.05 7.7498 33.85 8.7998 33.85H11.4998C11.4998 33.75 11.4998 33.65 11.4998 33.55C11.4998 33.25 11.6998 32.9 12.0498 32.9C12.1998 32.9 12.2998 32.95 12.3998 33Z" fill="white"/>
<path d="M6.89984 25.5C7.14985 25.5 7.64985 25.6 7.64985 26.6C7.64985 27.6 7.14985 27.7 6.89984 27.7C6.84984 27.7 6.74983 27.7 6.69983 27.65V29.15C7.19984 29 7.69983 28.9 8.24983 28.9C8.44984 28.9 8.74986 29 8.89987 29.25C8.94987 29.35 8.94985 29.45 8.94985 29.55C8.94985 29.65 8.89982 29.75 8.84982 29.8C8.79982 29.85 8.74984 29.95 8.74984 30.05C8.74984 30.1 8.74984 30.15 8.74984 30.2C8.79984 30.3 9.04982 30.4 9.34982 30.4C9.69983 30.4 9.89986 30.35 9.94986 30.2C9.94986 30.2 9.94986 30.2 9.94986 30.15C9.94986 30.05 9.89983 29.9 9.84983 29.8C9.74983 29.65 9.69985 29.5 9.74985 29.35C9.74985 29.3 9.74984 29.3 9.79984 29.25C9.89984 29 10.1999 28.9 10.3999 28.9C10.9999 28.9 11.5999 29 12.1499 29.2C12.3499 28.7 12.3999 28.2 12.3999 27.6C12.3999 27.5 12.3499 27.4 12.3499 27.4C12.3499 27.4 12.3499 27.4 12.2999 27.4C12.1499 27.5 11.9499 27.65 11.6999 27.65C11.4999 27.65 11.2999 27.55 11.1499 27.35C10.9999 27.15 10.9499 26.9 10.9499 26.5C10.9499 25.5 11.4499 25.4 11.6999 25.4C11.9499 25.4 12.1999 25.5 12.2999 25.65C12.3499 25.65 12.3499 25.7 12.3499 25.7C12.3499 25.7 12.3999 25.6 12.3999 25.5C12.3999 24.95 12.2999 24.4 12.1499 23.9C11.5999 24.1 10.9999 24.2 10.3999 24.2C10.1999 24.2 9.89985 24.1 9.74985 23.85C9.64985 23.7 9.69983 23.5 9.84983 23.35C9.94983 23.25 9.99987 23.05 9.94986 22.95C9.89986 22.85 9.64983 22.75 9.34982 22.75C8.99982 22.75 8.79984 22.8 8.74984 22.95C8.69984 23.05 8.79982 23.25 8.84982 23.35C8.99982 23.5 8.99985 23.7 8.94985 23.85C8.84985 24.1 8.54981 24.2 8.34981 24.2C7.74981 24.2 7.1498 24.1 6.59979 23.9C6.54979 23.95 6.5498 24.05 6.5498 24.15C6.69981 24.6 6.74981 25.05 6.79981 25.5C6.69981 25.55 6.79984 25.5 6.89984 25.5Z" fill="white"/>
<path d="M37.5498 1.3501V34.2001" stroke="white" stroke-width="2" stroke-miterlimit="10"/>
</svg>
