<svg width="167" height="38" viewBox="0 0 167 38" fill="none" xmlns="http://www.w3.org/2000/svg">
<path d="M151.149 32.3501C151.149 32.3501 151.699 32.15 152.549 31.4C153.399 30.6501 153.499 29.7001 154.249 28.7501C155.099 27.7001 156.849 26.05 156.849 26.05C156.849 26.05 156.299 28.3001 155.799 29.3501C155.049 30.9001 154.249 31.3501 154.249 31.3501C154.249 31.3501 154.649 31.65 155.199 31.4C155.749 31.15 156.349 30.8501 157.199 30.9501C158.049 31.0501 159.099 31.0501 160.099 30.4501C161.149 29.8501 162.099 29.2501 162.099 29.2501C162.099 29.2501 161.449 31.25 158.849 32.4C157.149 33.1 155.199 33.1001 154.549 32.7501C153.949 32.4001 153.199 32.25 152.649 32.4C152.099 32.55 151.149 32.3501 151.149 32.3501Z" fill="white"/>
<path d="M159.6 21.65C159.6 21.65 159.6 23.6 159.75 24.25C159.85 24.95 159.75 25.75 159.45 26.4C159.15 27.05 158.7 28 159.05 28.15C159.4 28.35 159.5 27.6 160.25 27.05C161 26.5 162.35 25.85 163.05 25.4C164.25 24.7 165.15 23.35 165.15 23.35C165.15 23.35 164.65 26.4 162.1 28.15C160.4 29.3 157.1 29.6 157.1 29.6C157.1 29.6 157.45 29.3 157.65 28.5C157.85 27.7 157.9 26 158.25 24.9C158.5 23.85 159.6 21.65 159.6 21.65Z" fill="white"/>
<path d="M160.949 17.25C160.949 17.25 161.899 19.65 162.049 20.35C162.149 21.05 161.999 23.05 161.999 23.05C161.999 23.05 162.799 22.35 163.549 21.1C164.149 20.15 165.049 19.8 165.549 19.05C166.049 18.3 166.249 17.95 166.249 17.95C166.249 17.95 165.749 20.1 165.199 21.35C164.299 23.45 160.749 25.65 160.749 25.65C160.749 25.65 160.949 25.05 161.049 23.85C161.149 22.65 160.849 21.25 160.749 20.35C160.599 19.45 160.949 17.25 160.949 17.25Z" fill="white"/>
<path d="M160.899 12.3C160.899 12.3 161.199 12.65 161.749 13.55C162.349 14.45 163.099 15.45 163.149 16C163.199 16.55 163.449 17.25 163.649 17.2C163.849 17.15 163.849 16.55 164.099 15.6C164.399 14.65 165.199 13.7 165.349 13C165.449 12.45 165.699 11.6 165.699 11.6C165.699 11.6 166.149 14.05 165.599 16C165.049 18 163.899 18.95 163.699 19.2C163.499 19.45 163.149 19.8 163.149 19.8C163.149 19.8 163.349 20 162.799 18.75C162.249 17.5 161.849 16.75 161.349 15.85C160.999 15.1 160.899 12.3 160.899 12.3Z" fill="white"/>
<path d="M159.649 8.19998C159.649 8.19998 160.999 8.99996 161.599 9.64996C162.299 10.4 163.049 11.8 163.299 11.75C163.549 11.7 163.299 10.5 163.349 10.05C163.399 9.59996 163.599 7.49998 163.499 6.94998C163.399 6.39998 163.249 5.59998 163.249 5.59998C163.249 5.59998 164.799 7.84998 164.749 9.44998C164.699 11.05 164.799 11.4 164.049 12.65C163.649 13.3 163.449 14.2 163.449 14.2C163.449 14.2 163.249 13.75 162.699 13.1C162.199 12.45 161.049 11.35 160.649 10.35C160.249 9.34998 159.649 8.19998 159.649 8.19998Z" fill="white"/>
<path d="M157.649 4.24997C157.649 4.24997 158.049 4.59996 158.649 5.04996C159.249 5.49996 160.049 5.79998 160.499 6.19998C160.949 6.64998 161.449 7.14997 161.699 6.99997C161.899 6.89997 161.649 6.49996 161.299 5.54996C160.949 4.59996 160.949 3.69996 160.699 3.29996C160.449 2.89996 160.149 2.09998 160.149 2.09998C160.149 2.09998 161.849 3.39997 162.149 4.49997C162.449 5.59997 162.399 8.99997 162.399 8.99997C162.399 8.99997 162.099 8.54996 161.499 8.14996C160.899 7.69996 159.449 6.64997 158.949 6.24997C157.999 5.54997 157.649 4.24997 157.649 4.24997Z" fill="white"/>
<path d="M156.25 0.650024C156.25 0.650024 157.6 1.00003 158.5 1.75003C159.35 2.50003 160.05 4.55002 160.05 4.55002C160.05 4.55002 158.6 3.85002 158.05 3.30002C157.45 2.70002 156.25 0.650024 156.25 0.650024Z" fill="white"/>
<path d="M130 33.45C130 33.45 131.55 34.25 132.75 34.15C133.95 34.05 135.1 33.65 137.05 33.15C139.05 32.65 140.55 32.5 141.45 32.7C142.35 32.85 143.9 33.05 143.9 33.05C143.9 33.05 145.95 32.75 147.5 32.65C148.3 32.6 149.35 32.85 150.55 33.2C151.7 33.55 153.8 34.25 154.95 34.25C156.65 34.25 157.95 33.6 157.95 33.6C157.95 33.6 157.8 34.85 153.65 35.25C151.2 35.5 150.2 35.3 149.1 34.6C148 33.9 146.85 33.35 146.3 33.3C145.75 33.25 144.95 33.35 144.95 33.35C144.95 33.35 146.45 33.9 147.15 34.45C147.9 35.05 149.8 36.6 149.8 36.6L149.35 37.15C149.35 37.15 148.6 36.1 147.4 35.2C146.2 34.35 144.5 33.45 143.85 33.45C143.2 33.45 141.15 34.4 139.85 35.6C138.6 36.8 138.45 37.1 138.45 37.1L137.95 36.6C137.95 36.6 138.9 35.65 140.2 34.8C141.5 33.95 142.85 33.3 142.85 33.3C142.85 33.3 142.8 33.15 142 33.25C141.2 33.3 140.6 33.4 139.25 34.25C137.9 35.1 137.4 35.3 136.25 35.4C135.1 35.55 132.85 35.3 131.5 34.75C130.3 34.15 130 33.45 130 33.45Z" fill="white"/>
<path d="M125.85 29.05C125.85 29.05 127.1 30.05 127.7 30.35C129 31.1 130.15 30.75 130.95 30.85C131.8 30.95 132.5 31.15 132.75 31.3C133 31.4 133.75 31.5 133.8 31.35C133.9 31.2 133.15 30.9 132.55 29.9C131.75 28.45 131.25 26.1 131.25 26.1C131.25 26.1 132.5 26.95 133.6 28.45C134.7 29.95 134.55 30.65 135.35 31.3C136.15 32 136.95 32.35 136.95 32.35C136.95 32.35 135.95 32.25 135.2 32.3C134.45 32.35 133.2 32.85 132.1 32.85C131 32.85 128.9 32.75 127.2 30.8C126 29.5 125.85 29.05 125.85 29.05Z" fill="white"/>
<path d="M122.75 23.5C122.75 23.5 123.5 24.5 124.55 25.35C125.6 26.2 127.25 26.75 127.8 27.35C128.35 28 128.6 28.5 128.9 28.35C129.2 28.2 128.7 27.65 128.5 26.85C128.3 26 128.1 23.8 128.3 22.95C128.4 22.5 128.35 21.85 128.35 21.85C128.35 21.85 128.85 22.7 129.45 24C130 25.2 129.95 27.3 130.2 28.2C130.45 29.15 130.95 29.8 130.95 29.8C130.95 29.8 129.3 29.7 128.45 29.4C127.6 29.1 125.3 28.25 124.45 26.8C123.55 25.35 122.75 23.5 122.75 23.5Z" fill="white"/>
<path d="M121.7 17.95C121.7 17.95 122.05 18.8 122.55 19.3C123.1 19.8 123.4 20.05 124.05 20.8C124.5 21.3 125.55 23.3 125.85 23.25C126.1 23.2 125.7 22.2 125.8 21.15C126 19.45 127.05 17.4 127.05 17.4C127.05 17.4 127.3 19.5 127.25 20.75C127.2 22 126.75 23.4 126.9 24.15C127.05 24.85 127.15 25.75 127.15 25.75C127.15 25.75 125.5 24.65 124.35 23.6C123.2 22.55 122.15 20.25 121.95 19.55C121.8 18.9 121.7 17.95 121.7 17.95Z" fill="white"/>
<path d="M122.15 11.7C122.15 11.7 121.95 14.8 122.35 16.2C122.95 18.5 124.7 19.95 124.7 19.95C124.7 19.95 124.85 19.1499 125.25 18.3499C125.65 17.5499 126.25 16.7499 126.5 16.0999C126.95 14.7999 127.1 12.5499 127.1 12.5499C127.1 12.5499 126.7 13.2 126.3 13.7C125.9 14.2 125.45 14.85 125.1 15.7C124.75 16.55 124.7 17.3499 124.3 17.3999C123.75 17.4499 124.2 16.6499 123.75 15.5499C123.3 14.4499 122.6 13.3499 122.55 12.7999C122.4 12.2499 122.15 11.7 122.15 11.7Z" fill="white"/>
<path d="M124.6 5.69995C124.6 5.69995 123.35 7.39993 123.2 8.89993C123 10.4499 123.15 11.7 123.75 12.7C124.15 13.4 124.3 14.3999 124.3 14.3999C124.3 14.3999 124.5 13.8499 125 13.2999C125.5 12.7499 126.4 11.9499 127.05 10.8499C127.7 9.79994 128.25 8.34995 128.25 8.34995C128.25 8.34995 127.25 8.89995 126.7 9.44995C125.3 10.75 124.6 11.95 124.6 11.95C124.6 11.95 124.2 11.5999 124.35 11.0999C124.5 10.5999 124.55 9.79995 124.5 9.19995C124.45 8.59995 124.25 8.29993 124.4 7.54993C124.4 6.89993 124.6 5.69995 124.6 5.69995Z" fill="white"/>
<path d="M127.95 2.25C127.95 2.25 126.3 3.25 125.85 4.5C125.5 5.45 125.65 6.45001 125.5 7.45001C125.35 8.45001 125.55 9.14999 125.55 9.14999C125.55 9.14999 125.7 8.89999 126.25 8.29999C126.85 7.64999 127.75 7.30001 128.4 6.85001C129.8 5.90001 130.4 4.35001 130.4 4.35001C130.4 4.35001 129.6 5.09999 129.2 5.29999C128.8 5.49999 128.05 5.89999 127.5 6.29999C127.1 6.59999 126.75 7.45001 126.75 7.45001C126.75 7.45001 126.25 6.95001 126.4 6.45001C126.6 5.90001 126.85 5.50001 126.95 4.95001C127.05 4.40001 127.2 3.65 127.45 3.25C127.65 2.8 127.95 2.25 127.95 2.25Z" fill="white"/>
<path d="M129.15 2.15005C129.8 1.50005 131.7 0.800049 131.7 0.800049C131.7 0.800049 130.9 2.15005 130 3.05005C129 4.10005 127.7 4.70007 127.7 4.70007C127.7 4.70007 128 3.25005 129.15 2.15005Z" fill="white"/>
<path d="M137.899 4.34998C139.649 4.34998 143.099 6.19998 143.099 8.69998C143.099 10.25 141.899 11.3 141.899 11.3C141.899 11.3 141.949 12.15 141.849 12.45C141.599 12.95 141.399 12.8 141.099 13.25C140.799 13.7 140.649 14.4 139.399 14.4C138.149 14.4 138.149 14 137.549 14C136.949 14 136.549 14.6 136.549 14.6V19.1C136.549 19.1 136.699 19.65 137.799 20.3C138.949 20.9 139.799 21.3 140.149 21.3C140.499 21.3 140.499 20.9 140.949 20.9C141.399 20.9 143.099 20.9 143.099 21.7C143.099 22.5 142.249 23.05 139.099 23.05C135.999 23.05 134.999 22.8 134.649 22.8C134.299 22.8 134.249 22.9 134.249 23.35C134.249 23.85 134.249 24.5 134.249 24.5C134.249 24.5 134.749 25.35 135.399 25.65C136.049 26 136.399 26.15 137.099 26.15C137.799 26.15 138.849 25.9 139.699 25.55C140.549 25.15 141.399 24.95 142.349 24.95C143.349 24.95 145.049 24.7 145.049 23.7C145.049 22.7 144.649 22.35 144.649 21.55C144.649 20.75 144.749 20.1 144.399 19.7C144.049 19.35 142.349 18.1 142.349 17.45C142.349 16.75 142.949 16.45 143.049 16.1C143.099 15.7 143.049 15.5 143.349 15.4C143.599 15.35 143.799 15.2 143.799 15.2L143.899 14.55C143.899 14.55 144.249 14.4 144.399 14.25C144.549 14.1 144.699 14 144.699 14C144.699 14 144.549 13.5 144.849 13.2C145.149 12.9 145.499 12.95 145.799 12.95C146.099 12.95 146.949 12.85 146.949 12.85C146.949 12.85 147.199 12.35 147.549 12.1C148.049 11.7 149.449 11.5 149.799 11.25C150.149 10.95 150.549 10.3 151.449 10.3C155.249 10.3 157.849 13.75 157.849 15.6C157.849 18.8 155.749 22.7 152.849 22.7C150.549 22.7 150.699 23.4 150.699 24.15C150.699 25.9 152.399 26.25 152.399 26.25C152.399 26.25 148.799 28.95 144.599 28.95C140.649 28.95 136.699 27.5 133.849 24.35C131.899 22.2 130.399 19.35 130.399 15.4C130.399 13.85 130.399 13.6 130.399 13.6C130.399 13.6 131.449 12.8 132.049 12.45C132.699 12.15 134.099 11.3 134.099 10.65C134.099 9.99996 133.849 9.69996 133.849 8.29996C133.849 7.64996 133.999 6.44996 134.599 5.64996C135.399 4.89996 136.599 4.34998 137.899 4.34998Z" fill="white"/>
<path d="M144.099 0.25C135.699 0.25 128.899 7.05001 128.899 15.45C128.899 23.85 135.699 30.65 144.099 30.65C152.499 30.65 159.299 23.85 159.299 15.45C159.299 7.05001 152.499 0.25 144.099 0.25ZM155.449 6C156.249 6.95 156.599 7.60001 156.599 7.60001C156.599 7.60001 156.049 8.15001 155.449 8.45001C154.849 8.75001 153.699 9.14999 153.699 9.14999C153.699 9.14999 153.299 7.84999 152.949 7.14999C152.599 6.44999 152.249 5.64999 152.249 5.64999C152.249 5.64999 152.599 5.39999 153.099 5.04999C153.599 4.69999 153.949 4.39999 153.949 4.39999C153.949 4.39999 154.799 5.2 155.449 6ZM150.449 2.10001C150.449 2.10001 151.499 2.54999 152.149 3.04999C152.849 3.54999 153.649 4.20001 153.649 4.20001C153.649 4.20001 153.549 4.40001 153.149 4.70001C152.749 5.00001 152.199 5.25 152.199 5.25C152.199 5.25 151.699 4.55 151.249 4C150.799 3.45 149.999 2.54999 149.999 2.54999C149.999 2.54999 150.199 2.35 150.299 2.25C150.399 2.1 150.449 2.10001 150.449 2.10001ZM148.449 5.25C148.299 4.55 147.899 3.89999 147.899 3.89999C147.899 3.89999 148.549 3.59999 148.949 3.29999C149.349 3.04999 149.699 2.75 149.699 2.75C149.699 2.75 150.399 3.44999 150.949 4.14999C151.449 4.79999 151.849 5.45001 151.849 5.45001C151.849 5.45001 151.199 5.75001 150.399 6.10001C149.649 6.45001 148.649 6.60001 148.649 6.60001C148.649 6.60001 148.599 5.95 148.449 5.25ZM148.849 10.45C148.849 10.45 148.499 10.55 147.299 10.6C146.099 10.65 145.049 10.6 145.049 10.6V7.25C145.049 7.25 145.949 7.29999 146.649 7.29999C147.299 7.29999 148.449 7.10001 148.449 7.10001C148.449 7.10001 148.499 7.65 148.649 8.5C148.799 9.3 148.849 10.45 148.849 10.45ZM149.199 1.54999C149.599 1.64999 150.099 1.95001 150.099 1.95001L149.649 2.29999C149.649 2.29999 149.349 2 149.049 1.75C148.749 1.45 148.099 1.25 148.099 1.25C148.099 1.25 148.799 1.44999 149.199 1.54999ZM147.999 1.45001C148.749 1.85001 149.349 2.54999 149.349 2.54999C149.349 2.54999 149.049 2.74999 148.649 3.04999C148.249 3.34999 147.699 3.45001 147.699 3.45001C147.699 3.45001 147.349 2.59999 147.099 2.14999C146.849 1.69999 146.099 0.850006 146.099 0.850006C146.099 0.850006 147.249 1.05001 147.999 1.45001ZM144.999 0.75C144.999 0.75 145.849 0.550012 146.599 1.95001C146.999 2.70001 147.349 3.54999 147.349 3.54999C147.349 3.54999 146.749 3.74999 146.149 3.79999C145.549 3.84999 144.999 3.75 144.999 3.75V0.75ZM144.999 4.20001C144.999 4.20001 145.549 4.25001 146.249 4.20001C146.899 4.15001 147.549 4 147.549 4C147.549 4 147.799 4.25001 147.999 5.20001C148.199 6.05001 148.299 6.70001 148.299 6.70001C148.299 6.70001 147.599 6.90001 146.599 6.95001C145.599 7.00001 145.049 6.89999 145.049 6.89999V4.20001H144.999ZM144.549 0.75L144.599 3.79999C144.599 3.79999 143.949 3.84999 143.199 3.64999C142.499 3.44999 142.149 3.25 142.149 3.25C142.149 3.25 142.549 2.49999 143.049 1.79999C144.149 0.299988 144.549 0.75 144.549 0.75ZM143.599 0.649994C143.599 0.649994 142.899 1.29999 142.599 1.89999C142.299 2.49999 141.849 3.10001 141.849 3.10001C141.849 3.10001 141.299 2.85001 140.949 2.60001C140.599 2.35001 140.399 2.14999 140.399 2.14999C140.399 2.14999 140.999 1.44999 142.099 1.04999C143.099 0.699988 143.599 0.649994 143.599 0.649994ZM140.749 1.04999C141.299 0.899988 141.749 0.899994 141.749 0.899994C141.749 0.899994 141.099 1.2 140.749 1.5C140.399 1.75 140.099 1.95001 140.099 1.95001C140.099 1.95001 139.949 1.85001 139.849 1.70001C139.749 1.55001 139.749 1.39999 139.749 1.39999C139.749 1.39999 140.199 1.14999 140.749 1.04999ZM144.149 30.2C136.699 30.2 129.349 24.25 129.349 15.5C129.349 4.5 139.349 1.5 139.349 1.5L139.949 2.04999C139.949 2.04999 139.399 2.40001 138.999 2.85001C138.549 3.30001 138.299 3.70001 138.299 3.70001L138.549 3.95001C138.549 3.95001 138.849 3.49999 139.199 3.14999C139.549 2.79999 140.049 2.39999 140.049 2.39999C140.049 2.39999 140.549 2.95001 140.899 3.10001C141.249 3.30001 141.699 3.5 141.699 3.5C141.699 3.5 141.649 3.74999 141.499 4.04999C141.349 4.34999 141.249 4.75 141.249 4.75L141.549 4.95001C141.549 4.95001 141.749 4.35001 141.899 4.10001C141.999 3.85001 142.099 3.64999 142.099 3.64999C142.099 3.64999 142.849 3.95001 143.499 4.10001C144.149 4.25001 144.599 4.20001 144.599 4.20001V6.79999H143.649V7.25H144.649V10.55H143.799V10.9H144.599V12.1H144.999V10.95C144.999 10.95 145.499 10.95 146.899 10.9C148.249 10.85 149.149 10.7 149.149 10.7C149.149 10.7 149.099 9.44999 148.999 8.54999C148.899 7.64999 148.699 6.95001 148.699 6.95001C148.699 6.95001 149.499 6.85 150.349 6.5C151.199 6.15 151.949 5.79999 151.949 5.79999C151.949 5.79999 152.399 6.44999 152.749 7.39999C153.099 8.34999 153.449 9.29999 153.449 9.29999L152.849 9.54999L152.949 9.85001L153.649 9.64999L153.849 10.05L154.099 9.95001L153.899 9.54999C153.899 9.54999 154.699 9.29999 155.499 8.89999C156.299 8.44999 156.899 8.04999 156.899 8.04999C156.899 8.04999 158.899 11.1 158.899 15.45C158.899 22.1 153.699 30.2 144.149 30.2Z" fill="white"/>
<path d="M14.7996 34.95V31.55L14.6996 31.45C13.0996 34.2 11.1496 35.6 7.49963 35.6C4.14963 35.6 0.0996094 33.95 0.0996094 28.35V11.55H3.89966V27.05C3.89966 30.9 5.79962 32.2 8.29962 32.2C13.0996 32.2 14.5496 27.8501 14.5496 24.4501V11.6001H18.3496V34.95H14.7996Z" fill="white"/>
<path d="M42.5994 34.95H38.7994V20.5999C38.7994 16.5499 37.6494 14.4999 33.9494 14.4999C31.7994 14.4999 27.9494 15.9499 27.9494 22.2499V34.95H24.1494V11.5999H27.7494V14.8999H27.8494C28.6994 13.6499 30.7994 10.95 34.6994 10.95C38.1994 10.95 42.6494 12.3999 42.6494 19.0999V34.95" fill="white"/>
<path d="M48.3496 7.35004V2.90002H52.1497V7.35004H48.3496ZM52.1497 34.95H48.3496V11.6H52.1497V34.95Z" fill="white"/>
<path d="M72.0496 19.45C71.5496 16.35 69.8997 14.45 66.6497 14.45C61.8997 14.45 60.3997 19.1 60.3997 23.25C60.3997 27.25 61.3496 32.2 66.5996 32.2C69.1496 32.2 71.3996 30.25 72.0496 26.65H75.7496C75.3496 30.35 73.1496 35.6 66.4996 35.6C60.0996 35.6 56.3496 30.65 56.3496 23.9C56.3496 16.65 59.7496 10.9 67.2496 10.9C73.1996 10.9 75.4496 15.35 75.7496 19.45H72.0496Z" fill="white"/>
<path d="M98.85 27.6C98.7 28.7 97.7 32 94.8 34C93.75 34.7 92.3 35.6 88.65 35.6C82.25 35.6 78.5 30.65 78.5 23.9C78.5 16.65 81.9 10.9 89.4 10.9C95.95 10.9 99.15 16.25 99.15 24.5H82.55C82.55 29.35 84.75 32.2 89.15 32.2C92.75 32.2 94.9 29.35 95 27.6H98.85ZM95.2 21.4C95 17.8 93.5 14.45 88.85 14.45C85.35 14.45 82.55 17.8 82.55 21.4H95.2Z" fill="white"/>
<path d="M108.45 14.8499V34.95H104.65V14.8499H101.55V11.5999H104.65V7.59995C104.65 4.04995 106.8 2.44995 110.55 2.44995C111.1 2.44995 111.7 2.49993 112.3 2.54993V6.09995C111.8 6.04995 111.2 5.99994 110.75 5.99994C109.1 5.99994 108.5 6.84995 108.5 8.69995V11.5999H112.3V14.8499H108.45Z" fill="white"/>
</svg>
